/* XPM */
static char *_2d993530d484060a7db1ce7761fe2dd0xnzS02CoEzPbeJa[] = {
/* columns rows colors chars-per-pixel */
"64 64 182 2 ",
"   c #8FA93D",
".  c #91AB3E",
"X  c #96B141",
"o  c #9AB545",
"O  c #9EB946",
"+  c #9CB549",
"@  c #9EB94B",
"#  c #A1BC46",
"$  c #A2BD4C",
"%  c #A4BE52",
"&  c #ADBC65",
"*  c #ACBE6C",
"=  c #B5BD6A",
"-  c #AEBE71",
";  c #A6C14D",
":  c #A9C44E",
">  c #AECC4F",
",  c #B2CC4D",
"<  c #BDD943",
"1  c #B7D64B",
"2  c #BAD74D",
"3  c #B7D84E",
"4  c #BAD94E",
"5  c #A6C152",
"6  c #AAC552",
"7  c #AEC954",
"8  c #A7C158",
"9  c #ACC559",
"0  c #AFCA59",
"q  c #B2C755",
"w  c #B2CD55",
"e  c #B2C25C",
"r  c #BFC75A",
"t  c #B3CD5A",
"y  c #B8CF5F",
"u  c #B6D355",
"i  c #BAD455",
"p  c #BAD852",
"a  c #B6D35B",
"s  c #B8D45B",
"d  c #BCD85C",
"f  c #AEC364",
"g  c #B3C463",
"h  c #BBC761",
"j  c #B4CC63",
"k  c #B9CD63",
"l  c #B3C46C",
"z  c #B9C56C",
"x  c #B6CC6B",
"c  c #BACE6B",
"v  c #B6D261",
"b  c #BAD261",
"n  c #B8D362",
"m  c #B9D261",
"M  c #BBD760",
"N  c #B9D462",
"B  c #B8D364",
"V  c #BAD365",
"C  c #BAD165",
"Z  c #BCD666",
"A  c #BAD462",
"S  c #BCD867",
"D  c #BDD863",
"F  c #B5D468",
"G  c #BAD169",
"H  c #AEC076",
"J  c #B3C074",
"K  c #B4C474",
"L  c #BAC574",
"P  c #B5CA73",
"I  c #BBCB72",
"U  c #B8CA72",
"Y  c #B8CD70",
"T  c #BBCC77",
"R  c #BACC73",
"E  c #B6C17B",
"W  c #BEC17F",
"Q  c #B9C57C",
"!  c #B6C979",
"~  c #BACD7B",
"^  c #BACB7F",
"/  c #BBCD7B",
"(  c #BFD174",
")  c #BED078",
"_  c #BED27B",
"`  c #C4C952",
"'  c #C8C459",
"]  c #D3D15B",
"[  c #C0C562",
"{  c #CBCC65",
"}  c #C8CD6D",
"|  c #CED165",
" . c #C0D962",
".. c #C0C975",
"X. c #C2CB72",
"o. c #CECB77",
"O. c #C5CC79",
"+. c #C3CA7D",
"@. c #C4D67E",
"#. c #C0D079",
"$. c #D9D171",
"%. c #B5BF82",
"&. c #C1BD98",
"*. c #B6C682",
"=. c #B5C481",
"-. c #BBC684",
";. c #BBCD84",
":. c #BAC288",
">. c #BCCC8D",
",. c #BFD180",
"<. c #BECAA3",
"1. c #C4C782",
"2. c #C3CE83",
"3. c #C4CE8D",
"4. c #C2CE8C",
"5. c #C8CA8C",
"6. c #C4D487",
"7. c #C2D081",
"8. c #C8D484",
"9. c #C0D088",
"0. c #C5D68B",
"q. c #C3D28A",
"w. c #CBD48D",
"e. c #C4C795",
"r. c #C0C793",
"t. c #C2CE96",
"y. c #C1CA90",
"u. c #C9CD96",
"i. c #C3CD9A",
"p. c #C4C99D",
"a. c #C0D190",
"s. c #CBD592",
"d. c #CCD496",
"f. c #CBD494",
"g. c #C7D890",
"h. c #CDD897",
"j. c #CEDA94",
"k. c #C4D19A",
"l. c #CCD49A",
"z. c #CEDB99",
"x. c #D1D795",
"c. c #D2D893",
"v. c #D3D79F",
"b. c #D3DB9D",
"n. c #DCE49E",
"m. c #C9D2A2",
"M. c #CFD9A0",
"N. c #CCD8AC",
"B. c #D1D3A1",
"V. c #D5DEA0",
"C. c #D1DBA7",
"Z. c #D2D9A4",
"A. c #DEDFA0",
"S. c #DADEA5",
"D. c #D4D6A9",
"F. c #D4DAAD",
"G. c #DAD8AA",
"H. c #CFD6B2",
"J. c #D1D7B3",
"K. c #D6DBB0",
"L. c #D6DAB3",
"P. c #D8DBB2",
"I. c #D4D5B8",
"U. c #D9DDB8",
"Y. c #DCDCBB",
"T. c #D6E0A3",
"R. c #DAE2A8",
"E. c #D9E2B0",
"W. c #D9E0B1",
"Q. c #D6E0BD",
"!. c #D9E0BB",
"~. c #E2EABC",
"^. c #E3E4B3",
"/. c #D6DCC1",
"(. c #DFDEC1",
"). c #DCE1C1",
"_. c #E0E3C4",
"`. c #E9EBC5",
"'. c #E2E9CC",
"]. c #E9F1C4",
"[. c #E8EED0",
"{. c #F7F7E8",
/* pixels */
"s s s s s s s s s s s s s a a a s i i s i s k  .i s s s s s s s s s s u d w a p 3 v s s s s s s s s s s s s a s a p F 3 N s s s ",
"s s s s i s s s s s u s s u s s p s s s s s s s i y s s a s s s s s s s v 0.F *.x s s s u s s s s s s a s s s s a a s t , u s s ",
"s s s s s s s s s s s s s s s a i x l I T y 2 s s s s s N a s a s s s s g P.T )._ u s s a s s s s s s s s a s s M a P H.'.f i s ",
"s s s s s s s s s s s s s s s B 3 >.b.1.p.j 2 s y s s s a M N s s s s s y l.O.:.v s s s a a s s a s a s s s s s u _ ).j z.j s s ",
"s s s s s d y w t s s s s a d v 1 ^ 3.z U.~ u s s i s t 6 t s s s u s s v s.e.6.u M u s s s s s d a a a a s a s N h %.A.l a a a ",
"s u i s y :  ., # d B 5 7 a s a 2 y t.R.K s s s s s a : ; ; s s s s s s a t a w s s a a i s s d > a M a s s a M s s I C.R a s s ",
"s b s s d $ % r o + 9 ; O s s s i i R j u s s s s s s q 7 t s s s s s s s s s s s s a s 6 a 5 B $ 0 a S M v M a i i d t s i s s ",
"i s b s i $ % $ b q 7 a ; 7 s N s i s u i s s s s s y s s N s s u s s s s s s s s s s v 5 6 @ 9 0 + @ 8 % @ 7 u b i 4 i s s a s ",
"2 i i b g i d i i d s s d s s i u s N C s s s s s a s a s s s s a s s s s a s a s i a s 7 0 5 @ j 5 ; @ 9 ; @ u V s s s b s s s ",
"b i i ! U.g s b s s s i s s s i d s i s s s s s s s s s s s i s s s s s s s s s s s s a u s N s a a M d s M a u s d s k s s s s ",
"V u I o.$.;.R s s s s s s s s s s s u u s s s s s s i s s s i y s d a a s s s s s s s s u s s s a u s s a s s s s i a s s s s s ",
"2 t k.B.' s.I i y s s s s s s s s s s a s s s s s s s s s s s s s s s s s s s s s s s a s s s s a a s s s a s s s s s s s s s s ",
"s 2 w *.(.* s i s s s s s s s s s s s s s s s s s s s s s s s s s s s s s s s s s s s s s s s s s s s s s s s s s s s s s s s i ",
"b s N s t C i i s s s s s s s a s s s s s s s s s s s s s s s s s s s s s s s s s s s s s s s s s s s s s s s s s s s s s s s a ",
"i s i i  .k s s b s u s s s s s s s s s s s s s s s s s s s s u s s s d s s s s s a s s s s s s s a s s s s s s s s s s s s a s ",
"b s s i s s s s s i i a s s s u u s s s 6 a s s s a a a s i y 2...i ` s s s s s a s s b s s u s s s s s a s u v a u s s s a s s ",
"s s s a s s s s s s s s s s s s i s s d O t s u s s s b i s * ^.2.x d i ` s s s s s y s s s a , s s s M s s b s i s s s s s s s ",
"s s s s s s s s s a s a s a a s s s v a $ 0 s s s b s s s U R.h ..z G 4 s s s i i i ` i s s a : s s s v s b g a s s s s s s s s ",
"s s s s s s s s s s s s s a a a s a N a ; 0 d v t 6 d s i I 5.u.{.L i i d s s s d b i i s s t @ t s u v < t !.;.u s s s s d u a ",
"s s s s s s u s s s s s N $ 7 a u a N 0 6 0 d M % % d b s s t j c y ` y s s b t j j y y i  .0 o t d i N k L Z.L y s s s s a a a ",
"s s s s s a B d a a s y d : 7 o 5 ; v 0 0 7 S v 5 0 M b s u d v u s y i a p j g.w.s.g s s s y t a a s i -.].- M.G s a d a d a a ",
"s s s s s u j e 2.d.t d M q t t % +   $ B @ % 6 9 5 t s w u s s d s s i t b , >.5.+.-.3 s b s s a d a i b P =.s.x s N a a a a d ",
"s s s s s q W.Z.X.F.q s s t q Z a 7 7 # N 7 $ X t X o 7 $ w N s s s  .t B.&.8.<.P.u./.> s s s s a d a i i b s u a a d v a a a s ",
"s s s s s j j.u.s.Q ` s s y s s s s s d s N d w a 7 9 @ 9 a N s i d b l 1.| x.H E = q s s i s s s a a d s s s i s a a N s d a s ",
"s s s s s u ~ %.D.O.u s a s M s s s s s a u s d s d a a u u a a i s y / T.} p.q.Z.v.V.g B i s s s s a a a a s a a s u a v a d a ",
"s s u s v l D.f.& v s s s s s s s s s s d a s u s s M s s s s M s i b k R ^ q.y.m.-.k.t M M s s s s d u d ; a N v a ; d a a s a ",
"s s i s x Y.` { I.0 4 s s s s s a u s s s s u s s s a a s s 7 > s s s i i s u t ;.h.g d i s s s s u s d a O a a s O : v N v N a ",
"s i s N B & j.j.g s s s s s s s a s s s s s s s a s a s s s > > s s s s s k s s c ( y s i s s s d a a a ; 6 a s 0 ; w M ; a a d ",
"s s i y  .t ;.,.s d b a s a s s a s s s a s a s s s s s d a d a s s s i s b i ` a a s s s a s a ; a S a : 0 N a 6 7 a 9 O N a a ",
" .s s s s i y y s s s s s s s s s s s s s s s s a s a a s a a s s s s s i k d i s s 7 7 a s s d @ ; 0 6 0 % 9 7 0 0 t ; t M a a ",
"y s s s i ` d s i b s s s s s s s s s s s s s s d s s d s a a a s s s u s N s s N a ; @ 7 a s s t ; X $ v o X 5 v X 5 9 6 ; N s ",
"i s s s s s a a b a s s s s u i s s s s a s a s a a s a a d d a s s s s s s s s a a a a a N v a a : : t v 7 7 7 N $ a ; o @ 6 M ",
"s s a s s a # s N 6 6 M s s i s a a s s a s s a d a a s s s s s s s a s s a s s s a s N N s a v a a M N s d M a s d a a d : : s ",
"a s s s s N @ t Z ; 6 w b b s s s d a s a s s s a a d s s a s s s s s s s s a s s s a d a s a a M s a s p a a a d a u d a d M a ",
"s s s d : 6 5 8 N 6 8 + 0 t 6 7 d a a s d s s s a s s s s a s u u s s s s s s s s s s s N a d s s s s s s a s u u s a s d a a s ",
"a s a s u $ $ # . 5 $ + X @ : q d a s a # > s s s u a s s s s s a s s s s s a s s s s s s i s s s s s s s s s s a s s s a s s s ",
"s a d s s w $ j $ 5 7 t q y s s s s d u : u s a s s a d s s s s s s s s s d s i i s a i V i u s s s s a s s s s a s a d a a a s ",
"s s s s s t a s s s s s y  .s s s s s s d s s s s s a a s s s a s s s s s s s s s R k.7 G S u s s s s s s s a s d s a a a d s s ",
"s s s s s i s i s s s s s s s d y s s s s s s s d a s d s s s s s s s s s s i s j -.F.>.x v a s s s s s a s a s a a s s a s a d ",
"s s s s s s s i s s s s y s s s ` s s s u d a a a s a a s s s s s s s s s s s s / K.g H.~ u s s s u s s s s s s > d s u d s a a ",
"s u s s s M a a s s s s s  .s s d s s s s a s s s s s s s a s s s s s a s s i b c w.y.4.0 d s s s s s s s s s w ; u s s s s s s ",
"a a s a M s s s s s s i s h ! G d s G s i s a s s a a s s d s s s s s s N N s s a w j w d a s s s s s u s s F 8 @ 0 M a s u s s ",
"s s s s 6 w s a s s s i c - G.k.t s s b a s s s s s s s s a a s s a b b M a a d s s i s a s s a s a s a s s M v 0 a a s p s s a ",
"s s s 0 $ 7 M s s s s t P.`.' e.x i i b a s a s s a s a a d a a s a a t 6 M a a s s s s d s s s s s s s a s a s M v s s a s s s ",
"s s d 6 # > d a s s s i I 4.+.~.j i s a s s s s s s v b a 7 s a s v s ; ; M a a s s s a s s s s s d a a a d a s a s v d a s a d ",
"s s a a a s s a s s i i s j x j N u s s s s s s s s # s w $ s s a s t ; 0 M s s s s s s s s a s s a s s a d u s d s a a s s a a ",
"s s s s s s s s s C s s s s s d s s s s u d w ; s M $ 7 7 6 t w M a ; a 9 7 N s i a N a a s u a s a u d s a d a a a d a a a s s ",
"s s s s s d i i s b s s s s a s s s s s s a v ; 6 7 6 5 6 0 t @ t a : a + o N a s a 7 a s s s d 7 w a a s a a s s s a s s d a s ",
"s s a s s s i s i s s s s s s s a a d a s s 9 % 5 o $ 9 $ b + + o 7 u 0 + . 8 ; # 6 # s s s s t @ 5 M a s s s s s s s s s s s u ",
"s s s s s s b b s i s s s s s s d a a a a d v @ 5 a t a w s 6 9 o # D 7 9 7 o o 6 w t s s s d y 6 7 s a s s s s s s s s s s a a ",
"s s a s s V t j  .s s s s s s s s s t > s u s M a a a a s s d s s a s a a s t 7 M 7 y s s s d s M s a d s s s s s d u s s s a s ",
"s s s s d q z.v.q G s s s s s s s a ; 6 d a a s a s 3 d s d c s p b i s s a s s s t s s s s s s s s s 5 t s s M 6 0 d s s s s s ",
"s s i  .u L L -.! u 3 a s s s u a M 7 > s s s s s s s s i p d p 2 s i b s s s s s s s s ` s d s s a b $ 6 s u s O t M a s s s s ",
"s s y i q ^.l.S.H.t d s s s a a M a a v s a s a s d s d s j a 0 v a i b s s s s s s ` s s i s s M 6 # t 6 $ t t $ t M s u a s s ",
"s s s  .y x Q L k s v d a s a a d a M a s s s s s i s u j k.g b.;.a i s s s s s s s s M s s s y s d $ ; $ + % 7 ; X a 6 # s s s ",
"d s s y s 3 a y 4 s a a d a a d v s a s s s s s a u G i j G.] o.E 2 d b s s s s s s d w d q i s s N y ; + % X # w . @ 6 w s a s ",
"s s s s a a > ; s v s w a s a a s u a a d a s s s i s i k -.O.x.7.a s  .y s s s d 3 x >.x b.k s s s d 0 a a 7 > M t u 7 w d a a ",
"s s s s s M v @ B a t + v N s s s s a a s a s s s s i  .j _ >.L j s i s s s s s a s ~ [.e B.c i s s s s a a a d a d d a a a s a ",
"s s s s u 5 j @ % % 8 + 9 t ; s s s s s s s s s s s k s s y y s i i i s s a s s s G k f ).L i s d s s s s s a d a d a a s a s s ",
"s a s a s 5 X @ + @ % + X O $ M s s s s s s s s s y s s i i s s s s C b i s s s i s s t N./ i s s s s s s a s s a a a s s a d a ",
"s a s s s t : u d 0 7 u 7 0 5 v u s s s s s s s s s i s s s s b b s s s a s a s s i N V w a s s y ` s s u a s a a d s s s a a d ",
"s s a s s s s s s d d s M a N s s s s s s a i s s s s s s s s s s s i u s s s s s N s i M p s s s s s s d a s s a a s a a d a a ",
"s s s s s s s s s s s s s s s s s s s s a s s s s s s s s s a s s s s s s s s s s s d a a a s s s s s s d a a a s s u s s a s s ",
"d a s s s u s s s s s s s s s a s s s a s s s s s s s s s s s s s s s s s s s s s a a s s s s s s s s s a s s d a s d a s a d a "
};
