/* XPM */
static char *result[] = {
/* columns rows colors chars-per-pixel */
"64 64 235 2 ",
"   c #010101",
".  c #0A0305",
"X  c #060904",
"o  c #0B0D07",
"O  c #0C0E09",
"+  c #0D0708",
"@  c #160B0B",
"#  c #1A0B0D",
"$  c #0F1606",
"%  c #0E130A",
"&  c #0F1808",
"*  c #101607",
"=  c #11160A",
"-  c #141A0C",
";  c #161A0A",
":  c #191E11",
">  c #181611",
",  c #1C0D11",
"<  c #210E0E",
"1  c #22100F",
"2  c #230E11",
"3  c #211214",
"4  c #2C1617",
"5  c #321717",
"6  c #1B240B",
"7  c #19250C",
"8  c #1C2312",
"9  c #1E2715",
"0  c #29390C",
"q  c #232B14",
"w  c #242918",
"e  c #2B3519",
"r  c #2D3719",
"t  c #333C1B",
"y  c #313818",
"u  c #21260F",
"i  c #3C2021",
"p  c #323925",
"a  c #2C3123",
"s  c #3B1F23",
"d  c #461E22",
"f  c #4C2123",
"g  c #482527",
"h  c #562A2C",
"j  c #5D2E32",
"k  c #663438",
"l  c #77373A",
"z  c #643130",
"x  c #401C1C",
"c  c #374719",
"v  c #3C5513",
"b  c #32470E",
"n  c #394522",
"m  c #3D4B24",
"M  c #3A4528",
"N  c #42521C",
"B  c #4C6918",
"V  c #587B19",
"C  c #506E17",
"Z  c #414B21",
"A  c #435225",
"S  c #495727",
"D  c #515D28",
"F  c #444835",
"G  c #495337",
"H  c #535D3F",
"J  c #744437",
"K  c #664339",
"L  c #4E622D",
"P  c #58662B",
"I  c #566B32",
"U  c #586C33",
"Y  c #5B7235",
"T  c #5E7438",
"R  c #4E6230",
"E  c #637434",
"W  c #687B37",
"Q  c #65752D",
"!  c #7B3F42",
"~  c #764D43",
"^  c #784E44",
"/  c #7D4444",
"(  c #586544",
")  c #69764D",
"_  c #873B3D",
"`  c #8E3C42",
"'  c #9A5153",
"]  c #924B4D",
"[  c #BA4A53",
"{  c #A8585A",
"}  c #B04E53",
"|  c #B87463",
" . c #D35A64",
".. c #E35F68",
"X. c #C66469",
"o. c #D87172",
"O. c #EF6E76",
"+. c #CA545D",
"@. c #5B821B",
"#. c #658E1E",
"$. c #6A941E",
"%. c #6C833C",
"&. c #6B8139",
"*. c #7A8C3B",
"=. c #738539",
"-. c #709627",
";. c #79AB24",
":. c #7EB025",
">. c #6E8B41",
",. c #768D41",
"<. c #769344",
"1. c #7D9D49",
"2. c #7A9646",
"3. c #768759",
"4. c #7C905E",
"5. c #7F9957",
"6. c #839539",
"7. c #82B825",
"8. c #99B13F",
"9. c #8DC729",
"0. c #91CD29",
"q. c #99D82B",
"w. c #91C931",
"e. c #9FE22C",
"r. c #9FE526",
"t. c #A2E62D",
"y. c #A5EA2E",
"u. c #A8EE2E",
"i. c #A0E627",
"p. c #ABF22F",
"a. c #AEF82F",
"s. c #A4E633",
"d. c #A9EB37",
"f. c #ACF430",
"g. c #AFF931",
"h. c #B1FA32",
"j. c #879A42",
"k. c #848F58",
"l. c #87A64B",
"z. c #95AA4A",
"x. c #9DB64A",
"c. c #8DB252",
"v. c #94BA56",
"b. c #96BB56",
"n. c #90AD53",
"m. c #A4BC4D",
"M. c #A4BC52",
"N. c #AAB858",
"B. c #8DA46A",
"V. c #95A96F",
"C. c #A9BC74",
"Z. c #888D6B",
"A. c #ED886D",
"S. c #EC8E76",
"D. c #CB8472",
"F. c #9DC45A",
"G. c #9EC85B",
"H. c #92C144",
"J. c #A9C34D",
"K. c #B9D74C",
"L. c #ABC454",
"P. c #A2CC5D",
"I. c #A9C655",
"U. c #B2CC56",
"Y. c #B2CD59",
"T. c #B0C75B",
"R. c #A9D15B",
"E. c #B5D355",
"W. c #BAD455",
"Q. c #B6D25B",
"!. c #B9D45B",
"~. c #BDDA5D",
"^. c #B8D852",
"/. c #AFD14B",
"(. c #ABE844",
"). c #ADE84B",
"_. c #B4EA5A",
"`. c #B1E954",
"'. c #B6F151",
"]. c #A9CC61",
"[. c #B5C867",
"{. c #AEDB64",
"}. c #A9D462",
"|. c #BAD362",
" X c #B0DD65",
".X c #BFDB61",
"XX c #B6D363",
"oX c #B9C977",
"OX c #B5E569",
"+X c #B8E669",
"@X c #BBEC6C",
"#X c #B6E666",
"$X c #BEF16E",
"%X c #BDED70",
"&X c #BFF170",
"*X c #C1DD5D",
"=X c #C8C45A",
"-X c #C3E15E",
";X c #C2DD62",
":X c #C5D261",
">X c #C5D67B",
",X c #CACB79",
"<X c #C4E161",
"1X c #C9E965",
"2X c #C1F36F",
"3X c #C3F86F",
"4X c #C2F571",
"5X c #C6FA72",
"6X c #C9FC74",
"7X c #CEE86E",
"8X c #FC7B84",
"9X c #EF7E84",
"0X c #ADB88E",
"qX c #FE848B",
"wX c #FF878C",
"eX c #F39D88",
"rX c #FF8C92",
"tX c #FF8791",
"yX c #EA8C84",
"uX c #F8A08C",
"iX c #BAC882",
"pX c #B5CA8A",
"aX c #C7D38B",
"sX c #D6DB9D",
"dX c #C5CF93",
"fX c #C9E598",
"gX c #D3D8A5",
"hX c #D3DAB8",
"jX c #D9EBAF",
"kX c #E3EAB4",
"lX c #EDFFB3",
"zX c #F7FFB9",
"xX c #E8FFAF",
"cX c #DEDEC0",
"vX c #E1E6C9",
/* pixels */
"!.!.!.Q.Q.!.!.!.Q.!.!.!.!.!.!.!.!.W.!.!.^.!.|.!.!.!.!.!.Q.Q.!.Q.Q.!.!.!.!.E.E.Q.^.!.!.!.!.!.!.Q.!.Q.!.!.Q.!.!.!.!.^.XX^.|.!.!.!.",
"!.Q.!.!.!.!.Q.!.Q.Q.Q.!.Y.!.!.W.^.~.!.!.!.!.!.!.!.!.!.!.Q.Q.Q.!.!.Q.Q.!.XXaX[.iX[.!.!.!.!.!.!.Q.Q.!.!.Q.!.Q.Q.!.Q.Q.!.U./.W.!.!.",
"Q.!.Q.!.!.Q.!.!.!.*X;X;X;X!.Q.!.W.[.[.,XoXY.W.W.Q.!.Q.Q.|.;X*XY.E.~.<X!.[.gXoXvXoXE.!.Q.!.!.!.!.!.Q.!.!.Q.!.!.!.!.~.oXhXvX[.Q.Q.",
"!.!.Q.!.!.Q.!.Q.*Xj.D D *.U.*XXXU.iXsX,XdX[.W.!.:X*X;X:XQ.*.t - - y =.Q.|.sX>XiX.X-X!.Q.!.!.!.Q.!.!.!.!.!.!.!.!.E.oXhX[.dXXX!.!.",
"!.Q.!.!.!.!.!.W.U.u       8 z.;XK.oXaXC.kX>XW.*X=.y W x.y     - 8     y n.Z.F a c E L.~.Q.Q.!.!.!.!.!.!.!.!.Q.!.!.[.,XgX[.!.Q.!.",
"!.W.W.W.!.J.*XU.z.% w C.(   : L.*XY.iXkXk.=./.d.B     X   n F.@X@XP.m   o .   X X   % j._.Q.Q.Q./.Q.!.XXQ.Q.!.!.!.!.oXgXoX|.Q.!.",
"!.!.|.!.!.m.M.U.x.; % fXlX(   E 1X-X>Xn.  & q.y.t.w.T   n 2X4X@X@X4X4XA   I P.{.P.E . . j.7XU..XJ.I.XX|.XXXX.XQ.W.^.Q.T.!.!.!.!.",
"!.!.!.|.W.M.m.m.;XE   G jXfX. q *.P =.e   $.p.t.t._.6XG.OX$X@X@X@X+X%XOXF.5X4X@X2X6X1.  u W P &.n.J.x.I.M.x.U.Q.|.W.K.W.W.!.!.Q.",
"W.K.W.!.[.Y.*XW.*XU.y   8 G @           0 f.t.t.d.@X+X&X@X@X@X@X@X@X@X%X4X+X@X@X@X+X5Xm   X       S x.M.L.J.m.!.XXQ.*X;X;X!.!.!.",
"|.W.E.oXhX[.Y.!.Q.*XU.D O     7 @.;.$.v :.u.t.i.).%X$X@X@X@X@X@X@X@X@X@X@X@X@X@X@X@X&Xv.m >.l.%.8   n Q.!.!.!.Y.*X!.z.,.j.Y.!.!.",
"|.E.,X,X,X,XoXW.!.Q.!.<XY   b e.h.p.g.g.u.s.(.`.#X@X@X@X@X@X@X$X@X@X@X@X@X@X+X@X@X@X@X$X4X5X5X5X+Xm   Q .XU.!.;Xz.q .   . P ;X!.",
"K.Y.dXgX=XaXoXW.!.Q.*X:X6 X 0.u.q.t.e.r.(.+X@X%X@X$X$X@X@X@X@X@X@X@X@X@X@X$X4X@X@X@X@X@X@X+X@X+X2X{.% ; !..X!.x.+   G )   Z *XW.",
"|.*X/.C.kXC.Q.W.*X*Xm.&.  b p.t.t.t.t.(.@X@X@X$X@X@X@X@X@X@X@X@X$X@X@X$X4X}.F.+X4X@X@X@X@X@X@X@X+X5XS   &.M.<Xc . 3.lX0X  D ;XE.",
"!.!.|.|.T.|.Q.*Xx.t       B f.t.t.t.s.#X@X@X@X@X@X@X@X@X@X@X@X@X@X@X$X{.A     : 1.4X@X@X@X@X@X@X@X5XY       t X a xXfXp   j.~.Q.",
"W.!.W.:X|.|.*Xz.+   0 V V 9.y.t.s.r.(.%X@X@X@X@X@X@X@X$X@X$X@X@X@X@X$Xm   < d .   c.5X@X@X@X@X@X@X$XG.T T e     p 4.w   Z ~.!.!.",
"!.!.W.W.!.!.L.:   #.p.g.p.y.s.t.y.r.).@X$X@X@X@X@X@X@X@X@X@X@X@X@X&Xv.  5 O.rX]   m 4X@X@X@X@X$X@X@X$X6X5X2X>.        S E.!.Q.!.",
"!.Q.Q.!.Y.<X&.  B g.e.e.e.t.y.t.t.r.(.$X@X@X@X@X@X@X@X@X@X@X@X@X@X5Xn.  k 8XrXo.  r 5X@X@X@X@X@X@X@X@X@X#X@X6XI   Z M.~.!.!.!.!.",
"!.!.!.!.!.*Xc   9.u.e.t.t.t.t.t.t.s.`.@X@X@X@X@X$X@X@X@X@X@X@X@X@X@XT   2 +.qXl   q F.5X@X@X@X@X@X@X@X@X@X@X2XP.  Z <XQ.!.!.!.Q.",
"Q.Q.!.Q.Q.-Xt . q.y.e.y.t.s.t.t.(.@X@X@X@X@X@X@X@X@X@X@X@X@X@X&X{.e .     + ,         >.4X@X@X@X@X@X@X@X@X@X@XOXo e ~.Y.W.!.!.Q.",
"!.!.!.Q.*XM.q   7.f.e.e.t.t.t.(.%X@X@X@X@X@X$X@X@X@X@X@X$X@X@X4XL   d { l     < } ] . X P.2X@X@X@X@X@X@X@X@X2XF.  q L.*XQ.Q.!.!.",
"!.!.Q.*X=.o   X :.f.e.y.t.r.s.#X@X@X@X$X@X@X@X@X@X@X@X@X@X@X$X+X8 . ..qXwXi   [ qXrX/   <.5X@X@X@X$X@X@X@X@X4XF.X   = *.~.!.!.!.",
"Q.Q.;X*.  % @.0.s.t.y.t.f.p.).6X$X@X@X@X@X@X$X@X@X@X$X@X@X@X@X+X8 . ..tXqXi   [ qXrXl   <.6X@X@X@X@X$X@X@X@X@X&XP.E O   2.*XY.!.",
"Q.~.L.-   7.h.y.e.y.y.s.@.0 r %.+X$X@X@X@X@X@X@X@X@X@X$X@X@X@X5XI   5 { k     < ' /   o P.&X+X$X@X@X@X@X@X@X@X@X&X6Xc.  - U.!.!.",
"Q.<X*.  C g.e.t.y.e.y.b         m $X@X@X@X@X@X@X@X@X@X@X@X@X@X$XOXt   .   9 A         1.4X@X@X@X@X@X@X@X@X@X@X@X@X+X6XI   *.<XQ.",
"Q.<XP   ;.p.t.t.e.f.-.  5 +.o.5   1.5X@X@X@X@X@X@X@X@X@X@X@X%X@X@X@Xj.T >.{.5Xc.T %.G.4X@X@X@X@X@X@X@X@X@X@X+X@X@X@X5Xc.  P -XE.",
"Y.<XD   :.p.t.t.q.g.C   } qXrX{   Y 5X+X@X@X@X$X@X@X@X@X@X@X@X@X@X@X5X5X6X%X@X4X5X6X$X@X$X@X@X@X@X@X&X5X&X5X&X$X@X@X&Xv.  L <XQ.",
"Q.*X=.  V a.t.t.t.g.B   l O.rXl   Y 6X$X@X@X@X@X@X@X@X@X@X@X$X@X@X@X@X@X+X@X@X@X+X@X@X@X@X@X@X@X$X&Xc.R c m F.$X@X+X6X%.  W -XQ.",
"!.*Xm.X % 0.t.y.q.v     . h h .     m OX$X@X@X@X@X@X@X$X@X@X@X@X@X@X@X@X@X@X@X@X@X@X@X@X@X@X@X@X$XI     X   L 6X+X$X{.-   M.|.Q.",
"!.*XS   * 0.y.u.v   4 j #   . @ j 4   S &X@X@X@X@X@X@X@X%X@X@X@X@X@X@X@X@X@X@X$X@X@X@X@X@X@X+X5X%.  8 B.B.  m 4X+X$X}.%   D !.Q.",
"*XW   0 q.y.u.9.X 2 ..rXX.. . [ rXO.3   R.&X@X@X@X@X@X@X@X@X@X@X@X@X@X@X@X@X@X@X@X@X$X@X@X@X$X{.%   pXzX4.  Y 6X@X@X%X}.e   &.<X",
"Y.: X 0.p.q.p.7.  d O.qX9X@ @ O.qXrXh   F.4X@X@X@X@X@X@X@X@X@X@X$X@X@X@X@X@X@X@X@X@X@X@X@X@X5XG.  G xXV.%   F.&X@X@XOX5X].  u Y.",
"z.. v u.t.t.y.q.& . } 8X/     l O.{   8 {.@X@X@X@X$X@X@X$X@X@X@X@X@X$X@X@X@X@X@X@X@X@X$X@X%XOXH   w M O   T 5X#X@X@X@X@X5XA   z.",
"j.  C g.t.t.t.f.@.    .   % %   X     >.4X@X@X$X@X@X@X@X@X@X@X@X@X@X@X@X@X@X@X@X@X@X@X@X$X{.q     X   O <.$X@X@X@X@X@X@X5XT   j.",
"z.  b f.q.t.t.t.p.;.0 7 b x.F.A 9 t l.4X@X@X@X@X@X@X@X@X@X@X@X@X@X@X$X@X@X@X@X@X@X@X@X@X5XY   f X.' . - OX$X@X@X@X@X@X+X5XA   z.",
"Q.8   9.g.t.t.t.t.p.u.y.f.u.'.4X@X&X4X@X@X@X@X@X@X@X@X@X@X@X@X@X@X@X@X@X@X@X@X$X@X@X@X@X$Xr   ..qXrXz   l.2X+X@X@X@X@X4X}.X 8 Y.",
"<X=.  0 0.t.t.t.t.t.e.y.e.e.`.@X@X@X@X@X@X@X@X@X@X@X5X&X&X6X$X@X@X%X@X@X@X@X@X@X@X@X@X$X4Xr   [ qXqXg   n.6X@X@X@X@X@XOXt   W -X",
"Q.|.r   V g.e.t.t.t.t.s.i.d.@X@X@X@X@X@X@X@X@X@X$X$X<.n a U {.2X@X@X@X+X@X@X@X@X@X@X4X].n     , ` g     = >.4X@X$X+X6XE   r !.!.",
"~.m.X & 9.y.t.t.t.t.t.t.i.`.%X@X@X@X@X@X@X@X@X@X4XY         q  X$X@X@X2X5X5X5X@X@X@X+Xq   4 d       < g +   1.5X+X@X&XF.% % M.~.",
"<XQ   #.h.e.t.t.t.t.t.t.t._.@X@X@X$X@X@X@X@X@X&XF.  @ [ o.h   T 3X@X$Xc.T L <.@X+X5Xl.  d O.tX!   3 ..tX{   e %X@X@X@X6X%.  E <X",
"*XZ   9.u.t.t.t.t.t.t.y.t._.@X@X@X@X@X@X@X@X@X6Xj.  l 8XrXo.  c 5X Xm         v.2X5X%.. ` 8XrXX.  f 8XqXyX# : +X$X@X@X$X}.8 *.-X",
"-Xc   9.u.t.t.t.y.t.t.t.t.).%X@X@X@X@X@X@X@X@X6X2.  f O.rX{   n 2Xm   a B.G   1.5X4Xc.  4 ..yXj   @ [ qX]   n &X@X@X@X@X%X#X~.Q.",
"<XY   $.p.e.t.t.t.t.t.t.t.y.@X@X@X@X@X@X@X$X$XI .     d k +   . 9   w fXlXF   v.4X@X$Xm   + @   %   X ,   X c.4X@X@XOX$X&X$XQ.!.",
"*Xz.  6 q.p.t.t.t.t.t.t.t.t.d.@X$X@X@X@X+X5XW   , j 4     + h s     B.zX4.  9 @X$X@X@X+XY 8 - A P.<.9 % p c.4X@X@X+X5X#XA 6.*XQ.",
"!.*XP   q ;.y.t.t.t.t.t.t.s.t.d._.@X@X@X%X+X8 . +.rXo.<   ` 8XqXg   H G   X l.4X+X@X+X$X5XOXOX&X4X4X@XOX$X4X@X@X@X$Xv.e   P -XQ.",
"!.!.!.S     $.a.t.t.t.t.t.t.t.i.).@X@X@X$X X% , O.qXrXi   +.qXrXl   .     e &X$X@X@X@X@X+X@X$X@X@X+X@X$X@X@X@X+X5X1.    S Q.!.Q.",
"!.!.!.*Xc   ;.u.t.t.t.t.t.t.t.t._.@X@X@X@X$Xt   ` O.' .   h O.X.>   ) V.w   U 6X@X@X@X@X@X@X@X@X@X@X@X@X@X@X@X@X5Xl.  c ;X~.Q.!.",
"!.!.!.*X6 & s.y.t.t.t.t.y.t.t.t._.%X@X@X@X3Xc.X   .   o =   X   .   3.zXpXO o }.$X@X@X$X@X$X@X@X@X@X@X@X@X@X@X@X@X+X% 8 Q.!.!.!.",
"Y.*XL.W X 6 e.t.t.t.y.t.t.t.t.t._.%X@X@X@X@X4Xb.m 8 n c.}.R 9 r T o   B.lX(   l.5X+X@X@X@X@X@X@X@X@X@X@X@X@X@X@X@X@X- % Q.!.Q.!.",
";Xj.=     X 9.p.e.t.t.t.t.t.t.t.(.$X@X@X@X$X@X&X5X@X$X3X$X5X@X$X6X>.    p w   1.5X@X@X@X@X@X@X@X@X@X$X@X@X$X@X+X&XG.  t *XQ.!.!.",
"m.o   3.(   v g.u.t.t.t.t.t.t.y.e._.$X@X@X@X@X#X@X$X@X@X@X@X@X@X@X4X1.9     7 ].4X@X@X@X@X@X@X@X@X@X@X@X@X@X@X$X6XS   &.<XQ.!.Q.",
"A   3.zX0X    N 0.t.u.t.y.t.t.t.t.s._.%X@X$X@X@X@X@X@X@X@X@X@X@X@X@X5X@XG.b.{.&X@X@X$X@X@X@X@X@X@X@X@X@X$X&X4X}.L   e Y.!.Q.!.Q.",
"% - jXfXp   ; . X 6 #.f.e.t.t.t.e.y.e.(.`.#X$X@X@X@X@X@X@X@X@X@X@X@X@X%X4X4X$X@X@X@X@X@X@X@X@X@X@X@X@X@X&X2.q o   q m.~.Q.Q.!.!.",
"X O G =   F C.) a   v f.e.t.t.t.y.t.y.e.r._.$X@X@X@X@X@X@X@X@X@X@X@X@X@X@X@X@X@X@X@X@X@X@X@X@X@X@X@X@X@X4Xm   u P Y.~.Q.!.!.!.!.",
"Z   . = P kXsXkX0X  N f.e.e.e.s.e.e.e.e.e.`.@X@X+X@X@X+X+X@X@X+X@X+X+X@X+X@X+X+X@X+X+X@X@X+X@X+X@X@X@X+X4XS   z./.T.Q.!.Y.E.Q.!.",
"Y.m.N.*X1X>XoX>X[.+ 6 u.g.f.g.f.f.f.a.a.p.'.6X5X5X6X6X6X6X6X6X6X5X6X6X6X6X6X6X5X6X5X6X6X6X6X6X5X5X6X5X6X$X: O J.U.x.~.E.J.;X~.Q.",
"*XY.j.6.6.*.j.6.6.w   B $.#.#.#.#.#.#.$.#.#.<.<.<.<.<.<.<.<.<.<.<.<.<.<.<.<.<.<.<.<.<.<.<.<.<.<.<.<.<.1.I   u *.*.Q =.*.*.j.L.~.",
"z.; X X         X                                                                                                           - l.",
"u   z J J J J J J J ~ ^ ~ ~ ~ ~ ~ ~ ~ ~ ~ ~ ^ ^ ^ ^ ~ ~ ^ ~ ^ ^ ^ ^ ~ ~ ~ ^ ~ ^ ~ ~ ~ ^ ^ ~ ^ ^ ^ ^ ~ ~ ~ ~ ~ ~ ~ ~ ~ ~ ^ K . q ",
"X ; o.A.A.A.A.A.A.S.eXuXuXuXeXeXeXeXeXeXeXeXeXeXeXeXeXeXeXeXeXeXeXeXeXeXeXeXeXeXeXeXeXeXeXeXeXeXeXeXeXeXeXeXeXeXeXeXeXeXuXS.# X ",
"Z   # 1 1 > , , < 3 | S.D.i , 3 3 3 3 3 3 3 3 3 3 3 3 3 3 3 3 3 3 3 3 3 3 3 3 3 3 3 3 3 3 3 3 3 3 3 3 3 3 3 3 3 3 3 3 3 > @   A ",
"U.S = = & & & & % 7 z.:XN.q % & & $ $ $ $ $ $ & $ $ $ * = - $ * * & $ & % & $ $ & $ = & & * $ - $ * = $ $ & $ $ $ $ $ $ - % D U.",
"~.*XY.Y.Y.Y.Q.Y.U.!.~.Q.~.!.Y.Y.U.T.U.Y.Y.Y.Y.Y.Y.U.U.Y.Y.Y.Y.Y.U.U.U.Y.Y.U.Y.U.Y.Y.Y.U.Y.U.U.Y.Y.U.Y.U.Y.Y.Y.U.Y.Y.U.Y.Y.Q..X!.",
"!.Q.!.!.!.!.!.!.!.!.Q.!.Q.!.!.!.!.~.!.~.!.!.!.!.!.!.!.~.!.!.~.!.!.~.!.!.!.!.!.~.!.!.!.!.!.~.!.!.!.!.!.~.!.!.~.!.!.~.~.!.!.~.Q.Q.",
"!.!.!.!.!.!.!.Q.Q.!.!.!.!.Q.!.!.Q.!.Q.Q.Q.!.!.!.!.Q.Q.Q.Q.Q.Q.Q.Q.Q.!.!.!.Q.Q.Q.!.Q.!.Q.!.Q.!.!.!.Q.Q.Q.Q.Q.Q.Q.Q.Q.Q.Q.Q.Q.Q.Q."
};
