/* XPM */
static char *_d167182204b4d93c56a1d63719aa859ZkpQqUamGIHJUxQC[] = {
/* columns rows colors chars-per-pixel */
"64 64 214 2 ",
"   c #000000",
".  c #0A0C03",
"X  c #08090C",
"o  c #0F1104",
"O  c #161A0A",
"+  c #1A1E0D",
"@  c #131507",
"#  c #0C0D11",
"$  c #0E1112",
"%  c #0F151C",
"&  c #1A1D1C",
"*  c #141719",
"=  c #1D220D",
"-  c #1E2313",
";  c #22270F",
":  c #222712",
">  c #262C13",
",  c #2C3215",
"<  c #2F3717",
"1  c #333B1A",
"2  c #171D22",
"3  c #1A2225",
"4  c #1A242A",
"5  c #21252A",
"6  c #252B2D",
"7  c #222626",
"8  c #262E32",
"9  c #2A363A",
"0  c #32383C",
"q  c #3A421D",
"w  c #3F4921",
"e  c #3F4838",
"r  c #434D22",
"t  c #4A5526",
"y  c #4B5627",
"u  c #515D2A",
"i  c #57652D",
"p  c #5F6C31",
"a  c #616F32",
"s  c #657433",
"d  c #6B7B38",
"f  c #2C3C44",
"g  c #383F43",
"h  c #394144",
"j  c #37454A",
"k  c #384C54",
"l  c #434B4D",
"z  c #434D51",
"x  c #475558",
"c  c #4B5553",
"v  c #455C66",
"b  c #525D62",
"n  c #5D6A6C",
"m  c #5B676A",
"M  c #4B6671",
"N  c #5A6C75",
"B  c #54727D",
"V  c #47626F",
"C  c #626E73",
"Z  c #6B797F",
"A  c #667379",
"S  c #6F8039",
"D  c #75883B",
"F  c #7E923D",
"G  c #7B8E40",
"H  c #7E9142",
"J  c #91AB3E",
"K  c #869A44",
"L  c #87925D",
"P  c #8EA347",
"I  c #90A649",
"U  c #95AC4B",
"Y  c #90A546",
"T  c #97B142",
"R  c #9EB946",
"E  c #9CB54B",
"W  c #9EB94B",
"Q  c #9AB447",
"!  c #9EB751",
"~  c #A1BC46",
"^  c #A3BD4C",
"/  c #A4BD52",
"(  c #A4B955",
")  c #858A60",
"_  c #ADBD6B",
"`  c #A6C14D",
"'  c #A9C44E",
"]  c #ACCB4F",
"[  c #BBD74B",
"{  c #A6C151",
"}  c #AAC553",
"|  c #AEC954",
" . c #AFCA59",
".. c #ACC459",
"X. c #B1CC55",
"o. c #B3CD5A",
"O. c #B4C85A",
"+. c #B5D455",
"@. c #BAD455",
"#. c #B6D25B",
"$. c #B8D45B",
"%. c #BDDA5D",
"&. c #BBDA54",
"*. c #B1CB4C",
"=. c #ADC565",
"-. c #B4CC63",
";. c #B6CB6B",
":. c #B7C966",
">. c #B7D261",
",. c #BAD462",
"<. c #BBD764",
"1. c #BACC73",
"2. c #B9C778",
"3. c #C1DD5E",
"4. c #C4C757",
"5. c #C3E15E",
"6. c #C2DE61",
"7. c #C1DB6E",
"8. c #C3C97A",
"9. c #C5D67D",
"0. c #D2CF6B",
"q. c #C4E261",
"w. c #CAE864",
"e. c #567685",
"r. c #5D7F92",
"t. c #6C7A81",
"y. c #5E8192",
"u. c #5F818B",
"i. c #76868E",
"p. c #648897",
"a. c #7D8D96",
"s. c #6A909D",
"d. c #6E95A7",
"f. c #769CAB",
"g. c #739DB2",
"h. c #678CA0",
"j. c #7AA5BA",
"k. c #77A3B5",
"l. c #7EACC3",
"z. c #83949A",
"x. c #B4BB84",
"c. c #8A9CA4",
"v. c #87A1AB",
"b. c #94A7AD",
"n. c #97ABB4",
"m. c #9CB1BB",
"M. c #9CB0B4",
"N. c #89A9B8",
"B. c #A2B8BE",
"V. c #B8C882",
"C. c #B6D095",
"Z. c #C2CC84",
"A. c #CBD494",
"S. c #CCD79A",
"D. c #C9D291",
"F. c #D5DAA7",
"G. c #D5D9B6",
"H. c #CFD4B2",
"J. c #D8E0B9",
"K. c #E3EABD",
"L. c #85B4C9",
"P. c #99B3C1",
"I. c #93BDD1",
"U. c #87BAD5",
"Y. c #A7BDC7",
"T. c #91C6DE",
"R. c #8EC2D7",
"E. c #ABC2CB",
"W. c #BAD2DC",
"Q. c #B1C8D3",
"!. c #92C8E3",
"~. c #9EDAFB",
"^. c #9DD7F5",
"/. c #99D1EB",
"(. c #BED7E3",
"). c #A2DDFC",
"_. c #ABDFFB",
"`. c #A3DBF5",
"'. c #B6DEF5",
"]. c #A6E3FD",
"[. c #ABE2FD",
"{. c #ACEBFF",
"}. c #B5E2FB",
"|. c #BCE4FB",
" X c #B4ECFE",
".X c #BBEDFF",
"XX c #BBE2F7",
"oX c #B2F2FF",
"OX c #BDF8FF",
"+X c #DFDEC1",
"@X c #D7E6C9",
"#X c #E7EBCA",
"$X c #EAF1C4",
"%X c #C2DCE7",
"&X c #C8E2EB",
"*X c #CBE5F6",
"=X c #CEE9F5",
"-X c #C3E6FB",
";X c #CCE7F8",
":X c #CEE9FA",
">X c #C4E8FB",
",X c #D2EBF5",
"<X c #D1EBFB",
"1X c #D0E6F1",
"2X c #C5F2FF",
"3X c #CAF5FF",
"4X c #D6F3FF",
"5X c #D9F5FF",
"6X c #DDFAFF",
"7X c #DCFAFF",
"8X c #D6F3F1",
"9X c #D0E5EC",
"0X c #E1FDFE",
"qX c #EBFFFF",
/* pixels */
"$.$.$.$.$.#.$.$.$.$.$.$.$.#.#.q.3.^ F S F ( 7.3.@.$.$.@.$.$.$.$.$.$.$.+.%.+.+.+.+.<.q...K D D U @.q.$.$.$.$.$.$.+.+.>.+.>.$.$.$.",
"$.$.$.$.$.$.$.$.$.$.$.$.$.$.3.K 1           < K 3.$.$.$.$.$.$.$.$.#.$.$.>.D.;.V.<.^ y .         + s o.6.#.$.$.$.#.&.$.o.*.&.$.$.",
"$.$.$.$.@.#.$.$.$.$.$.#.$.%.u     6 C t.n 8     y <.>.$.$.#.$.$.$.$.#.$.-.J.1.#XL .   * b t.Z j X   : / %.$.$.$.>.%.2.H.#X=.$.$.",
"$.$.$.$.$.$.$.@.$.$.$.#.3.y   & c.4X5X6X6X5Xn.7   r 6.$.#.,.$.$.$.$.$.+.o.A.Z.)   X Z *X6X6X6X5X(.m   + } %.$.$.+.1.+X-.S.-.+.$.",
"$.+.$.$.$.$.$.o.X.$.#.q.F   7 W.5X*X*X*X*X*X6X%X6   D %.{ o.,.$.$.$.$.$.o.S.x.&   c.0X:X;X*X*X*X:X0XC   q 3.$.$.$.:.8.F.=.$.$.$.",
"$.+.@.$.$.' 6.' ~ >.<.{ =   Y.6X*X:X:X:X:X:X*X5XY.  ; ^ ` ' $.$.$.$.$.$.#.%.a   C 0X*X:X:X:X:X:X*X:X5X0   I <.#.$.$.1.F.1.>.$.$.",
"$.$.,.$.4.^ ..O.E Q o.K   z 6X*X:X:X:X:X:X:X:X*X5Xc   K $.o.#.$.$.$.$.$.$.#.+ X (.<X:X:X:X:X:X:X:X*X5Xb.  u q.#.@.@.$.-.$.$.$.$.",
"@.,.$.$.@.' ^ ^ $.} %.d   z.6X*X:X:X:X:X:X:X:X*X6Xb.  y q.#.$.$.$.$.$.#.6.P   l 5X;X:X:X:X:X:X:X:X:X<X%XX ; o.$.$.@.[ @.$.+.$.$.",
"@.[ @.,.=.@.&.$.$.@.w.a   M.5X*X:X:X:X:X:X:X:X:X<X%X# @ o.$.@.$.$.$.$.#.q.i   c.5X*X:X:X:X:X:X:X:X:X*X4X4 @ R #.,.,.@.,.$.$.$.$.",
",.@.@.2.+X=.@.>.$.O.3.p   b.5X*X:X:X:X:X:X:X:X:X:X5Xz   I 6.$.$.+.$.$.#.$.;   (.<X:X:X:X:X:X:X:X:X=X:X=X* = $.$.$.@.$.;.$.$.$.$.",
",.X.1.8.0.Z.1.$.3.O.6.K   A 0X*X:X:X:X:X:X:X:X:X*X6Xz.  s q.O.$.$.$.#.%.!   0 4X:X:X:X:X:X:X:X:X:X:X4XQ.  q %.$.@.@.>.>.$.@.$.$.",
"4.o.A.F.4.A.1.@.$.$.3./   7 =X:X:X:X:X:X:X:X:X:X:X4XQ.  1 6.$.$.$.@.#.q.D   Z 6X*X:X:X:X:X:X:X:X:X*X6XZ   S 5.#.$.$.$.@.$.@.$.$.",
"%.[ +.V.+X=.>.$.$.@.#.6.r   m.5X*X:X:X:X:X:X:X,X:X>X'.2 . X.@.$.O.@.O.6.u   N.2X*X:X:X:X:X:X:X:X:X:X,X5   } %.#.$.$.$.$.$.$.$.$.",
"$.@.>.o.O.,.@.@.$.$.#.6.K   c 5X:X:X:X:X:X:X:X|._.^.].j   ( w.6.q.q.q.w.,   T.].).}.:X,X:X:X:X:X*X5Xb.  r 3.$.$.$.$.$.$.$.$.$.$.",
"@.$.@.@.<.<.@.$.,.$.$.$.$.;   Q.<X:X:X:X,X|.].~.~.].OXB   i s u t t p d . 4 {.{.].~.).|.:X:X:X:X:X4XY.> U %.#.$.$.$.$.$.$.$.#.$.",
"$.>.$.@.4.$.$.$.$.$.@.@.5.S   C 6X*X<X<X}.~.~.{.{.U.v $                     f h./.{.).~._.>X<X:X:X:X@X3.%.$.$.>.#.$.$.$.#.#.@.$.",
"$.$.$.$.$.$.$.$.$.$.$.#.$. .O X W.<X>X_.^.].{.j.f     $ k Z c.M.B.B.b.i.b 4     X M `.{.~.~.|.=X:X&X1.$.$.$.<.@.@.$.$.$.$.$.$.$.",
"$.$.$.$.$.$.+.$.$.$.$.$.#.q.d   m 4X`.^.{.T.j     g b.%X4X0X5X5X5X5X5X6X5X*XY.n $   2 k.{.).~.2XY.X S w.O.,.o.$.$.$.$.$.$.$.$.$.",
"$.$.$.$.$.$.$.$.$.$.$.$.$.$.#.=   L.{.{.g.$   9 Y.4X5X<X;X*X*X;X*X*X:X*X*X,X4X6X(.n     M ].).].9   H q.[ o.J.2.@.$.$.$.$.$.$.$.",
"$.$.$.$.$.$.$.$.%.$.>.>.>.R $.H   9 {.p.    r.2X5X:X*X:X:X:X:X:X:X,X:X:X:X:X:X*X4X6XY.5   j {.s.  w q.>.-.2.F.2.-.@.$.#.$.$.$.$.",
"$.$.$.$.$.$.,.%.O.$.$.%.$.*.} ' <   h X $ j.oX:X:X:X:X:X:X:X:X:X:X:X:X:X:X:X:X:X:X*X5X&Xj   h % . ( %.@.V.$X_ F.;.$.$.$.#.$.$.#.",
"$.$.#.$.$.+.-...Z.A.O.4.,.| O.o.Q o   # L.{.'.,X:X:X:X:X:X:X:X:X:X:X:X:X:X:X:X:X:X:X*X<X,Xj     S q.#.@.-.1.V.A.-.%.>.$.$.$.$.$.",
"$.$.$.$.$.X.G.F.8.F.O.3.$.O...6.{ @   k.{.~.-X:X:X:X:X:X:X:X:X:X:X:X:X:X:X:X:X:X:X:X:X*X<X1X8   F 6.#.@.@.$.,.X.$.>.$.>.$.$.$.$.",
"$.$.$.$.$.o.D.A.A._ @.$.$.$.$.6.t   B oX~.).:X:X:X:X:X:X:X:X:X:X:X:X:X:X:X:X:X:X:X:X:X:X*X5XE.  o { %.#.$.$.@.@.$.$.$.>.#.$.$.#.",
"$.$.$.$.$.#.1.x.H.8.[ $.$.>.6.U   4 `.).~._.:X:X:X:X:X:X:X:X:X:X:X:X:X:X:X:X:X:X:X:X:X:X:X*X0XZ   i q.#.#.#.>.#.#.$.#.$.$.$.$.$.",
"$.$.$.$.>.;.F.A._ $.$.$.@.#.6.t   d.{.).).[.<X:X:X:X:X:X:X:X:X:X:X:X:X:X:X:X:X:X:X:X:X:X:X:X<X%X* . { %.%.' #.>.>.#.~ %.>.$.#.$.",
"$.$.@.$.;.J.4.0.G. .&.#.#.%.... 3 `.).).~.}.:X:X:X:X:X:X:X:X:X:X:X:X:X:X:X:X:X:X:X:X:X:X:X:X*X5XN   S 5.X.R #.$.$.~ ` >.>.#.<.#.",
"$.$.$.$.<. .A.S.=.,.$.@.o.q.G   M {.).).~.}.<X:X:X:X:X:X:X:X:X:X:X:X:X:X:X:X:X:X:X:X:X:X:X:X:X4XE.  q 6.' ' #.$.X.` o.>.' #.#.%.",
"3.$.$.$.$.#.V.V.$.$.$.$.o.6.y   j.{.).).~.}.,X:X:X:X:X:X:X:X:X:X:X:X:X:X:X:X:X:X:X:X:X:X:X:X:X:X=X& o | ] ..<.#.'  .#. .R >.#.#.",
"4.O.@.$.$.$.-.#.$.$.$.$.@.<.,   T.].).).~.}.<X:X:X:X:X:X:X:X:X:X:X:X:X:X:X:X:X:X:X:X:X:X:X:X:X:X5Xk   Y #.^ ..|  . . .^ o.<.>.#.",
"%.$.$.$.$.4.%.@.@.,.$.$.$.o.O % ^.].~.).).[.<X:X:X:X:X:X:X:X:X:X:X:X:X:X:X:X:X:X:X:X:X:X:X:X:X*X5Xn   F <.Q T { >.T }  .{ ` $.$.",
"$.$.$.$.$.$.#.#.,.$.$.$.$.X.. 3 ].).).).).).:X:X:X:X:X:X<X:X:X:X:X:X:X:X:X:X:X:X:X:X:X:X:X:X:X*X6XZ   D 6. .| | >.^ o.{ Q R ] <.",
"$.$.$.$.$.#.R >.,.} } <.$.| . 2 ].).).).~.].|.<X:X:X:X:X:X:X:X:X:X:X:X:X:X:X:X:X:X:X:X:X:X:X:X*X6Xt.  G q.$.$.$.$.$.$.#.<.` ` <.",
"$.$.$.$.$.,.R #.<.` `  .,.-.@ 2 ^.].).).).~.}.:X:X:X:X:X:X:X:X:X:X:X:X:X:X:X:X:X:X:X:X:X:X:X:X:X6Xm   K 3.+.$.$.+.$.$.+.&.$.$.$.",
"$.$.$.$.' } { { >.} { E o.#.>   T.].).).).).).:X:X:X:X:X:X:X:X:X:X:X:X:X:X:X:X:X:X:X:X:X:X:X:X*X4Xh   E %.$.$.+.$.$.$.$.$.$.$.$.",
"$.$.#.%.X.` ^ E J } ^ E T } t   g.{.).).).).).}.<X:X:X:X:X:X:X:X:X:X:X:X:X:X:X:X:X:X:X:X,X:X:X<X&X# O #.$.$.$.$.$.$.$.$.$.$.$.+.",
"$.$.$.$.,.| ` >.W { | o.O.3.K   k {.~.).).).).).:X:X:X:X:X:X:X:X:X:X:X:X:X:X:X:X:X:X:X:X:X:X*X6Xz.  y q.#.$.$.$.$.$.#.$.$.$.$.$.",
"$.$.#.$.$.o.#.$.%.#.$.$.$.6.O.@ X R.].).).).).~._.<X:X:X:X:X:X:X:X:X:X:X:X:X:X:X:X:X:X:X:X:X:X=X5   U %.$.$.$.$.$.$.$.$.$.$.$.$.",
"$.$.+.$.$.$.$.@.@.@.$.$.$.O.q.d   k {.).).).).).~.|.<X:X:X:X:X:X:X:X:X:X:X:X:X:X:X:X:X:X*X*X0Xm   t 6.#.$.$.$.$.#.%.$.$.$.$.#.$.",
"$.$.$.$.#.@.$.$.$.$.$.$.$.$.3.$.1   B oX).).).).).).|.<X:X:X:X:X:X:X<X:X:X:X:X:X:X:X:X*X<X6Xt.  + } %.#.$.$.$.$.] $.$.$.$.+.$.$.",
"$.$.$.$.$.$.$.$.$.$.$.$.$.3.O.3./ +   M ].{.~.~.~.~.).[.>X,X:X:X:X:X:X:X,X:X:X:X*X*X:X6X*Xx   @ U 5.$.$.$.#.$. .' +.$.$.$.%.$.$.",
"$.+.>.$.>.$.#.%.$.$.$.$.$.:.2.;.6.( &   8 l.{.{.].~.~.~.~.}.*X:X:X:X;X*X*X*X*X<X5X6X*Xa.2   : E 6.+.$.$.$.#.<.{ W  .<.+.+.+.$.$.",
"$.$.$.#.] X.$.#.$.@.$.@.4.V.F.A.O.3.=.e     9 s.!.{.{.oX{.].{.}.:X4X5X5X5X6X5X*XP.C &     u o.%.+.#.#.$.$.#.<.>. .#.>.$.$.+.$.$.",
"$.$.>.X.^ | %.$.$.$.,.O.G.#X4.C.;.@.&.7.K 1     X 8 v y.g.l.L.U.U.U.P.b.a.C g #       < E 5.%.#.#.#.#.$.#.%.$.#.>.>.$.$.$.$.$.$.",
"$.$.%.} ~ | $.$.$.$.$.[ 1.Z.8.K.=.&.+.o.w./   3 f                             2 x c.6 , w.#.$.$.$.$.$.#.$.$.$.$.%.#.$.>.$.$.$.$.",
"$.$.$.$.#.#.%.#.$.$.$.@.$.>.;.;.,.$.$.#.<.y   u.oX!.l.h.e.V k z l l b A z.b.Q.:X5XqXn   U 3.#.$.$.$.#.%.$.$.$.+.#.$.$.$.>.$.$.$.",
"$.$.$.$.$.$.#.+.$.,.$.$.,.$.+.$.$.$.$.%.` . # !.).].2X3X2XOX2X4X8X0XqXqX0X5X<X,X*X4XM.  i 5.@.$.$.$.+.#.#.$.#.$.#.$.$.$.$.$.$.#.",
"$.#.$.$.$.$.$.&.$.>.$.$.$.$.$.$.$.$.$.q.s   k {.~.|.,X1X%X,X6X5X0XY.A i.%X<X:X:X*X<X%XX = $.$.$.| o.+.$.%.#.$.#.%.#.$.$.$.+.$.$.",
"$.#.$.$.$.@.$.$.$.@.$.$.$.o.$.$.$.#.#.%.>   g.{.~.*X:X*X,XY.z x i.$     2 E.<X*X:X*X4Xh   U <.o.W { >.#.$.$.$.$.$.+.$.$.$.$.#.+.",
"$.$.$.$.$.$.3.$.O.@.$.$.$.$.@.$.$.#.%.I   & ^.].}.,X:X<X%X*         A n   0 ,X:X:X*X6Xt.  d q.o. .| #.$.$.$.$.$.$.$.$.$.$.$.$.$.",
"$.$.#.$.$.,.o.-.6.$.$.$.$.$.$.$.$.#.5.i   x {.~.[._.[.5Xt.  l m.l 0 1X8X& # 9X:X:X*X5XB.  q 5.#.<.>.$.+.$.$.$.$.$.$.$.$.$.$.$.$.",
"$.$.$.$.$.O.S.F.O.,.$.$.$.#.$.$.$.5.S .   y.{.~.).[.|.1X$ 8 (.6X4X:X5Xn.  X z.5X:X*X5Xi.  = @.3.$.$.>.] #.$.$.,.] | $.$.+.$.$.$.",
"$.$.$.$.$.8.8.2.1.+.+.$.$.$.$.#.q.K     p.].).).-X*X5Xi.  v 3X*X*X:X<XW.8 X   a.5X*X<XM.#   q O.%.o.,.^ } $.#.#.R #.>.#.$.$.$.#.",
"@.@.$.$.| K.S.F.H.o.%.$.#.$.$.$.o.-   e. X).}.:X*X5Xn.  X k.}.:X:X:X:X:X5Xm.  9 4X:X*X6XE.&   r 6.' ~ O.^ ` o.#.W #.>.#.#.$.$.$.",
"$.$.$.<.@.;.2.2.-.$.>.$.$.$.#.q.G   6 ].~.|.,X:X:X6Xm   k.oX_.,X:X:X:X*X5Xn.  g 4X:X:X*X0XE.X   I 6.^ ' ^ W ` } ` T #. .~ #.$.$.",
"$.$.$.4.O.+.#.#.[ #.$.$.$.#.#.q.y   B {._.,X:X:X*X4Xx   d.{.~.[.>X*X*X4Xc.    n.4X*X:X:X*X5X0   a q.O.{ W ( T ~ o.J R ]  .%.$.#.",
"$.$.$.$.$.$.] ` ,.>.$.| $.$.$.<.1   d.{.|.:X,X*X=X4Xj.    y.{.^.).{.|.qXZ   A 0X*X:X:X:X*X4Xl   u q.#.| #.+. .] $.#.#.| o.+.$.$.",
"$.$.$.#.$.<.$.R <.#. .R >.>.$.%.<   g.{.-X:X*X:X:X*XoXy.  9 {.{.{.g.p.f.4   n.5X*X:X:X:X:X*X3   s q.#.%.#.$.$.<.$.+.+.#.$.$.$.$.",
"$.$.$.$.$.{ -.! / / ..E } #.` <.q   s.{.'.=X*X*X:X=XXX/.%   f V f         k :X*X*X:X:X*X6Xc.    P 3.#.$.#.$.#.$.$.$.$.$.$.$.$.$.",
"$.$.$.#.$.{ T W E E / Q T R W w.i   j {..X5X5X5X4X.X[.oXL.3       4 B e.j.OX5X5X5X5X:X,X&X6   , $.$.#.$.$.$.$.$.$.$.$.$.#.$.$.#.",
"$.+.$.$.+.#.}  .>.o.+.+.}  ./ <.W o   9 y.v.n.m.N.j.j.k.l.k.B V B k.I.I.L.j.j.N.m.Y.(.5XP.  . U 6.#.$.$.$.$.$.+.$.$.$.$.$.$.#.%.",
"$.#.$.$.$.$.+.%.$.$.$.+.<.$.>.$.%.Y +                                               X c C.F E 3.@.$.$.$.$.$.$.$.$.$.$.$.$.$.$.$.",
"$.$.$.+.#.$.$.$.$.$.$.+.$.$.$.$.#.%.#.S t 1 , > ; ; : : - = = = O O = = ; , 1 q i s K ` @.5.<.#.$.#.$.$.$.$.$.+.$.$.#.$.$.$.$.$.",
"$.$.$.$.$.$.$.$.$.$.$.$.$.$.$.$.$.#.%.q.q.<.$.$.#.o.#.#.#.o.o.o. .} | o.#.%.<.q.5.5.5.<.$.#.#.$.$.@.$.$.$.$.$.$.$.$.#.+.$.$.$.$."
};
