/* XPM */
static char *_bddb1a0af1b4347a98de4c8c6fe3d04iCRAKMHjfp3sC0ZS[] = {
/* columns rows colors chars-per-pixel */
"64 64 227 2 ",
"   c #010000",
".  c #0B0C0B",
"X  c #080807",
"o  c #1B0300",
"O  c #130A06",
"+  c #1D0D04",
"@  c #150706",
"#  c #1A1E0D",
"$  c #151808",
"%  c #0C0D11",
"&  c #0E1112",
"*  c #15191B",
"=  c #0F1002",
"-  c #220E04",
";  c #251105",
":  c #271409",
">  c #371A0B",
",  c #2C1B13",
"<  c #1D220D",
"1  c #1E2314",
"2  c #222712",
"3  c #262B14",
"4  c #392614",
"5  c #2C3217",
"6  c #333B1A",
"7  c #27250F",
"8  c #1A2124",
"9  c #1B2529",
"0  c #252B2D",
"q  c #212527",
"w  c #252E32",
"e  c #2B373B",
"r  c #32383C",
"t  c #131920",
"y  c #531D09",
"u  c #461507",
"i  c #4B230D",
"p  c #55240D",
"a  c #59270E",
"s  c #5B290F",
"d  c #5B2B12",
"f  c #5F2E1D",
"g  c #43391D",
"h  c #4B2917",
"j  c #603519",
"k  c #663E23",
"l  c #47392A",
"z  c #3B431D",
"x  c #3E4820",
"c  c #464B22",
"v  c #4B5727",
"b  c #555B2A",
"n  c #515E33",
"m  c #734E29",
"M  c #59662D",
"N  c #656A31",
"B  c #677636",
"V  c #707233",
"C  c #64451C",
"Z  c #2C3C44",
"A  c #383F43",
"S  c #384349",
"D  c #3B4D54",
"F  c #3C535A",
"G  c #2F4049",
"H  c #42494C",
"J  c #434D51",
"K  c #495558",
"L  c #4D5756",
"P  c #455C66",
"I  c #525D61",
"U  c #47626F",
"Y  c #5C686C",
"T  c #4B6672",
"R  c #576D78",
"E  c #55737D",
"W  c #616E73",
"Q  c #67757B",
"!  c #894E2E",
"~  c #964E2D",
"^  c #964E31",
"/  c #965433",
"(  c #985633",
")  c #9B5834",
"_  c #965C39",
"`  c #925030",
"'  c #A15A36",
"]  c #996E3D",
"[  c #887B3B",
"{  c #9B6C43",
"}  c #967845",
"|  c #A36B56",
" . c #77883C",
".. c #7E923D",
"X. c #6F8039",
"o. c #7A8D40",
"O. c #87873C",
"+. c #91AC3E",
"@. c #879943",
"#. c #8F9051",
"$. c #A48E4E",
"%. c #91A549",
"&. c #96A949",
"*. c #9DB54B",
"=. c #9FB94B",
"-. c #9BB545",
";. c #96AA4E",
":. c #A3BC4C",
">. c #A1BC46",
",. c #A4BD52",
"<. c #A7B456",
"1. c #ABAD58",
"2. c #AEBB6C",
"3. c #858A60",
"4. c #A6C14D",
"5. c #AAC44E",
"6. c #BAD84D",
"7. c #AAC452",
"8. c #ADC953",
"9. c #AFC959",
"0. c #AAC257",
"q. c #B1CC55",
"w. c #B3CD5A",
"e. c #B2C75A",
"r. c #B5D355",
"t. c #BAD455",
"y. c #B6D25B",
"u. c #B8D45B",
"i. c #BCDA5D",
"p. c #BFDC57",
"a. c #B1CA49",
"s. c #B4CC63",
"d. c #B6C967",
"f. c #BAD462",
"g. c #BCDC61",
"h. c #B7D364",
"j. c #BBC977",
"k. c #B6CF6D",
"l. c #BEE062",
"z. c #C1DD5F",
"x. c #C8C458",
"c. c #C3E15D",
"v. c #C1DE61",
"b. c #C6D66A",
"n. c #C6D87A",
"m. c #D0CD77",
"M. c #C4E261",
"N. c #C9E865",
"B. c #567685",
"V. c #5D7F92",
"C. c #6B7A80",
"Z. c #5E8292",
"A. c #5F828B",
"S. c #76868E",
"D. c #648897",
"F. c #7C8D95",
"G. c #6A909D",
"H. c #6E94A7",
"J. c #769BAB",
"K. c #739DB2",
"L. c #678CA0",
"P. c #78A4B7",
"I. c #7EACC3",
"U. c #82939A",
"Y. c #B4B885",
"T. c #899CA4",
"R. c #94A7AD",
"E. c #97ABB4",
"W. c #9CB1BB",
"Q. c #9CB0B4",
"!. c #88A6B3",
"~. c #A2B8BE",
"^. c #B7C481",
"/. c #B6D094",
"(. c #C2CB89",
"). c #CCD69A",
"_. c #C7D390",
"`. c #D6DBA7",
"'. c #CFD2AF",
"]. c #D8E1B8",
"[. c #E2E9BC",
"{. c #85B4C9",
"}. c #8FB8CE",
"|. c #A7BDC6",
" X c #90C4DC",
".X c #ABC2CC",
"XX c #BAD2DC",
"oX c #B1C8D3",
"OX c #92C7E3",
"+X c #9EDAFB",
"@X c #9DD7F5",
"#X c #99D1EB",
"$X c #BED7E3",
"%X c #A2DDFC",
"&X c #ABDFFB",
"*X c #A4DBF5",
"=X c #B6DEF5",
"-X c #A6E3FE",
";X c #ABE2FD",
":X c #ACEBFF",
">X c #B5E2FB",
",X c #BBEDFF",
"<X c #B9E7FC",
"1X c #B2F2FF",
"2X c #BDF8FF",
"3X c #DFDEC2",
"4X c #D6E6C9",
"5X c #E7ECCA",
"6X c #C2DCE7",
"7X c #C8E2EB",
"8X c #CBE5F6",
"9X c #CEE9F5",
"0X c #C3E6FB",
"qX c #CCE7F8",
"wX c #CEE9FA",
"eX c #C4E8FB",
"rX c #D2EBF5",
"tX c #D1EBFB",
"yX c #D0E6F1",
"uX c #C6F3FF",
"iX c #D6F3FF",
"pX c #D9F6FF",
"aX c #DDFAFF",
"sX c #D4F0F1",
"dX c #D0E5EC",
"fX c #E1FEFF",
"gX c #EBFFFF",
/* pixels */
"u.u.u.u.y.u.u.y.u.u.u.u.u.u.y.c.z.:...X...:.f.M.u.u.t.u.u.u.u.u.y.u.u.u.u.r.r.r.t.l.M.0.@. . .;.y.c.u.u.u.u.u.u.y.r.h.r.h.u.u.u.",
"u.u.u.u.t.u.u.u.u.u.u.u.y.u.c.@.6           6 @.z.u.u.u.u.u.u.u.u.u.u.u.h._.k.^.k.:.v =         # B u.i.y.u.u.u.u.r.u.w.a.t.u.u.",
"u.u.u.u.u.u.u.u.u.u.u.y.i.i.v     0 W C.Y w     v u.f.u.u.y.u.u.u.u.u.u.s.`.k.5X3.=   * I C.Q S X   2 ,.i.y.u.u.h.i.k.'.4Xs.u.u.",
"u.u.u.u.u.u.u.u.y.u.u.y.z.v   * T.iXaXpXaXpXE.q   v v.w.y.i.h.u.u.y.u.u.w._._.3.  X Q 8XaXaXaXaX$XY   $ 7.i.u.u.r.j.3Xs.).h.u.u.",
"u.u.t.u.u.u.t.y.r.u.y.M...  q XXpX9X8X8X8XqXaX6X0    .i.4.w.u.u.u.u.u.u.s.).Y.*   T.fXtX8X9X8X8XwXfXW   z z.y.u.u.d.j.`.d.f.u.u.",
"u.r.t.t.z.,.b.a.>.u.h.0.<   |.aX8XwXwXwXqXqX8XpX|.  1 4.4.5.f.u.u.u.u.u.y.z.N   W fX9XqXwXwXqXtXqXqXpXr   %.l.y.u.u.j.`.j.y.u.u.",
"u.f.u.u.t.:.,.e.*.-.y.@.  J aX8XwXwXwXwXwXwXwXqXaXJ   ..u.9.u.u.u.t.u.u.u.y.< X $XtXqXwXwXwXwXwXwX8XpXR.  b N.y.t.t.u.w.y.u.u.u.",
"t.u.f.u.t.,.,.:.f.0.i.B   U.aX8XwXwXwXwXwXwXwXqXaXR.  b M.u.u.u.y.u.u.u.g.%.  J pX8XwXwXwXwXwXwXwXwXtX6XX 2 9.u.f.t.6.t.u.t.u.u.",
"t.6.i.d.d.w.z.i.t.y.N.N   Q.iX8XwXwXtXwXwXwXwXwXtX6X% $ y.u.y.u.u.u.y.y.M.M   T.pX8XwXwXwXwXwXwXwXwX9XiX9 $ -.y.d.u.t.f.u.u.u.u.",
"f.t.t.2.].e.y.u.t.w.c.B   R.aX8XwXwXqXwXwXwXwXwXqXpXJ   %.z.y.u.u.u.u.u.u.2   $XtXwXwXwXwXwXwXwXwXqXwX9X* < u.u.t.t.u.d.u.t.u.u.",
"d.t.b.m.m.(.j.u.u.y.v.O.  Q aX8XwXwXwXwXwXwXwXwXqXaXU.  N M.y.u.t.u.y.i.,.  r iXqXwXwXwXwXwXwXwXwXqXiXoX  z i.u.u.i.u.y.u.u.u.u.",
"6.w.).).x._.k.t.u.u.z.<.  q 9XwXwXwXwXwXwXwXwXwXqXiXoX  6 v.y.t.u.u.y.c. .  Q aXqXwXwXwXwXqXtXwXqX9XaXQ   X.M.y.u.u.u.u.u.u.u.u.",
"u.z.a.j.].2.u.t.u.u.y.l.c   W.aXqXqXwXwXwXqXwXtXqXeX=Xt = 9.h.y.y.y.w.v.v   !.uX8XwXtXqXwXwXwXwXwXwXtXq   7.i.y.y.u.u.y.u.u.u.u.",
"f.u.f.w.e.d.i.t.u.u.r.c.@.  K aX9XwXwXwXwXtX9X<X&X+X-XG   =.N.M.M.v.N.N.5    X-X%X>XwXtXwXwXwXqXqXpXR.  c M.u.u.u.u.u.u.u.u.u.u.",
"t.t.t.y.b.f.t.u.f.t.u.u.u.2   oXtXwXqXtXtX0X-X+X+X-X2XE   n B v v v M B O 9 :X:X-X+X%X>XwXtXqXtXqXiX|.3 &.i.y.u.u.u.u.u.u.u.u.u.",
"f.u.t.t.u.u.u.u.f.t.t.u.c.X.  Y aX8XtXqX>X+X+X:X:X}.U &                     Z L.#X:X%X+X;XeXtXqXqXwX4Xz.i.y.u.u.y.u.u.u.u.u.u.u.",
"u.u.u.y.u.u.y.u.u.u.u.w.u.e.# X XXtX0X&X@X;X:XP.G     & S C.T.Q.~.~.R.S.L 8     . T *X:X+X%X<XtXiX8Xj.u.u.u.f.u.r.u.y.u.u.u.u.u.",
"u.u.u.u.u.u.u.u.u.u.u.u.u.N.B   Y pX*X@X:X XG     A R.6XiXaXaXpXpXpXaXaXaXqX.XY %   8 K.:X%X@X,X~.X  .N.u.w.e.f.u.u.u.u.u.u.u.u.",
"u.u.u.u.u.u.u.y.u.u.y.v.h.1.{ +   {.-X:XJ.&   Z |.iXaXtXqX8X8XqX8X9XqX8XqXwXiXaX$XY     T ;X%X-XZ   h [ a.h.].j.t.u.u.u.u.u.u.u.",
"u.u.u.u.u.u.u.u.u.u.g.1.{ / ( k   e 1XD.    V.uXpXqXqXqXtXwXwXwXwXqXwXwXwXwXqXqXiXaX|.0   S :XG.  ; d u j } '.n.w.u.u.u.u.u.u.u.",
"u.u.u.u.u.u.h.u.f.w.$.^ ^ ( ^ ' ,   G X & P.1XwXqXqXwXwXwXwXwXwXwXwXwXwXwXwXwXwXwX8XpX7XS   S *   i s s p y C Y.k.y.u.u.u.u.u.u.",
"u.u.u.u.u.r.s.f.2.{ ^ / ) ( ( ) ! O   & {.:X=XtXwXwXwXwXwXwXwXwXwXwXwXwXwXwXwXwXwXwXqXtXtXS     > s a a s s y f ;.l.u.u.u.u.y.u.",
"u.u.u.u.u.7.`.'._ ^ ) ( ( ( ) ) ! O   K.:X@X0XwXwXwXwXwXwXwXwXwXwXwXwXwXwXwXwXwXwXwXwXqXtX7X0   > s a a a p s p p } l.u.u.u.u.u.",
"u.u.u.u.u.d.(.| ~ ) ( ( ( ( ) ' 4   E 1X+X-XqXwXwXtXwXwXwXwXwXwXwXwXwXwXwXwXwXwXwXwXwXqX9XiX.XX X p s a a s s s p y #.l.y.y.u.u.",
"u.u.u.u.i.h.] ~ ) ( / ( / / ) m   q *X%X%X&XwXwXwXwXwXwXwXwXwXwXwXwXwXwXwXwXwXwXwXwXwXqXwXqXaXQ   : s s p s a a d p d ,.i.y.u.u.",
"u.u.u.u.f.$./ ) ( ( ( ( ) / ' 4   H.:X%X%X;XwXwXwXwXwXwXwXwXwXwXwXwXwXwXwXwXwXwXwXwXwXtXwXqXtX6X*   p s s p s a a d y m h.u.u.u.",
"f.t.t.u.2.' ( ( / ( ( ( / ) `   8 *X%X%X+X>XtXwXwXwXwXwXwXwXwXwXwXwXwXwXwXwXwXtXwXwXwXwXwXwX9XaXW   > s p s s a a a a y ;.g.y.u.",
"f.t.t.g.1.~ ( ( ( ( ( ( / ' k   T :X%X%X+X=XtXwXwXwXwXwXwXwXwXwXwXwXwXwXwXwXwXqXwXwXwXwXwXwXqXiX|.  + s a a p s a a s p m g.y.h.",
"u.t.y.b.$.~ ( ( ( ( ( ( / ' 4   P.:X+X%X+X>XtXqXwXwXwXwXwXwXwXwXwXwXwXwXwXwXwXwXwXwXwXwXwXwXwXwXyX8   a s a a a a a s p C s.u.u.",
"u.u.y.t.{ ~ ( ( ( ( / / ( ' : X  X-X%X%X+X>XtXwXwXwXwXwXwXwXtXwXtXwXwXwXwXwXwXwXwXwXwXwXwXwXwXqXaXH   i s s a a a a a p f e.h.y.",
"u.u.u.z.] ' ( ( ( ( / ) ) m   * @X-X%X%X%X;XtXwXwXwXwXwXwXwXwXwXqXwXwXwXwXwXwXwXwXwXwXwXwXwXwXqXpXY   > s s a a a a a a a -.g.u.",
"u.u.u.f.} ^ ( ( / ( ' ! h +   q %X%X%X%X%X%XwXwXwXwXwXwXwXwXwXwXwXwXwXwXwXwXqXtXwXwXwXwXwXwXwX8XaXC.  + : i s a a s a p j &.5.h.",
"u.u.u.i.$.^ ) / / _ k ; + ;   9 %X%X%X%X%X%X0XtXwXwXwXwXwXwXwXwXwXwXwXwXwXwXwXwXwXwXwXwXwXwXwX8XaXQ   + ; - > s s s a y m 5.4.g.",
"u.u.u.i.2.( / ) / i o ; - :   * *X%X%X%X%X%X&XtXwXwXwXwXwXwXwXwXwXwXqXtXwXwXwXwXwXwXwXwXwXwXwX8XaXY   + ; ; - : p s a y [ p.u.u.",
"u.u.u.u.8.] ( ! : + ; ; ; :   X  X-X%X%X%X%X%XeXwXwXwXwXwXwXwXwXwXwXwXwXwXwXwXwXwXwXwXwXwXwXwXwXpXS   + ; - ; - - i a a 0.u.y.u.",
"u.u.u.u.q.*.` > - ; - ; ; - O   J.:X%X%X%X%X%X=XtXwXwXwXwXwXwXwXwXwXwXwXwXtXwXwXwXwXwXwXwXwXwXtX6X&   : ; ; ; ; - ; u #.l.y.u.u.",
"u.u.u.u.u.y.V o : ; ; ; - ; -   F :X+X-X%X%X%X%XeXtXwXwXwXwXwXwXwXwXwXwXwXwXwXwXwXwXwXwXwXwX8XpXU.  O ; - ; ; ; ; o c i.u.u.u.u.",
"u.u.u.u.u.y.u.N o ; ; - ; ; :   X }.-X+X%X%X%X+X&XtXwXwXwXwXwXwXwXwXwXwXwXwXwXwXwXwXwXwXwXqXwX9Xq   - ; - ; ; : o g e.i.u.u.u.u.",
"u.u.u.u.y.r.t.z.N o ; ; - ; ; +   D :X+X%X%X%X%X%X<XtXwXwXwXwXwXwXwXwXwXwXwXwXwXwXwXwXwXqX8XfXY   O ; ; ; ; ; o g 9.i.r.u.u.u.u.",
"u.u.u.u.u.u.u.i.z. .; o ; : - ; X   E 1X%X%X%X%X%X%X0XwXtXwXwXwXwXwXwXwXwXwXwXwXwXwXwX8XtXaXC.  X - - ; : - o b 8.g.y.u.y.u.u.u.",
"y.u.u.u.u.u.u.u.u.v.<.g o - - ; : X   T ;X-X+X%X+X-X+X&X0XtXwXwXwXwXwXwXqXwXwXwXqX9XwXaX8XL     + ; : - @ 4 ..g.4.q.u.u.u.u.u.u.",
"u.u.u.h.h.u.u.u.u.w.p.i.O.4 o - ; , &   w I.:X:X-X+X%X+X+X>XqXwXwXqXqX9X8X8XqXtXiXaX8XF.*   X ; ; + o : N 9.l.,.:.e.f.u.t.u.u.u.",
"t.u.u.y.8.q.u.u.u.u.y.6.b.j.3.l - o , q     e L.OX:X:X1X:X-X;X1XwXtXiXpXaXaXpX8X|.W *     O - o o 4 V 7.c.i.h.y.9.y.u.u.r.t.u.u.",
"y.u.u.8.>.8.i.u.u.u.f.e.'.5Xb._.;.N 4 , @       X 9 U Z.J.I.{.{.}.}.}.R.F.W A .       X o + > b @.y.c.i.y.y.u.u.h.u.u.u.u.y.u.u.",
"u.u.u.8.>.q.u.u.u.u.u.t.j.^.m.[.f.c.r.%.V g   8 Z                             8 J T.0   V @.e.M.M.u.y.y.u.u.u.u.u.u.h.u.u.u.u.u.",
"u.u.u.u.y.u.u.u.u.u.u.t.f.s.d.d.f.r.y.i.N.M   A.1XOXI.L.B.U D D H H I Q U.R.oXqXiXgXY   :.N.u.w.y.y.u.u.u.u.r.u.y.y.u.u.u.u.u.u.",
"u.u.u.u.u.u.y.u.u.f.u.y.h.i.u.u.y.u.u.i.:.X & OX%X;XuXuXuX,XuXiXrXaXgXgXaXpXiXwX8XiXQ.  M v.t.u.u.u.t.u.u.u.u.u.u.u.u.u.u.u.u.u.",
"u.u.u.u.u.u.t.t.u.u.u.u.u.u.u.u.u.u.y.c.B   F :X+X>XyX9X7XsXaXpXaX.XW S.6XtX8XwX9XtX6X. # u.u.u.7.8.u.u.u.u.u.u.u.y.u.u.u.u.u.u.",
"u.y.u.y.u.t.u.t.u.t.u.u.u.u.u.y.u.u.r.i.3   J.-X%XqXwX8XrX|.J K S.&     * .XtXqXqXqXiXS   -.v.e.=.7.h.u.u.u.u.u.u.u.u.u.u.u.u.u.",
"u.u.y.u.u.u.b.u.u.t.u.u.u.u.u.u.u.u.i.%.  * @X-X>XtX8XiX6X*         Q Y   r tXqXwX8XaXC.  B M.w.0.8.u.u.u.u.u.u.u.y.u.u.u.u.u.y.",
"u.u.i.y.t.f.w.d.f.u.u.u.u.u.u.u.u.y.c.M   P :X+X;X%X;XiXC.  H W.H r yXpX* & dXtXwXqXpX~.  z z.t.g.u.t.u.u.u.u.u.u.u.u.u.u.u.u.y.",
"u.u.u.u.u.e.).).e.f.f.u.u.u.u.y.u.c.X.X   Z.:X+X%X;X0XdX& w $XfXiXwXpXE.  . U.iXqX9XpXS.  # y.i.y.u.u.7.y.u.u.f.5.q.u.u.y.u.u.u.",
"u.u.y.x.y.j.j.(.j.r.r.u.u.u.u.y.M.@.    Z.;X%X%X0X9XaXS.  P uX9X9X8XtXXXw X   F.pXqXiXQ.&   z u.f.w.f.:.8.u.y.y.-.w.u.y.i.y.u.y.",
"u.u.y.z.q.3X).`.'.q.u.u.u.u.y.u.w.1   B.1X%X>XwX9XpXE.  . K.>XwXwXwXwXwXpXW.  e tXwX8XpX.X*   c v.5.>.e.,.4.w.r.4.w.h.g.r.y.u.u.",
"u.u.t.u.t.k.j.j.h.u.u.u.u.u.y.M.o.  0 *X%X<XtXwXqXaXI   P.1X%XrXwXwXwX8XaXE.  A iXqXwX8XaX.XX   %.v.:.:.:.=.4.7.4.-.y.7.>.u.u.u.",
"u.i.t.u.u.r.y.w.6.u.u.u.u.y.y.M.v   E :X&XtXwXqX8XiXP   H.:X%X&XeX8X8XiXT.    E.iXqXwXqX8XiXA   N M.w.7.=.=.-.=.8.+.=.5.q.i.u.y.",
"u.u.u.u.u.u.8.4.g.h.u.8.u.u.u.i.z   H.:X>XtXwX9X9XiXP.    Z.:X@X%X:X<XgXQ   Q aX8XwXwXwX8XiXJ   n M.u.8.y.y.8.8.u.y.r.8.y.u.y.u.",
"u.u.u.y.u.g.y.*.h.w.w.*.h.h.u.i.5   K.:X0XwXwXqXqXqX1XZ.  e :X:X:XK.D.J.q   E.pXqXwXwXwXwX8X8   B l.y.u.y.u.u.g.u.u.y.y.y.y.u.u.",
"u.u.u.u.u.4.h.=.,.,.0.*.0.y.:.M.z   G.:X=XyX9X9XqXyX<X#X&   Z P Z         D wX8X8X8X9X8XaXT.    %.p.y.u.y.u.y.u.u.y.u.u.u.u.u.u.",
"u.u.u.u.u.,.+.=.-.=.,.-.-.*.=.M.M   G :X,XpXiXpXiX,X;X1X{.9       9 E B.P.2XpXaXpXiXiXwX7X0   5 u.u.u.u.u.u.u.u.u.u.y.u.u.u.u.u.",
"u.y.u.u.u.r.7.w.g.q.r.q.7.8.4.g.=..   e Z.!.E.W.E.P.P.P.I.P.E U B.J. X}.{.P.P.!.W..X$XaX}.  = &.z.r.u.u.u.u.u.u.u.u.u.u.u.u.u.u.",
"u.u.u.u.y.u.u.u.y.u.u.t.u.h.h.h.i.%.<                                         X     X J /...*.z.u.u.u.u.y.u.u.r.u.u.u.u.u.u.r.u.",
"y.u.u.y.u.u.u.y.u.u.y.u.u.u.u.u.y.i.y. .c 6 5 3 3 1 2 2 2 1 < < $ # < < 2 5 6 x b B @.>.6.z.i.y.u.u.u.u.u.u.u.u.u.u.u.u.u.u.u.u.",
"u.u.u.u.u.u.u.u.u.u.u.u.u.u.u.u.y.y.u.M.M.i.u.y.y.y.y.y.r.w.w.w.9.7.e.w.y.u.g.g.M.M.c.b.t.y.y.y.u.u.u.u.u.u.u.u.u.u.u.r.u.u.u.u."
};
