/* XPM */
static char *_4148631be354451b149a54f09dbe383fyJPf3TQGtvIdgH5[] = {
/* columns rows colors chars-per-pixel */
"64 64 229 2 ",
"   c #010101",
".  c #0B0B05",
"X  c #050609",
"o  c #0A0A0B",
"O  c #070807",
"+  c #0E1007",
"@  c #121309",
"#  c #171B0C",
"$  c #0B0E10",
"%  c #0E1112",
"&  c #0E151A",
"*  c #131516",
"=  c #191C1D",
"-  c #171A18",
";  c #110F09",
":  c #1E220E",
">  c #1F2410",
",  c #252A13",
"<  c #272816",
"1  c #343B1A",
"2  c #36361E",
"3  c #2B3116",
"4  c #191F23",
"5  c #1C2123",
"6  c #1B242A",
"7  c #1E2C34",
"8  c #23282B",
"9  c #383A25",
"0  c #242E33",
"q  c #2A3337",
"w  c #32393C",
"e  c #211F12",
"r  c #433B22",
"t  c #3A431E",
"y  c #3D4421",
"u  c #434D23",
"i  c #484729",
"p  c #4A5626",
"a  c #525B2A",
"s  c #544F32",
"d  c #57652C",
"f  c #5E6C32",
"g  c #646737",
"h  c #687835",
"j  c #706C3A",
"k  c #645833",
"l  c #373E42",
"z  c #2B3B44",
"x  c #374348",
"c  c #394D56",
"v  c #3C525B",
"b  c #3F5662",
"n  c #424B4C",
"m  c #454E52",
"M  c #49555B",
"N  c #797946",
"B  c #455D69",
"V  c #535F61",
"C  c #47606E",
"Z  c #49636F",
"A  c #5B676B",
"S  c #4B6571",
"D  c #4C6B7B",
"F  c #556C78",
"G  c #55727E",
"H  c #616E72",
"J  c #67747A",
"K  c #677069",
"L  c #897945",
"P  c #7A8C3D",
"I  c #728438",
"U  c #6F8235",
"Y  c #7B8D40",
"T  c #81953E",
"R  c #91AB3D",
"E  c #849742",
"W  c #9A9656",
"Q  c #92874C",
"!  c #A29655",
"~  c #90A648",
"^  c #94AB4B",
"/  c #96AD4B",
"(  c #9EB947",
")  c #9CB44B",
"_  c #9CB647",
"`  c #96AA51",
"'  c #A3BD4C",
"]  c #A1BC46",
"[  c #A4BD52",
"{  c #B3A35D",
"}  c #94AC6C",
"|  c #ABBB6A",
" . c #BBB767",
".. c #ADAA61",
"X. c #8F946D",
"o. c #C7B566",
"O. c #A6C14D",
"+. c #A9C44E",
"@. c #ACCA4E",
"#. c #A6C152",
"$. c #ABC553",
"%. c #AEC953",
"&. c #AFCA59",
"*. c #AEC658",
"=. c #B1CC55",
"-. c #B3CD5A",
";. c #B2C35B",
":. c #B5D356",
">. c #BAD555",
",. c #B6D25A",
"<. c #B8D45B",
"1. c #BDDA5D",
"2. c #B8D950",
"3. c #B8D54D",
"4. c #B4CC63",
"5. c #B6C869",
"6. c #BAD462",
"7. c #BDD962",
"8. c #B6D264",
"9. c #B9CA77",
"0. c #B4CA6D",
"q. c #C1DD5F",
"w. c #C0DF54",
"e. c #C6C756",
"r. c #C3E15B",
"t. c #C1DE61",
"y. c #C6D76B",
"u. c #C5CA76",
"i. c #C2D276",
"p. c #D2CE71",
"a. c #E9CB73",
"s. c #ECD478",
"d. c #F6D87B",
"f. c #C4E161",
"g. c #CEED64",
"h. c #D4F366",
"j. c #E7E57F",
"k. c #FFE17F",
"l. c #587885",
"z. c #6D7C83",
"x. c #74848B",
"c. c #748389",
"v. c #648796",
"b. c #7D8D95",
"n. c #6F8D95",
"m. c #6C93A3",
"M. c #719AAE",
"N. c #6E96A8",
"B. c #7AA7B8",
"V. c #76A1AD",
"C. c #7FACC2",
"Z. c #83959B",
"A. c #9A9E8A",
"S. c #B0B586",
"D. c #8A9CA4",
"F. c #879AA4",
"G. c #8EA2AA",
"H. c #94A6AE",
"J. c #96ABB4",
"K. c #9DB2BB",
"L. c #A3B4BC",
"P. c #A0AFB2",
"I. c #B8C983",
"U. c #BEEAAA",
"Y. c #C7D786",
"T. c #CBD595",
"R. c #C8CF91",
"E. c #ECE682",
"W. c #F5EE86",
"Q. c #FBE783",
"!. c #F7F188",
"~. c #FBF48A",
"^. c #FFFA8D",
"/. c #F6F087",
"(. c #FFFF91",
"). c #D4D8A9",
"_. c #D5D7B7",
"`. c #D9E1B8",
"'. c #D2E19C",
"]. c #85B6CB",
"[. c #89BCD5",
"{. c #91BACE",
"}. c #A3B9C3",
"|. c #8EC2D9",
" X c #94CADF",
".X c #ADC4CD",
"XX c #AEC5D1",
"oX c #B3CAD5",
"OX c #B4CCDA",
"+X c #B8D1DC",
"@X c #95CBE5",
"#X c #9CD6F5",
"$X c #9EDAFB",
"%X c #9BD7F8",
"&X c #9AD2E8",
"*X c #BCD5E3",
"=X c #B9D9E9",
"-X c #A2DCFC",
";X c #A6DDF7",
":X c #A5E2FF",
">X c #A9E5FF",
",X c #ADECFF",
"<X c #A3E1F6",
"1X c #B8E5FC",
"2X c #B1F2FF",
"3X c #B8FAFF",
"4X c #AEF0FF",
"5X c #DCE1C0",
"6X c #E1E6C8",
"7X c #C3DDE9",
"8X c #C7E2EE",
"9X c #C9E4EE",
"0X c #C6E1F2",
"qX c #CBE5F6",
"wX c #C3E6FA",
"eX c #CCE7F8",
"rX c #CEE9FA",
"tX c #CCE9F7",
"yX c #D2EDFC",
"uX c #D4ECF8",
"iX c #D6F2FE",
"pX c #DAF5FF",
"aX c #DDFAFF",
"sX c #C6F2FF",
"dX c #E3FEFF",
"fX c #E7F6FD",
"gX c #F5FAFE",
"hX c #FEFFFF",
"jX c #F2F3F4",
/* pixels */
"<.<.<.<.<.<.<.,.<.<.<.<.<.<.<.,.6.<.:.1.r.) h u 2 t h / q.1.,.<.<.<.<.:.1.:.,.:.2.6.<.<.<.,.<.f.#.I u 1 t g ~ 1.r.:.8.2.6.>.<.<.",
"<.<.<.<.<.<.<.<.<.,.<.<.<.<.<.>.>.<.q.*.p .             u [ q.,.<.<.<.<.4.Y.8.I.8.<.<.<.,.1.,.d +             1 / r.:.-.@.>.<.<.",
"<.<.<.<.<.<.<.<.<.<.<.<.<.<.<.,.:.7...#     A L.K.J.z.5   @ ~ f.,.<.<.<.4._.9.6X9.:.<.,.1.#.3   % A G.K.L.x.%   O P i._.6X4.1.<.",
"<.<.<.<.<.<.<.<.>.<.<.<.<.<.<.8.<.| -       w XXdXiXdXqXA   + ) 1.,.<.<.-.T.u.I.4.<.<.<.,.3   x +XaXiXdX7XM X     o A.y.T.4.<.<.",
"<.:.<.<.<.<.<.=.-.<.<.<.:.<.<.8.w.u   s ..i     Z.aX0XrXdXH   t 1.<.,.1.4.T.R.Y.,.<.,.f.g   x uXiX0XyXXX-   < W N   e '.0.,.,.,.",
"<.>.>.<.<.+.t.%.] <.7.#.%.<.:.1._   # W.^.^.W     K.aXqXrXiX0   ~ 1.,.<.<.-.-.&.<.,.<.%.+ O oXpXqXiX*X=   g ~.(.^.s   X.Y.-.<.<.",
"<.<.6.<.e.' #.*._ ) *.[ _ <.,.f.h   N (.E.E.(.W   - *XyX0XaXZ.  p f.,.<.<.<.<.<.<.,.r.P   V pXqXeXiXl   g (.W.E.^. .  t t.<.<.<.",
"<.<.<.<.>.$.' [ 6.%.%.<.O.%.<.f.u    .^.W.!.W.^.j   m pXqXyX*XX @ &.<.,.<.<.<.,.<.:.f.t   K.pXqXaXx.  2 ~.!.W.W.!.E.. # ,.:.<.<.",
">.3.>.6.4.-.q.>.>.>.1.<.<.<.<.r.t   u.~.W.W.W./.E.<   H.aXqXaXx   ~ 1.<.<.<.<.:.<.1.#.. - 7XyXyX+X*   u.^.W./.W.!.E.e . -.1.,.<.",
"6.>.>.9._.4.<.<.6.<.:.<.<.<.,.r.t   o.^.W.W.W.W.(...  q rXtXaXb.  d f.,.<.<.<.<.,.r.E   M pXqXpXA   j (.W.W././.~.E.; # -.<.,.<.",
"6.=.9.u.p.R.9.>.<.6.<.<.<.<.,.f.f   Q (.W.W././.W.~.i   D.aXiXXX  , 1.,.<.<.<.<.,.r.a   D.pXyXoX  @ j.!.W.W./.W.^.u.  1 1.:.<.<.",
"w.-.R.).e.Y.9.>.<.e.<.<.<.,.,.q.~   9 ^.W.W././.W.(. .  w yXrXrX8   [ 1.,.<.<.,.,.<.,   +XyXpXH   N ^.W.W.W.W.W.(.j   h f.,.<.<.",
"e.3.=.I.5X| <.>.<.<.<.<.<.<.<.<.1.,   o.^.W.W./.W.W.~.9   K.yXsXM   E 7.-.-.,.,.<.#.  6 1XwX=X* . s.!.W././.W.!.E.#   [ 1.,.<.<.",
"6.<.6.,.*.6.>.>.<.>.<.<.<.<.<.,.f.h   g ^.W././.W.W.(.W   B :X>Xv.  h h.q.f.f.q.g.~   v :X>Xv.  g (.W.W././.W.^.!   u r.,.<.<.<.",
">.<.>.,.y.6.<.<.6.>.:.<.<.<.<.,.1.$.+ O j./.W.W.!.!.Q.a.+ o &X3XC.  1 h a u u p h p   l.3X,Xq   { Q.W.W././.W.^.u.> ^ 1.,.<.<.<.",
"<.<.>.>.<.<.<.<.<.<.<.:.<.<.<.:.,.r.d   N ^.W././.s.a.d.k   l.l.6                     & B m.X < s.a.s.W.!.W.W.~.j.1.1.<.<.<.<.<.",
">.<.<.<.<.<.<.<.<.<.<.<.<.<.<.<.:.1.[ X ; E.!.E.d.a.d.k.L   O     0 A Z.H.K.L.J.F.H l o       s Q.d.a.a.Q.W.~.E.y.:.<.<.<.<.,.<.",
"<.<.<.<.<.,.<.<.<.<.<.<.<.<.<.<.<.,.f.d   j ~.a.a.d.a.s     6 x.oXtXaXaXaXpXpXaXaXaXiX*XD.w     2 o.Q.a.a.Q...  P t.,.<.<.<.<.<.",
"<.<.<.<.<.<.<.<.<.<.<.<.6.-.<.<.<.<.1.[ . O o.d.d.{ #   = b.rXaXpXeXqXqXqXqXqXqXqXqXeXyXaXpXK.q O . L d.d.a.8 X T t.<.<.<.<.<.,.",
"<.<.<.<.<.<.<.<.<.<.6.<.<.' $.,.-.<.6.<.f   r d.! O   M =XaXrXeXqXyXrXrXrXtXrXrXeXyXrXeXqXeXpXiXz.O O j Q.j   y t.<.<.<.<.<.<.<.",
"<.<.<.<.<.<.8.1.-.-.<.<.<.$.$.] #.O.4.4.-.,   s ;   v.,XyXqXrXrXeXrXrXrXrXrXrXrXrXrXrXrXrXrXeXeXfXL.-   s . O I.0.<.<.<.<.<.<.<.",
"<.<.<.<.<.:.4.*.Y.T.-.<.e.%.-.%.#._ R ( t.T .     m.,X;XrXrXrXrXyXeXyXrXrXrXrXrXrXrXrXrXrXrXrXeXqXpXXX-     N '.8.<.<.8.<.<.<.<.",
"<.<.<.<.<.%.`.).i._.-.<.7.-.%.y.,.%.%.( 7.#.#   v.,X%X1XrXrXrXrXrXeXeXeXyXeXrXrXrXrXrXrXrXrXeXyXyXqXpX}.O   ^ 1.,.<.<.<.<.<.<.<.",
"<.<.<.<.<.-.T.R.T. .>.<.<.,.<.<.<.<.<.,.f.a   M >X-X-XqXuXrXrXrXyXeXyXrXrXrXrXrXrXrXeXyXrXrXrXrXeXrXqXaXZ.  , >.<.8.<.,.<.<.<.<.",
"<.<.<.<.<.-.9.S.).i.>.<.<.<.6.<.<.<.:.1./   & @X>X-X-XrXrXrXrXrXeXrXrXrXrXrXrXrXrXrXrXrXrXrXeXeXrXrXrXeXpXx   I t.<.<.<.6.<.<.<.",
"<.<.,.<.6.0.).T.| <.<.<.<.<.<.<.<.<.<.t.p   v.,X#X-X;XtXrXrXqXrXrXrXrXrXrXrXrXrXrXrXrXrXyXeXqXyXqXeXrXeXpX}.  > ,.,.] 6.<.<.<.<.",
"<.q.>.<.0.`.e.e._.-.>.<.<.<.<.<.<.,.1.#.. & &X:X-X$X>XfXeXuXpXeXrXyXrXrXrXeXrXrXyXeXrXrXeXpXiXqXpXiXeXrXqXpXn   E @.O.<.8.<.<.8.",
"<.<.<.<.8.;.'.'.5.<.<.<.<.<.<.<.<.,.t.P   B ,X$X-X:X;XA 5 0 D.pXeXrXrXrXrXyXrXrXrXrXrXrXiX}.x = m OXiXeXqXaXZ.  u =.%.6.O.,.<.<.",
"<.<.<.<.<.<.I.I.-.<.6.-.<.<.<.<.<.,.r.p   V.,X$X-X>Xv   O X   G.pXeXrXrXeXqXqXrXrXrXeXyXOX*   O   5 8XyXtXiX+XX : +.6.#.] 8.:.<.",
"<.e.<.<.<.<.8.-.<.<.<.<.<.<.<.<.<.<.<.>   @X:X$X:X[.  e 7XD.  l iXeXrXrXyXaXaXpXrXrXqXaXJ   H iXm   F.pXqXrXiX0   / 8.' &.7.<.<.",
"<.<.<.<.>.e.<.>.>.6.<.<.<.<.,.<.,.1.&.. 4 -X-X$X1X=X- J dXqX5 M pXeXeXyXoXz.J }.yXeXqXpXb.X .XdXP.  L.fX9XqXaXM   I %.&.#.+.6.<.",
"<.<.<.<.<.<.,.6.<.<.<.<.<.<.>.>.,.1.[   7 :X-XfXhXhXjXgXhXpX7XeXrXrXeXiXm     4 0XyXeXeXyX7XuXgXhXjXhXhXgXuXaXA   U 7.O._ ] O.6.",
"<.<.<.<.,.,.' 6.6.$.$.7.6.>.<.<.,.1.[   0 >XpXhXhXhXhXhXhXgXyXeXrXrXrXeX*Xc.A XXrXrXrXrXrXrXgXhXhXhXhXhXhXjXdXH   P f.-.1.+.+.7.",
"<.<.<.<.<.6._ ,.7.O.#.&.6.<.<.<.,.1.[   7 >XgXhXhXhXhXhXhXhXfXeXrXrXrXaXaXdXaXaXaXyXrXrXrXyXhXhXhXhXhXhXhXhXdXV   E q.,.:.<.<.<.",
"<.<.<.1.+.%.[ #.6.$.[ _ -.-.+.%.<.<.%.+ & ;XgXhXhXhXhXhXhXhXpXeXrXrXrXA J rXpXF.m *XyXrXrXyXhXhXhXhXhXhXhXhXdXx   ^ q.<.<.,.<.<.",
"<.<.<.<.=.' ' _ R #.' ) _ ( [ -.<.<.<.3   [.iXhXhXhXhXhXhXgXyXeXrXyX0X5   0 w     }.iXeXrXeXfXhXhXhXhXhXhXgX0X- . $.<.<.<.<.<.<.",
"<.,.<.<.>.=.' 6.( #.%.-.-.-.<.<.<.-.f.a   v.>XeXgXhXhXhXpX1XyXeXeXeXiXXXl     8 H.pXeXrXrXrXrXfXhXhXhXhXfXpXJ.  t 1.,.<.<.<.<.<.",
"<.<.<.<.,.,.<.<.6.<.<.<.<.6.<.<.<.<.q.)   0 <X$X-X1X1X>X$X-XwXyXrXyXeXiXiX+XOXtXpXrXrXrXrXrXrXeXyXiXuXyXqXpXn   P f.:.<.<.<.<.<.",
":.<.<.,.<.,.>.,.>.<.<.<.<.e.<.<.-.q.t.E O   m.,X%X$X-X$X-X-X-XwXyXeXrXeXeXiXyXyXeXrXrXrXrXrXrXrXeXeXeXqXdXD.  , ,.,.<.<.:.<.<.<.",
"<.<.<.<.<.<.<.<.<.-.q.t.q.<.<.<.e.q.d   X   o |.>X-X-X-X-X-X-X-XwXyXrXeXyXqXqXrXrXrXrXrXrXrXrXrXeXyXqXaX}.*   E :.,.<.<.<.<.<.<.",
"<.<.<.<.<.<.<.,.<.f.[ P E <.q.>.q.p   % K.H   6 |.2X-X-X-X-X-X-X-XwXyXeXrXrXrXrXrXrXrXrXrXrXrXrXqXrXaXK.&   f 1.O.:.1.<.<.<.<.<.",
"<.<.<.<.8.<.1.t.7.I O     < } i.a   5 XXaXuXM   & M.,X>X-X$X-X-X-X-X1XeXuXrXrXrXrXrXrXeXqXqXrXyXaX9XJ     d t.#.( &.<.<.:.<.<.<.",
"<.<.<.6.$.:.#.p :   o A x   - <   - oXpX0XyXiXH     z ].-X,X,X:X-X-X%X-X1XqXqXqXqXeXrXyXpXaXpX+Xc.=   + I f.8.,.&.,.8.<.:.:.<.<.",
":.<.<.%.O.#.,   o % Z.aX<Xc       K.pX0XqXqXtXaXJ.8     6 G C.@X-X>X,X,X,X2XsXpXpXiXeX7X}.x.x X     u #.f.<.<.8.8.<.<.<.<.<.<.<.",
"<.<.<.#.@.h   n 7X8XiX;X$X,Xx   z.dXiXaXpXiXrXqXpXtXF.w         4 z v Z D G D Z M l 8 o       @ d ) f.1.,.:.<.<.<.<.<.<.<.<.<.<.",
"<.<.<.,.f.f   Z.dXrX0X$X,X].  8 qXXXG.Z.H..XtXaXtXqXpXpXOXb.M 8 O                   O o   u ^ =.f.1.,.<.<.,.<.:.<.<.<.<.<.<.<.<.",
"<.<.<.,.f.f   H pXqX1X$X,XB   w q           5 z.8XpX0XeXiXaXpXyX7XOX}.H.G.D.G.H.}..XqXx.  P h.,.&.,.:.<.<.<.<.<.<.<.,.<.<.<.<.<.",
"<.:.,.1.#.. O L.iXyX-X$X-X6       q S l.S q X   4 }.aXeXeXqXeXrXyXiXiXpXpXaXaXaXpXyXdXx.  p $.6.<.:.,.<.<.<.<.<.<.<.<.<.<.<.<.<.",
"<.<.<.t.^   M dXqXeX-X,XM.    c [.:X,X,X,X>X|.v   X H.aXeXrXrXrXeXeXeXeXqXqXqXeXeX0XpXA     O < p ^ t.,.<.<.<.:.<.<.<.<.<.<.<.<.",
"<.<.,.q.)   8 +XpX0X,X|.%   l.,X>X-X-X$X#X-X:X,Xv.  o oXyXeXrXrXyXrXeXrXrXyXyXrXrXeXiXw   c 6     . ~ 7.,.<.<.<.<.<.<.<.<.<.<.<.",
"<.<.:.<.q.u   O G.rX:Xc   D 2X-X$X-X-X-X-X:X-X$X2XG   x pXeXrXrXeXeXyXrXwX1XwXrXqXyXoX  6 >X-X|.S   > :.<.:.<.<.<.<.<.<.<.<.:.<.",
"<.<.<.,.q.w.m   w dX].  6 <X-X-X-X:X-X-X-X-X-X-X-X;X0   }.pXeXeXrXrXrX;X$X-X-X-XyXdXA   l.,X-X>X4Xx   U q.<.<.6.%.%.7.:.:.<.<.<.",
"<.<.<.<.<.u.u.#   c.C   l.,X-X-X-X-X-X-X-X-X-X-X$X,Xv.  F dXqXyXrXyX1X$X-X-X-X-X{.x.X % &X:X-X#X,Xv.  a :.<.,.,.( ,.7.:.<.<.<.<.",
"<.<.<.<.=.`.).X.o       ].>X$X-X:X-X-X-X-X:X-X-X-X>X[.  w yXrXeXyX7X&X-X-X-X-X>Xq     m.2X$X$X#X2XS   h %.O.-.-.O.&.<.8.,.<.<.<.",
"<.<.<.7.<.0.9.i.` f + O @X:X-X-X-X-X-X-X-X-X:X$X-X:X@XX 8 yXrXrXuXq 6 -X-X-X-X,Xv   X G ].-X>X,XB.O . ^ O.) #.%.O._ 8.@.] <.<.,.",
">.<.<.e.<.:.-.-.r.f.,    X:X-X-X-X$X:X-X-X-X-X-X-X:X&XX 8 iXqXeXyXq   [.>X-X$X,XN.        & x w O   h %._ ( _ ( %.R ( @.&.<.<.<.",
"<.<.<.<.<.<.@.O.<.7.1   ].>X-X-X-X-X-X-X-X-X-X-X-X>X].  0 0XpXqXdXJ   v.,X-X-X-X&X5   n 9 @ O   # P f.%.&.,.&.@.<.,.,.%.,.<.<.<.",
"<.<.<.<.<.7.,.( 6.1.f   l.,X$X-X-X-X:X-X-X-X-X-X-X,XM.    = J.iXpX}.  z >X$X-X$X,Xm.  9 5.S.` / ,.f.<.<.<.<.1.<.,.<.:.,.,.:.<.<.",
"<.<.<.<.,.#.8.' [ #.~   4 ;X:X$X-X-X:X-X-X-X:X-X-X-X-XM.c     H.dX}.*   ].>X-X-X-X>Xx   A.Y.r.q.<.,.<.<.<.<.2.<.<.<.,.,.<.,.<.<.",
":.<.<.<.,.#.~ ( _ ) *.t   Z 4X-X$X-X-X-X-X-X-X-X-X-X-X,X2Xv.  = l       c ,X$X-X#X,Xm.  K i.>.q.<.<.<.<.<.<.<.,.<.<.<.<.<.<.<.<.",
"<.<.<.<.<.=.$.:.6.=.:.' @   l.,X>X$X$X-X-X-X$X-X-X$X-X#X#X,Xc     > h >   B.,X#X#X2Xl.  h t.<.<.<.<.<.<.,.,.<.,.,.,.<.,.<.<.<.<.",
"<.<.<.<.<.<.<.<.<.<.<.q.~ .   z ].,X:X-X-X,X,X,X,X,X,X,X,X3XV.  u r.r.P   = @X4X4X|.-   ^ q.:.<.<.<.<.<.1.,.,.1.<.1.,.,.<.<.<.<.",
"<.<.<.<.<.<.<.<.<.<.<.,.r.) ,     7 @X-X&XD B C S B B Z B S x   d f.&.1.p   & v b &   a q.,.<.<.<.<.<.<.<.<.,.<.<.,.,.1.,.<.<.,.",
"<.<.<.<.,.<.<.<.<.<.<.,.,.7.<.h - X } U.}                     . ) 1.,.<.1.a         a <.<.,.<.:.<.<.<.<.,.,.1.,.,.1.,.,.1.,.<.<."
};
