/* XPM */
static char *result[] = {
/* columns rows colors chars-per-pixel */
"64 64 246 2 ",
"   c #010101",
".  c #0B0403",
"X  c #0B0C05",
"o  c #02050A",
"O  c #0A0B0B",
"+  c #06090B",
"@  c #170A05",
"#  c #0D1108",
"$  c #12120B",
"%  c #1A140A",
"&  c #090C13",
"*  c #0D1114",
"=  c #0E151B",
"-  c #161919",
";  c #270D05",
":  c #241104",
">  c #23120A",
",  c #2A1508",
"<  c #321A0E",
"1  c #1C230E",
"2  c #262817",
"3  c #382718",
"4  c #323718",
"5  c #181E24",
"6  c #1C242A",
"7  c #1B2126",
"8  c #1E2933",
"9  c #24282A",
"0  c #383926",
"q  c #262D35",
"w  c #2A3236",
"e  c #343839",
"r  c #4B1D0E",
"t  c #48220A",
"y  c #5C2B0D",
"u  c #5A260C",
"i  c #472617",
"p  c #572712",
"a  c #543515",
"s  c #563925",
"d  c #3C4425",
"f  c #65481C",
"g  c #454A2A",
"h  c #49542A",
"j  c #535A34",
"k  c #505232",
"l  c #734F31",
"z  c #5C6837",
"x  c #536229",
"c  c #646839",
"v  c #68763A",
"b  c #6F6B2F",
"n  c #2A3943",
"m  c #363D44",
"M  c #394347",
"N  c #3A4A57",
"B  c #3D515E",
"V  c #2E4556",
"C  c #3F5867",
"Z  c #454D54",
"A  c #47545B",
"S  c #4B524F",
"D  c #727248",
"F  c #475964",
"G  c #515561",
"H  c #4A616D",
"J  c #5B676C",
"K  c #496273",
"L  c #546A79",
"P  c #58717C",
"I  c #626B73",
"U  c #677278",
"Y  c #686F6F",
"T  c #5C6051",
"R  c #95542D",
"E  c #895836",
"W  c #965633",
"Q  c #995633",
"!  c #965933",
"~  c #9C5B35",
"^  c #995A3B",
"/  c #8D4F30",
"(  c #A25A38",
")  c #99723A",
"_  c #8D7536",
"`  c #8D7849",
"'  c #A06C55",
"]  c #73853C",
"[  c #7C8B47",
"{  c #93AE3E",
"}  c #8A833A",
"|  c #84934B",
" . c #979050",
".. c #A78D4B",
"X. c #9CB647",
"o. c #96A958",
"O. c #9CB456",
"+. c #92A64F",
"@. c #A2BC4A",
"#. c #A6BA57",
"$. c #B1B05A",
"%. c #94956C",
"&. c #A19561",
"*. c #9DAE65",
"=. c #B3BB68",
"-. c #BAB873",
";. c #ABAE6B",
":. c #C3B569",
">. c #A7C34C",
",. c #ABC553",
"<. c #AEC953",
"1. c #A9C357",
"2. c #B1CC55",
"3. c #B3CD5A",
"4. c #B2C45B",
"5. c #B5D355",
"6. c #B9D455",
"7. c #B6D35B",
"8. c #B8D45B",
"9. c #BBDA5C",
"0. c #B9D854",
"q. c #B6D54E",
"w. c #BEE05D",
"e. c #ACC262",
"r. c #B4CC63",
"t. c #B6CA67",
"y. c #BAD362",
"u. c #BDDA63",
"i. c #B8D466",
"p. c #B9C877",
"a. c #BDD07B",
"s. c #BCE562",
"d. c #C2DD5D",
"f. c #C1DA58",
"g. c #C5C75D",
"h. c #C3E15C",
"j. c #C2DC64",
"k. c #C3DC6A",
"l. c #C3D667",
"z. c #C5D877",
"x. c #CDCB73",
"c. c #ECCB76",
"v. c #EBD578",
"b. c #F5D677",
"n. c #EDCC6C",
"m. c #C4E164",
"M. c #C8E56A",
"N. c #D3F36A",
"B. c #F2E97C",
"V. c #F6F377",
"C. c #5C7583",
"Z. c #516B80",
"A. c #657A85",
"S. c #717B84",
"D. c #778489",
"F. c #698495",
"G. c #778C97",
"H. c #76919E",
"J. c #7798AA",
"K. c #7396AA",
"L. c #7DA2B0",
"P. c #5E8593",
"I. c #87959A",
"U. c #8B998C",
"Y. c #9AAA85",
"T. c #8A9AA3",
"R. c #909DA2",
"E. c #8DA2A7",
"W. c #95A5AD",
"Q. c #9AAAB5",
"!. c #9FB2BC",
"~. c #86A9BB",
"^. c #A3B4BA",
"/. c #A4AEB2",
"(. c #B7BF8B",
"). c #BCC883",
"_. c #BCE9B1",
"`. c #CBD28D",
"'. c #F8DD83",
"]. c #E9D883",
"[. c #EAE686",
"{. c #F5ED86",
"}. c #F6ED8A",
"|. c #FAEA85",
" X c #FBF589",
".X c #EBE791",
"XX c #FFFE94",
"oX c #FFFF9A",
"OX c #F9F392",
"+X c #F6E78E",
"@X c #D3DAA5",
"#X c #DAE3AF",
"$X c #8BB4CB",
"%X c #96B7C9",
"&X c #92BBD1",
"*X c #A8B9C4",
"=X c #97C3D8",
"-X c #94C0CE",
";X c #ADC4CA",
":X c #B3C4CD",
">X c #B7CAD5",
",X c #BDD2DD",
"<X c #A1CDDD",
"1X c #9ACAE3",
"2X c #9DDBFB",
"3X c #9AD9F7",
"4X c #9DD4E7",
"5X c #BDD9E4",
"6X c #A4D9F5",
"7X c #A2DCFC",
"8X c #A9DBF6",
"9X c #AAD7EC",
"0X c #9EE5FF",
"qX c #A4E3FE",
"wX c #ABE3FE",
"eX c #ADEBFF",
"rX c #A5E9FF",
"tX c #B4E5FC",
"yX c #B3EBFF",
"uX c #BBE7FB",
"iX c #B7F5FF",
"pX c #C6DAE6",
"aX c #C9E1ED",
"sX c #C4E4F4",
"dX c #CBE5F5",
"fX c #CDE9F6",
"gX c #CBE7F9",
"hX c #CDE9FA",
"jX c #C2E7FA",
"kX c #D1E6F5",
"lX c #D2E9F6",
"zX c #D2ECFB",
"xX c #D8EDF8",
"cX c #C7F2FE",
"vX c #D5F2FE",
"bX c #DAF4FE",
"nX c #DDFAFF",
"mX c #D4F8FF",
"MX c #D3E6EE",
"NX c #E3FDFF",
"BX c #EDFCFE",
"VX c #E5F4FC",
"CX c #FEFEFE",
"ZX c #F4F9FB",
"AX c #F0EFEE",
"SX c #D2E1CF",
/* pixels */
"8.8.8.8.8.7.8.8.7.8.8.8.8.8.8.7.8.6.0.9.m.O.D g 0 d D X.s.l.6.8.i.5.5.8.9.5.7.0.0.8.8.8.8.7.6.M.#.] g 0 d c +.j.m.q.y.6.8.y.6.8.",
"8.8.8.8.8.8.8.8.8.8.8.8.8.8.8.6.6.5.d.e.h X             g 1.9.5.8.8.8.y.r.`.t.p.t.8.0.5.r.9.5.z #             4 O.w.7.e.<.6.8.8.",
"8.8.8.8.8.8.8.7.8.8.8.8.8.8.8.5.8.a.*.1   o I ^.!.Q.S.7   $ o.j.5.8.8.y.e.#X).#Xa.7.8.6.9.=.2   * J W.%X^.I.*   X [ a.@X#Xe.8.8.",
"8.8.8.8.8.8.8.8.7.8.8.8.8.8.8.7.8.-.-       m *XNXvXnXlXJ   # *.u.5.8.8.r.`.).).y.5.i.8.y.4   M ,XnXvXNXpXS o     & Y.z.@Xt.8.8.",
"8.5.8.8.8.8.6.6.2.8.8.8.7.8.8.y.h.h   j ;.g     T.bXsXhXnXU   d u.5.8.8.r.`.).`.5.7.7.m.v   M xXbXsXzX:X-   4 &.D   1 @Xt.8.3.8.",
"8.5.8.f.f.@.d.<.@.y.u.1.<.8.7.9.O.o % .XoXXX ..   Q.nXsXfXvXw   +.9.8.8.i.7.7.5.8.7.8.1.# o >XbXsXzXpX-   D OXXXoXg   %.z.y.8.8.",
"8.8.y.8.y.@.,.4.X.X.<.@.{ 7.7.j.v   D oXB.[.oX%.  - 5XzXdXnXI.  k m.0.8.8.8.7.8.8.7.m.[   G VXdXlXxXM   c XX}.[.XX-.  d l.8.8.8.",
"8.8.8.8.6.@.#.@.y.<.2.9.>.<.8.k.d . -. X{.|.B.XXD   S VXdXhX,X& $ r.q.i.8.8.7.8.8.0.m.d   Q.bXaXNXD.  0 OXB.+X}.}..X# 1 t.6.8.8.",
"8.6.8.r.t.3.9.8.7.f.8.8.u.8.5.j.0   x. X}.}.{.{..X2   W.bXsXnXM   | h.8.8.8.8.7.8.9.4.X - sXhXvX,X& o x.XX}. X{.{..X2 X e.0.8.8.",
"8.6.6.p.@Xt.8.8.8.7.8.8.8.8.8.h.d   -.XX{.}.{.{.XX;.  w zXgXnXI.  z m.8.8.8.8.8.3.j.|   G bXdXbXJ   D oX{.}.{.{. X.X% - r.0.8.8.",
"y.3.t.x.x.`.p.9.8.g.8.7.8.8.3.m.z    .oX{.{.{.}.{.OXs o R.bXzX:X  2 i.0.8.8.8.y.3.m.j   T.bXhX>Xo - [.}.{.{. X[. Xx.  4 j.8.8.8.",
"0.3.`.@Xg.`.t.8.8.8.8.8.8.8.7.j.o.o 0 OX{.{.}.}.{.XX-.  e zXhXhX9 o O.9.8.8.8.8.8.y.2 o ,XvXnXI   ` XXB.{.{.{.{.XXD   v d.7.8.8.",
"6.f.3.p.#X=.y.6.6.8.7.8.8.8.7.6.i.2   -. X{. X}.{.{.}.0   *XcXcXF . [ s.5.3.8.3.5.1.o 8 uXjXpX* O v.}.}.{.}.{.{.[.1 o #.l.7.8.8.",
"8.8.y.t.r.t.8.6.8.8.8.8.8.8.8.5.s.[   c XX{.{.}.{.{.XX&.  F wXwXF.  v N.u.m.m.m.M.+.  B qXwXF.  c oX[.}. X{.{.XX&.  g k.5.8.8.8.",
"6.6.6.6.l.y.8.6.y.8.8.8.8.8.8.8.9.1.# X ]. X{.{. X}.|.x.@ & 4XiX~.  0 D j h g h D k   C.iXeXM   ;.|.}.{.}.{.{.XX:.2 o.0.5.8.8.8.",
"y.8.6.8.8.8.8.6.8.8.6.8.8.8.8.5.5.s.z   D XX{.}.}.b.n.'.c   A.C.8                     = H G.o 3 c.c.v.}. X}.B. X[.M.u.7.8.8.8.8.",
"8.8.8.8.8.8.8.7.8.7.8.8.8.7.8.9.y.g. .. $ ]. X[.b.c.c.+X` o       w J I.W.Q.^.W.T.J M &   o   k +Xb.c.c.B.|.OX[.z.6.8.8.7.8.8.8.",
"8.8.8.8.8.8.8.8.8.8.8.8.5.u.g.$...! ! a   D  Xn.b.b.c.j     9 D.>XlXbXnXnXbXnXnXnXnXvX,XI.e     s -.'.c.c.|.;.. ] j.8.8.8.7.8.8.",
"8.8.8.8.8.8.8.8.7.8.7.u.l.$.) R / Q Q l . o :.b.b.;.1   5 I.dXnXvXfXfXfXfXfXdXdXfXdXfXvXNXbXQ.e   @  .'.n.c.9 o | j.8.8.8.8.8.8.",
"8.8.8.8.8.8.8.8.8.8.l.$.) / / Q R W Q ~ s   s +X&..   F 5XnXgXgXfXhXhXhXhXfXhXhXfXhXhXgXjXhXnXzXS.O   c +XD   s k.6.8.8.5.5.8.8.",
"8.8.8.8.7.7.i.8.8.y...R W Q Q Q W W Q Q W >   k X   F.yXhXdXgXzXfXhXhXhXhXhXhXzXhXhXhXhXzXdXdXgXNX^.-   k $ . ;.z.5.8.8.8.8.8.8.",
"8.8.8.8.8.8.t.t.;.) / Q Q Q Q Q W Q Q W ~ l .     K.yX8XhXgXhXhXhXhXhXhXhXgXhXgXhXhXhXhXhXhXlXhXgXVX:X-     < s +.u.5.y.8.8.8.8.",
"8.8.8.8.8.=.@X`.! W Q Q Q W Q Q W Q Q W Q E %   F.yX6XuXhXfXzXgXzXhXhXzXhXzXgXzXhXhXhXhXhXfXzXhXhXjXbX*XO . i p t } d.8.8.5.8.8.",
"8.8.8.8.8.t.`.' R ! W W Q Q Q Q Q W W Q ( i   F eX2X7XjXhXfXhXhXgXhXhXgXhXgXzXgXhXhXhXzXhXhXhXhXhXhXgXNXG.  @ p u t  .j.5.i.8.8.",
"7.8.8.8.8.l.) Q Q Q ^ Q Q Q Q Q Q Q W ~ l   = 1XqX2XwXfXhXhXhXhXhXhXhXhXzXhXhXzXhXhXhXhXhXhXhXhXhXhXhXgXbXm   3 y p u $.9.8.8.8.",
"8.8.7.8.i.../ Q R R Q Q Q Q Q Q Q Q Q ~ i   F.eX6X2X8XfXhXgXgXhXgXzXhXhXgXhXhXgXhXhXzXfXhXdXhXhXgXfXhXgXbX*X  @ p y r l l.q.8.8.",
"6.y.6.8.-.! Q Q Q Q Q W Q Q Q Q ! Q Q E . - 4X7X8X2XwXnXkXzXbXhXgXhXzXhXhXhXgXzXhXlXhXhXfXbXbXdXbXvXgXfXfXbXM   r y p r +.s.8.8.",
"8.8.6.u.$.R Q ^ W W Q W Q Q Q Q Q ( ( s   F eX2X7XqX9XJ 7 w R.xXgXhXhXhXzXgXzXgXhXhXhXgXbX*XM - Z >XvXfXdXnXI.  , p p u b i.7.8.",
"8.y.8.j.../ Q Q Q Q W W W Q W Q ^ W / >   L.eX7X7XwXA   O o   W.bXgXhXhXdXdXdXgXhXlXgXzX,X*   O   9 aXfXgXvX,X& . p u p f t.9.8.",
"6.y.8.y.) R Q Q Q W ^ W R ~ ^ l s < ; . & =X7X6XqX&X  7 pXT.  M bXkXhXgXzXnXnXbXhXzXdXnXU   I xXZ   I.nXgXgXxXw   t y u u $.8.y.",
"6.y.8.y.) Q Q Q ! Q W ! ~ l r ; ; @ >   6 6X7X6XuXpX- U BXMX6 A bXkXgXzX>XA.A.!.zXzXgXbXG.O ;XBX/.. ^.NXdXgXVXA   i y u y +.u.8.",
"8.y.6.y.) Q Q Q W Q ~ / i ; ; : ; ; %   q qX8XVXCXCXAXZXZXxXsXfXzXgXgXbXA     5 pXzXgXhXzXpXzXBXCXAXCXCXZXkXnXJ   r y y y +.<.y.",
"8.8.8.u.../ Q Q Q ^ s ; ; > > : : : %   w wXvXCXCXCXCXCXCXZXxXhXhXhXhXhXpXS.I :XhXfXhXhXhXzXBXCXCXCXZXCXCXZXVXJ   t y u f 1.>.i.",
"8.8.8.u.$.Q Q Q W t ; ; : : : : : ; >   q tXZXCXCXCXCXCXCXCXVXgXhXhXzXbXnXnXnXnXbXzXhXhXdXxXCXCXCXCXCXCXCXCXBXH   t y r _ m.8.8.",
"8.5.6.y.3.) W l , ; : : : : : : : : >   5 9XBXCXCXCXCXCXCXCXxXkXhXhXzXJ U lXbXT.Z 5XzXhXhXzXCXCXCXCXCXCXCXCXNXM   3 u a 4.9.8.8.",
"8.8.6.5.2.$./ r @ > ; % : : > : ; : >   o $XbXCXCXCXCXCXCXZXzXhXhXhXaX7   q m   o *XbXgXhXfXBXCXCXCXCXCXCXZXpX5   > t _ u.7.8.8.",
"8.8.8.8.8.3.v @ , > ; : : : : : : : : @   F.tXsXZXCXCXZXVXsXhXhXgXgXvX:Xm o   9 W.bXgXhXhXgXzXVXCXCXCXCXVXbXQ.  @ @ g l.8.8.8.8.",
"8.8.8.8.8.6.l.c @ ; > ; : : : : : : : %   q 7X2X8XuXuX8X6X6XtXhXhXzXhXvXbX,X>XlXvXhXzXhXhXgXcXgXzXxXxXzXaXVXZ   @ 4 4.5.8.y.8.8.",
"8.7.8.8.8.5.8.l.b @ ; > ; : ; > : : % @ . o H.yX3X2X2X2X7X7X7XjXhXhXhXgXgXvXvXhXgXhXhXgXzXgXhXhXgXgXhXsXnXR.o   a e.u.7.8.6.8.7.",
"8.8.8.8.7.7.0.3.f.[ , : > : : : : > @       * &XeX7X7X7X7X7X7X8XjXhXhXhXhXhXgXkXkXzXgXzXhXhXlXhXzXgXdXnX;X$   k 3.9.7.i.y.8.8.8.",
"8.8.8.8.8.8.8.7.8.N.| % % : : : : O   * Q.U   6 =XyX7X7X7X7X7X2X8XjXzXhXhXhXhXhXhXzXgXhXfXhXzXhXgXhXNX^.=   z u.>.7.8.6.8.8.8.8.",
"5.8.7.8.y.7.9.j.i.] *     . : > @   5 :XnXvXG   5 J.wXeX7X3X7X2X7X7XuXhXhXhXhXhXhXhXhXgXfXdXgXzXnXaXU o   z M.>.O.<.i.8.8.8.8.8.",
"8.8.8.y.>.0.e.h 1 . O J M   . .   - >XbXsXfXbXI     N ~.8XeXeXwX7X7X3X8XuXgXgXdXgXhXhXzXmXnXbX,XD.-   O [ 9.y.r.<.8.7.8.5.8.5.8.",
"8.8.8.<.>.=.2   & * I.nX8XN +   o !.bXsXgXdXdXnXQ.9     q L ~.1X6XqXeXwXwXiXcXmXmXzXMXpX*XD.M &   o h #.j.7.i.5.9.8.8.8.8.8.8.8.",
"8.8.8.>.>.v   Z pXpXbX7X2XuXM   S.BXvXnXnXbXhXuXbXlXT.e       + 6 n B H L Z.L H F m 9 *       $ x O.k.9.7.i.5.8.y.8.y.8.8.8.8.8.",
"8.8.8.7.m.v   I.NXhXjX6XrX$Xo 9 MX:XE.I.E.:XxXbXkXgXnXvX>XG.A 9 O                   o $   g +.r.M.f.5.8.7.9.0.5.7.8.7.8.8.8.8.8.",
"8.i.8.7.M.z   Y VXgXtX2XeXK   e w           7 S.aXvXsXhXbXnXbXzXpX>X%XW.E.E.E.W.^.;XfXD.  [ N.0.7.8.5.8.8.8.8.8.5.8.8.7.8.8.8.8.",
"7.8.8.u.#.X o *XvXzX8X2X8X6     o w K C.L n +   5 *XVXdXhXdXdXhXvXvXbXnXnXnXnXnXbXvXnXD.  h e.9.5.r.8.5.8.8.7.8.8.8.8.8.8.8.8.8.",
"8.5.5.j.o.o A NXsXfX8XrXJ.    B &XwXeXyXyXwX-XB   + W.NXdXhXhXhXhXgXgXgXdXdXdXdXfXdXnXJ   o . 2 h +.j.8.8.8.8.8.8.7.8.8.8.8.8.8.",
"8.8.5.9.O.  9 ,XbXsXwX=X=   A.yXwX2X2X6X6X2X0XeXF.  * >XvXfXhXhXhXhXgXhXzXzXhXhXfXgXvXe   B 6     # +.j.8.8.8.8.8.8.8.8.5.8.8.8.",
"8.8.8.8.j.g   + W.cXwXN   P yX2X2X7X7X7X7X7X2X6XiXC.  M bXgXhXhXhXhXhXhXuXuXjXhXfXzX>X  6 tX2X=XL   1 t.9.8.8.8.8.8.8.8.7.8.7.8.",
"8.8.8.8.6.4.T   e NX$X  6 8X7X2X7X7X7X7X7X7X7X8X2X8Xq   *XbXgXkXzXkXgXtX7X6X6XqXcXNXJ   P eX2XqXtXN   ] i.7.8.i.>.2.8.8.8.8.8.8.",
"8.6.8.8.8.x.`.-   D.H   A.eX2X7X7X2X7XqX7X7X2X7X2XyXF.  U bXgXgXgXvXyX2XqX7X7XqX%XD.. * 1XqX8X3XeXD.  x 7.5.7.y.X.7.u.5.9.5.8.8.",
"8.8.8.8.<.#X@X%.O     . $XrX7X7X7X7X7X7X7X7X7XqX7XqX&X  m bXzXhXhX5X<XqX7X2X2XqXw     K.iX2X2X3XyXL   v 2.@.2.7.@.2.y.y.7.7.8.8.",
"8.f.8.g.7.t.p.z.o.c # o 1XqX6X7XqX7X7X7X7XqX7X7X7XqX1X+ 9 zXkXkXzXw 6 8X6X7X2XeXB   O P $X6XwXyXL.& X o.>.X.1.,.>.{ 7.<.@.8.8.7.",
"8.8.8.8.8.8.r.<.h.z.2 o 1XqX7X2X7X7X7X2X7X7X7X7X7XqX1Xo 9 zXgXgXzXw o &XqX7X7XeXJ.  .   o 5 M n o   v 3.X.X.X.X.2.{ X.>.<.8.8.8.",
"8.8.8.8.8.9.2.>.6.u.0   $XrX2X7X7X7X7X7X7XqX7X2X2XwX$X  9 kXbXsXNXU   F.eX2X6X7X3X5   k 0 @     % [ k.<.7.7.2.<.9.5.7.<.5.8.7.8.",
"8.8.8.7.8.9.7.X.y.u.z   A.eX3X6X7X7X7X7X7X7X7X7X2XwXL.    - Q.bXbX*X  M wX2X7X7XeXH.  e p.(.o.O.y.d.6.9.7.8.8.9.7.7.8.7.7.7.8.8.",
"8.8.8.8.7.>.3.O.@.1.+.o 7 9X2X2X7X7X2X7X2X7X7XqX7X7X6XJ.A o   Q.NX^.-   $XwX7X7X2XeXM   Y.x.l.l.u.8.8.8.8.8.8.8.8.8.5.8.8.8.8.8.",
"8.8.8.8.8.#.{ O.X.X.1.d   H iX7X2X7XqX7X7X7X7X7XqX2XqXwXiXF.  - M   o   B tX2X7X2XeXH.  Y z.q.6.6.8.8.7.8.8.7.8.8.8.8.8.7.8.8.7.",
"8.8.8.8.8.5.>.7.y.2.7.#.$   C.yXqX7X7X7X7X6X2X2X2X2X2X3X3XyXB     1 D 2   L.eX2X3XiXA.  v k.y.8.8.6.8.8.8.8.8.7.8.8.7.8.8.8.5.8.",
"8.5.8.8.8.8.8.8.8.8.5.m.o.X   V $XwXqX7X7XeXeXyXyXyXyXtXeXiXL.  g u.M.[   5 =XyXyX=X=   o.9.3.8.7.8.8.8.8.8.7.9.8.8.8.8.8.8.8.8.",
"8.8.8.5.8.8.8.8.8.8.8.8.k.o.2     n =XrX4XZ.H K K H K K H K V   x M.2.u.h   - F C =   j j.5.8.8.8.8.8.8.8.7.7.8.5.9.8.8.8.8.8.8.",
"8.8.8.8.8.8.8.8.8.8.y.8.6.j.y.v 1 o Y._.U.                    # o.s.8.9.i.j       o x i.6.6.8.8.8.8.8.8.8.8.8.8.8.7.7.8.8.8.7.8."
};
