/* XPM */
static char *_959e76d9d5b49d3f6a2048416d9b20b99PsIySTnJziaDCa[] = {
/* columns rows colors chars-per-pixel */
"64 64 232 2 ",
"   c #000100",
".  c #0A0B05",
"X  c #07090A",
"o  c #0A0C0C",
"O  c #050606",
"+  c #0F1109",
"@  c #14130A",
"#  c #191C0D",
"$  c #15160A",
"%  c #0A0E11",
"&  c #0D1112",
"*  c #0D171D",
"=  c #111315",
"-  c #161A1B",
";  c #191B19",
":  c #100F0B",
">  c #201F12",
",  c #1D2113",
"<  c #272A15",
"1  c #2D3318",
"2  c #34381B",
"3  c #1B2124",
"4  c #1E282E",
"5  c #252B2D",
"6  c #242929",
"7  c #242F33",
"8  c #293336",
"9  c #33383A",
"0  c #3B3720",
"q  c #121B20",
"w  c #403C22",
"e  c #3A431D",
"r  c #3E4721",
"t  c #444E23",
"y  c #424026",
"u  c #4B5726",
"i  c #515E2B",
"p  c #535131",
"a  c #57642C",
"s  c #5D6A31",
"d  c #696939",
"f  c #647333",
"g  c #6B7B35",
"h  c #6B7C3A",
"j  c #74693C",
"k  c #404B1E",
"l  c #333D43",
"z  c #394448",
"x  c #3D535B",
"c  c #354750",
"v  c #3D5865",
"b  c #414A4C",
"n  c #4B4A49",
"m  c #454F53",
"M  c #4A555A",
"N  c #545859",
"B  c #777342",
"V  c #525D62",
"C  c #495B62",
"Z  c #58646A",
"A  c #4C6773",
"S  c #596D75",
"D  c #55717C",
"F  c #48626B",
"G  c #616F74",
"H  c #67757A",
"J  c #6A6A6A",
"K  c #887B46",
"L  c #73843A",
"P  c #7A8B3C",
"I  c #76883C",
"U  c #7C8C40",
"Y  c #91AB3E",
"T  c #879A44",
"R  c #999654",
"E  c #8E884E",
"W  c #A19E59",
"Q  c #A08C50",
"!  c #8DA144",
"~  c #95AB4A",
"^  c #92A849",
"/  c #9EB946",
"(  c #9CB44B",
")  c #9AB446",
"_  c #98AF52",
"`  c #A1BC46",
"'  c #A3BD4C",
"]  c #A3BC51",
"[  c #A0B750",
"{  c #AFA55E",
"}  c #8B9A68",
"|  c #ADBD6B",
" . c #99A070",
".. c #CFBA6A",
"X. c #A6C14D",
"o. c #A9C44E",
"O. c #ADCA4F",
"+. c #BAD84D",
"@. c #A7C152",
"#. c #AAC553",
"$. c #AEC954",
"%. c #AFCA59",
"&. c #ACC459",
"*. c #B1CC55",
"=. c #B3CD5A",
"-. c #B4C85A",
";. c #B6D355",
":. c #BAD455",
">. c #B6D25B",
",. c #B8D45B",
"<. c #BEDB5D",
"1. c #BBD952",
"2. c #B1CB4C",
"3. c #B4CC63",
"4. c #B6C968",
"5. c #BAD462",
"6. c #BAD563",
"7. c #B9C877",
"8. c #ADC466",
"9. c #C1DD5E",
"0. c #C4C757",
"q. c #C5E257",
"w. c #C2DD61",
"e. c #C1D767",
"r. c #C6C978",
"t. c #C5D37C",
"y. c #D0CB70",
"u. c #EACC74",
"i. c #E9D679",
"p. c #F4D679",
"a. c #FADE7D",
"s. c #C4E161",
"d. c #C9E664",
"f. c #D1E76D",
"g. c #E9E67F",
"h. c #587887",
"j. c #5D7F90",
"k. c #6E7C84",
"l. c #74848B",
"z. c #748488",
"x. c #688B9B",
"c. c #7B8C94",
"v. c #798B96",
"b. c #7C9199",
"n. c #6A919D",
"m. c #6C95A9",
"M. c #7195A5",
"N. c #78A4B8",
"B. c #7CABC3",
"V. c #82939D",
"C. c #999998",
"Z. c #8699A3",
"A. c #8DA1AA",
"S. c #97ABB6",
"D. c #9DB2BD",
"F. c #95A7AD",
"G. c #A6B5B9",
"H. c #AEB0B1",
"J. c #B5BF82",
"K. c #B8C782",
"L. c #BEC592",
"P. c #C2CC84",
"I. c #CBD494",
"U. c #CCD79B",
"Y. c #CAD291",
"T. c #EDE782",
"R. c #F5EE86",
"E. c #FBE984",
"W. c #F7F188",
"Q. c #FAF389",
"!. c #FFFC8E",
"~. c #F8F087",
"^. c #FFFF91",
"/. c #D5DAA7",
"(. c #D5D9B6",
"). c #CFD4B2",
"_. c #D8E0B9",
"`. c #E3EABD",
"'. c #86B6C9",
"]. c #90B5C9",
"[. c #A4BAC6",
"{. c #95C4D9",
"}. c #8EC1DB",
"|. c #ABC3CD",
" X c #B5C2C3",
".X c #B3CBD6",
"XX c #B2C9D7",
"oX c #BAD3DD",
"OX c #9AD3EC",
"+X c #9EDAFB",
"@X c #9BD6F6",
"#X c #93C9E2",
"$X c #BBD4E3",
"%X c #B9DBE9",
"&X c #A2DCFC",
"*X c #A9DDF7",
"=X c #AAD6ED",
"-X c #A5E3FF",
";X c #AAE5FE",
":X c #ACEBFF",
">X c #A9E5FB",
",X c #B3EDFF",
"<X c #B9E4FA",
"1X c #B2F3FF",
"2X c #B8F7FF",
"3X c #AFF0FF",
"4X c #D7D8CF",
"5X c #DCE1C0",
"6X c #E8EDC8",
"7X c #C3DDEB",
"8X c #C3DEE1",
"9X c #DDDFE0",
"0X c #C7E2EA",
"qX c #C5E1F1",
"wX c #CBE5F6",
"eX c #CEE9F5",
"rX c #CCE7F8",
"tX c #CEE9FA",
"yX c #C3E7FC",
"uX c #D2ECFC",
"iX c #D4ECF8",
"pX c #C9F5FF",
"aX c #D5F2FE",
"sX c #D9F5FF",
"dX c #DCFAFF",
"fX c #E3F3FC",
"gX c #E1FDFF",
"hX c #EAF9FD",
"jX c #F3FAFD",
"kX c #FEFFFF",
"lX c #F1F4F6",
"zX c #EFEFEF",
/* pixels */
",.,.,.,.,.,.,.,.,.,.,.,.,.,.s.$.U u 2 2 u P -.s.,.,.,.,.,.,.,.,.,.;.,.;.<.;.;.;.:.6.s.~ f e 2 e f ^ 9.9.>.>.,.,.>.;.6.1.6.;.,.,.",
",.,.,.,.>.,.,.>.>.,.,.>.,.<.g $         O   # L 9.,.,.,.,.,.,.,.,.,.,.,.3.Y.3.K.e.' e O           O e ' <.>.;.,.;.<.;.%.O.:.,.,.",
",.,.,.,.,.:.,.,.,.,.>.,.,.e     5 Z.S.D.b.z O   t ,.,.>.,.6.,.>.,.,.,.,.3./.7.6X} .   = S A.S.S.H X   . ! w.>.,.6.<.7.).6X3.,.,.",
",.,.,.,.,.,.,.,.,.,.;.9.k   O   = c.gXsXsXdXG.3   u w.=.>.,.6.,.,.,.,.;.6.U.P. ..   M 0XgXaXgX8Xm       . ~ <.>.;.7.5X3.U.3.;.,.",
",.;.,.,.,.<.:.>.*.,.s.P   @ R d .   b tXrXrXdXoX-   T ,.' =.,.,.,.,.,.;.3.I.L.9   V sXuXqXsX[.=   < E d   < <.>.,.3.r./.8.6.>.,.",
",.;.0.,.,.o.e.o.` ,.5.<   R ^.!.t.<   M aXtXqXdXA.  1 O.o.o.5.,.,.,.,.,.>.<.P O 6 0XuXqXaX.X=   B Q.^.^.w   P s.,.,.7./.7.6.,.,.",
",.,.5.,.,.` ] -.) ' !   ; T.R.T.^.i.<   z.dXrXwXuX8   T ;.-.>.>.,.,.,.,.>.9.e O z.gXwXuXeX8   d !.R.T.^.{   r 9.*.1.,.3.5.;.,.,.",
",.,.,.,.:.o.] o.3.:.f O p !.R.W.T.^...  O |.aXqXgXH   f w.,.,.,.,.,.,.>.<.#..   .XuXwXdXH   w W.R.R.R.W.i.O , ,.,.:.+.1.,.;.>.,.",
":.+.:.,.8.:.<.:.:.d.g   j ^.R.R.W.R.^.K   z aXrXsX[.  < ,.>.,.,.,.>.,.;.s.P   9 aXwXaX|.O O y.!.R.R.R.W.T.$ . #.e.>.9.-.5.:.,.,.",
"5.:.;.7._.8.:.,.-.d.g   d !.R.R.~.R.R.R.1   F.sXrXiX5   ( 9.>.,.,.,.,.>.s.t   z.dXqXsXm   E ^.R.R.R.R.W.g.@ + -.,.,.,.6.,.:.,.,.",
"3.:.r.r.y.P.7.<.:.e.T   2 Q.R.R.W.R.R.!.{   9 uXrXdXG   h s.>.:.:.,.>.,.;.#   |.aXaX[.  , T.W.R.R.~.R.!...  1 ,.:.:.,.3.,.,.,.,.",
"+.=.I./.0.I.7.:.:.9.] @   y.!.R.R.R.R.R.W.0   S.aXsXF.  t 9.>.,.,.,.,.<.~   3 wXrXsXM   E !.R.W.~.R.R.^.B   f s.>.>.,.,.,.,.,.,.",
",.+.*.7.5X| ,.:.,.>.s.u   B ^.R.~.R.~.R.!.W   b aXtXXXO # >.>.>.>.>.>.9.L   x pXtX.XO $ T.W.R.R.W.R.~.R.<   ( <.>.:.,.>.,.,.,.,.",
"e.>.,.3.-.6.,.:.,.:.9.T   > T.~.R.R.R.R.Q.T.;   {.>X@X4   @.d.s.w.w.9.f.i   h.-X,XD   B ^.R.R.W.R.R.^.R   e <.>.>.,.,.,.,.,.,.,.",
",.:.:.:.6.6.:.,.5.,.:.,.1   R ^.R.R.R.R.R.Q.j   h.3X3Xx   h T g f f L ! <   A.1X*X3   ..Q.W.W.R.R.R.!.R   T 9.>.,.,.,.,.,.,.,.,.",
"5.,.,.:.0.,.,.,.,.,.;.s.L   2 R.R.R.~.R.p.p...  4 '.x.3         O           c N.m.  0 p.u.p.W.W.R.R.R.R.$.<.;.5.>.,.,.>.,.,.>.,.",
",.,.,.,.,.>.,.,.,.,.,.,.=.<   W ^.R.a.u.u.a.a.1   O     = z Z H z.z.H M 8 X     .   K E.u.u.p.E.R.~.!.f.,.,.5.,.:.,.>.,.,.>.,.,.",
",.:.,.,.,.,.,.,.,.,.,.=.s.g   1 W.p.u.u.a...p O   ; H [.7XaXdXdXdXdXdXsXuXoXA.m X   @ K p.p.u.u.Q.r.2 ^ 9.>.-.=.,.,.,.,.,.,.,.,.",
",.,.,.,.,.,.,.,.,.,.,.,.,.=.<   E a.u.a.Q :   ; c.qXdXaXuXrXwXwXwXwXwXrXrXuXsXdXXXV .   0 ..a.u.p.2   P q.$.5X7.,.,.,.,.,.>.>.,.",
",.,.,.,.,.,.,.,.,.,.,.,.,.$.L   + ..E.j     F qXgXtXrXrXrXtXtXtXtXeXtXrXuXrXrXrXuXgX[.8   > { Q.K   2 e.3.7./.7.>.,.,.,.,.,.,.,.",
",.,.,.,.,.>.6.,.>.-.,.-.,.o.*.2   p j   : m.2XuXrXrXtXtXtXtXuXtXtXtXtXtXtXtXtXtXiXwXaXuXV   @ K @   ^ 9.7.6X| /.7.,.,.>.,.,.,.,.",
",.,.,.,.;.:.3.-.t.I.>.9.e.*.,.[ +     o '.:X<XiXtXtXtXtXtXtXtXtXuXrXtXtXtXrXtXtXrXtXrXrXdXH   O   s 9.>.>.7.K.I.6.;.6.>.,.,.,.,.",
",.,.,.,.,.$.(./.r.(.-.:.:.-.#.d.a   o '.;X&XrXiXuXtXtXtXtXtXtXtXtXtXtXtXtXuXtXtXuXtXiXrXrXdXG   + $.9.:.0.,.,.;.,.>.>.6.,.,.,.,.",
",.,.,.,.5.=.I.I.U.| :.,.,.,.e.[ .   n.:X+X*XiXrXtXtXtXtXtXtXtXtXtXrXuXtXtXtXtXtXrXtXrXrXrXrXaXz   i 9.,.<.,.,.;.,.>.>.>.,.,.,.,.",
",.,.,.,.,.;.7.J.(.t.+.>.,.,.w.t   x :X+X&X<XtXtXtXtXtXtXtXtXtXtXtXtXuXrXtXtXtXtXtXtXtXtXtXwXaXoX&   ~ w.>.>.6.>.>.,.>.;.,.,.,.,.",
",.;.,.,.,.7./.I.| =.,.,.>.w.~   o {.-X&X+X<XrXwXwXtXtXtXtXtXtXtXtXtXtXtXtXtXuXtXwXrXwXwXtXtXrXdXz.O t 9.;.X.>.>.>.>.X.6.>.,.,.,.",
",.,.:.,.4.(.0.y.(.=.:.,.,.s.u   F ,X&X&X+XyXdXdXsXrXtXtXtXtXtXtXuXtXtXtXtXtXrXrXuXdXdXaXtXtXrXuX0X=   ( <./ >.>.6./ o.,.6.>.6.>.",
",.,.:.5.6.&.I.U.8.,.,.>.,.$.$   '.-X&X&X;X%XV.G F.aXuXtXtXtXtXtXrXtXtXtXuXrXrXaX7Xl.H D.sXtXtXwXdXS O g ;.X.6.>.*.X.*.6.X.>.6.,.",
",.,.,.,.,.,.K.P.>.:.5.>.9.T   7 -X&X&X&XOX8   O   Z uXwXtXtXtXtXrXtXrXuXrXrXuX$X3   O   k.sXrXrXsX[.  1 %.#.6.>.#.#.6.#./ ,.>.>.",
"0.,.,.,.,.,.>.>.,.,.,.>.w.f   F :X+X&X:Xh.  l Z.-   [.sXrXtXtXtXaXuXrXrXtXrXsXZ   m c.o O .XuXrXuX7X= . @.] %.$.%.%.%.X.=.6.,.>.",
",.,.,.,.,.9.,.:.:.5.,.>.w.t   x.:X&X@X,XM   [.jXk.  Z.sXrXtXuXtXoX$XuXuXrXrXaXl   oXjXV   G.sXwXrXsX9   _ ' ) #.6.) @.%.@.X.6.,.",
",.,.,.,.,.:.-.,.5.>.>.>.9.2   N.;X&XaXkX4XC.hXiX$Xv.7XuXrXuX7X6     H aXrXuXuX[.Z.tXfX4XC.jXjXsXrXdXm   ! ;.@.#.6./ =.X./ ` o.6.",
",.,.,.,.>.>./ 5.6.o.#.6.>.<   B.:XhXkXkXkXkXkXkXsXdXuXrXrXuXqXV o - Z.uXtXtXtXaXsXjXkXkXkXkXkXkXfXsXV   T s.,.,.,.,.,.,.,.o.o.,.",
",.,.,.<.,.5./ =.6.o.@.%.6.<   B.sXkXkXkXkXkXkXkXjXwXtXtXuXuXsXsX$XqXgXuXtXtXtXrXiXkXkXkXkXkXkXkXkXsXV   T s.;.>.:.,.;.,.,.,.6.,.",
",.,.>.6.o.#.#.#.6.#.@.) >.2   m.gXkXkXkXkXkXkXkXkXuXtXtXrXrX[.0XgXgXXXXXuXrXtXrXfXkXkXkXkXkXkXkXkXgXz   ^ 6.;.>.,.,.,.,.,.;.<.,.",
";.,.>.>.;.X./ ( Y @.X.) o.e   j.pXkXkXkXkXkXkXkXjXrXtXwXsXF.  z D.V.o 3 rXuXrXtXuXkXkXkXkXkXkXkXjXeX6   ] <.,.,.>.,.,.,.,.,.,.,.",
",.,.,.,.,.%.' 5./ #.$.=.9.g   z :XiXkXkXkXkXkXjXiXtXtXrXuX$X7         G uXtXtXtXwXfXkXkXkXkXkXkXfX|.  < ,.,.,.,.,.,.,.,.,.,.,.,.",
",.,.,.>.>.>.>.,.,.,.,.>.e.[   o {.-X<XaXhXfXtX&X<XrXtXtXtXaXwXc.C Z D.sXtXtXtXtXtXtXuXhXjXjXfXrXdXG   s s.>.,.,.,.,.,.;.,.,.,.>.",
",.,.,.,.,.:.,.:.,.,.,.,.>.w.2   D 2X+X+X&X+X+X&X&XyXtXtXtXrXtXdXsXsXsXrXuXtXtXtXtXtXtXtXrXtXwXuXoXo O ' 9.>.,.,.,.,.,.,.,.,.,.,.",
";.,.;.>.,.,.>.:.,.,.,.,.>.w.^   X '.;X&X&X&X&X&X&X&XyXtXtXtXtXwXrXrXwXtXtXtXtXtXtXtXtXtXtXrXuXuXz   a s.;.,.,.>.%.,.,.,.,.;.>.,.",
",.,.;.,.,.>.,.,.,.,.,.,.,.,.9.i   4 OX;X+X&X-X&X-X&X&XyXuXtXtXtXuXrXtXtXtXtXtXtXtXtXtXtXrXaXaXC O < >.6.>.,.>.=.o.;.,.,.;.,.,.,.",
",.,.6.,.6.,.;.6.,.,.,.:.9.4.7.7.1   7 }.:X&X+X+X&X&X&X&X<XtXtXtXrXuXtXtXtXtXtXtXeXrXrXuXdX$Xr O $ ] 9.;.;.>.6.@./ $.6.,.;.,.,.,.",
",.,.,.,.#.;.,.,.,.,.,.:.4.| /.U.&.6   & x.-X:X;X+X+X&X&X+X*XtXuXuXuXrXrXrXrXrXrXuXaXsX0Xl.=   < / w.>.;.,.6.6.=.%.>.>.,.<.;.,.,.",
",.,.,.%.` O.6.,.,.,.,.-.(.6X0.Y.6.,.p X   3 h.{.;X3X;X;X-X-X&X<XwXuXuXuXaXsXsXsXtX[.G -     i >.9.>.,.,.;.,.6.6.6.6.>.,.;.,.,.,.",
"<.>.5.$.` $.<.>.,.,.,.:.6.L.r.`.8.1.s.^ 1     O 8 A m.B.}.OX@X+X&X*X%X$X[.S.l.M ;   O O e ~ w.,.>.,.,.,.>.>.>.;.,.>.<.>.6.,.>.,.",
",.,.>.,.>.,.,.>.,.,.:.:.5.3.4.3.5.,.3.<.s.a   &           X * - - * %           . z z   ( d.;.>.,.>.,.;.<.>.;.<.,.>.>.6.>.,.,.,.",
",.,.,.>.,.,.;.,.,.5.,.,.5.,.,.<.,.,.>.,.o.@   '.].m.A c 7 3 % + o @ < 7 z V k.[.$XdX X  u 9.;.,.,.,.;.,.,.,.,.>.,.,.,.>.>.,.,.>.",
",.,.,.,.,.,.,.1.,.5.,.,.,.,.,.,.,.,.>.s.f   c :X-X2XpXpX;X>X*XqX0X8XrXuXsXgXdXsXuXtX0X- @ ;.,.,.#.=.,.,.,.,.>.;.<.>.>.;.<.,.,.,.",
",.>.,.,.,.,.:.:.,.:.>.,.,.,.,.,.,.>.,.,.<   m.-X*XeXeXwXrXeXuXuXtXuXtXtXwXwXrXtXrXqXdXN   T w.=./ @.6.,.,.<.,.,.,.>.,.,.,.,.,.,.",
",.,.,.,.,.,.,.e.-.:.,.,.,.,.,.,.,.>.<.T   - OX<XaXeXiXiXtXtXrXrXtXtXtXtXeXwXrXtXtXaXdXZ.  i s.=.#.%.,.,.,.,.,.,.,.,.,.;.,.,.,.,.",
",.,.>.,.,.5.-.4.e.:.,.,.,.,.,.,.,.>.<.t   C 3X].XXuXrXrXtXtXtXtXtXtXtXtXtXtXtXuXqXS.sX.X  # :.,.,.6.;.,.,.>.,.,.,.;.,.,.,.,.,.,.",
",.,.;.,.,.-.U.U.-.6.5.,.,.,.,.,.,.,.o.@   N.2X6 V.sXrXtXrXuXtXtXtXtXtXtXtXtXtXuX%X& [.sX5   ~ 9.>.,.,.#.>.,.,.5.o.$.6.,.,.;.,.,.",
",.,.,.,.,.7.r.P.7.;.1.>.,.,.,.,.>.d.g   % #X*XO V.sXrXrXtXtXrXiXfXuXtXtXtXtXtXuX7XO Z.gXl   L d.>.>.,.' $.,.;.>./ >.6.;.,.,.,.,.",
",.:.,.9.-.`.U./.).=.;.,.,.,.>.>.s.f     h.;X=X  V.gXrXtXeXrXuXkXkXkXsXrXtXtXtXuX8X  V.wX@   1 *.6.#.` -.#.' =.=.` =.,.6.;.,.,.,.",
",.,.0.,.:.4.7.7.3.,.>.,.,.,.;.6.T     x.;X;X8X  c.gXwXtXtXsXjXkXkXkXkXgXuXtXtXuX$X  l.gXS.=   < =.5.o.] ' / @.#.@.) >.#.` ;.>.,.",
",.,.,.,.>.;.=.>.1.,.,.,.,.,.,.<.<   A :X@XtX7X  S sXwXeXtXV G.kXkXkXzXN [.aXrXaX|.  V.sXsX.X;   u s.*.o.( [ ) ` %.Y / #.=.6.,.,.",
";.<.>.>.>.<.O.X.,.6.6.*.>.>.w.^   o #X-X<XuXeX= z ,XeXwXuX6 ; zXkXkXJ   ].aXwXsXM.  D.sXqXgXZ.  + ' 6.#.>.>.>.O.<.=.>.#.>.,.,.>.",
",.>.,.>.>.6.>./ 6.>.%.) >.6.s.L   8 -X&XrXrXaXz % OX<XeXdXb.  C.kX9X  l :XyXeXpXv   $XuXrXuX.XX   ! s.>.>.;.>.6.>.;.,.>.;.,.,.,.",
">.,.>.<.>.] 3.X.@.] &.( #.%.%.s   x -X*XtXrXsXl.  N.;X<XsX|.  N kXH.  h.:X<XyX*X& 9 aXeXrXaX[.    T s.>.,.>.;.,.,.>.>.>.,.>.,.,.",
",.,.>.<.;.] ^ / ) ( @.) ) ) O.s   x :X<XuXrXaX.X  c 1X&X<XOX  n kXH.  M.;X=X,Xm.  l.dXwXrXdXc.  O ( w.>.,.,.>.>.,.,.<.;.>.;.<.>.",
",.,.,.,.>.>.#.>.6.=.;.*.#.#.=.L   8 :X*XwXrXwXaXm   h.-X1X'.  J kX X  S 2X:XB.& o $XuXrXuXeX5   < ,.,.:.,.,.,.>.>.,.,.>.,.,.>.<.",
">.,.<.>.<.;.,.,.;.,.;.<.,.6.6.^   O N.:XpXdXdXgX%X7   7 D 4    XkXfX6   A c O . S.gXsXuXdXk.    L w.,.,.,.>.>.<.<.,.,.,.,.,.>.>.",
";.,.>.>.,.,.,.>.,.,.,.>.,.>.>.<.t   O z A z.c.l.x.D o       6 b.l.b.M         c b.b.S.XXuXm   i ,.,.,.,.>.,.,.,.>.>.;.>.,.,.>.<.",
"<.,.,.>.,.>.,.,.,.,.,.,.,.,.;.6.>.u                   O O         O     O O           % } 7.! 9.,.,.,.,.;.<.>.,.,.>.<.>.,.>.>.>."
};
