/* XPM */
static char *_c4a1cf134eb45f3faa7c1d298dcfb6a9TvnoZezMWn38ZbW[] = {
/* columns rows colors chars-per-pixel */
"64 64 237 2 ",
"   c #000000",
".  c #090604",
"X  c #0B0A05",
"o  c #07090A",
"O  c #0A0C0C",
"+  c #050607",
"@  c #1A0300",
"#  c #1C0D04",
"$  c #130C07",
"%  c #0F1109",
"&  c #16160B",
"*  c #0A0E11",
"=  c #0D1214",
"-  c #111415",
";  c #15191B",
":  c #191B19",
">  c #220E05",
",  c #251106",
"<  c #281408",
"1  c #2E1C0D",
"2  c #1D2114",
"3  c #282A16",
"4  c #2C3317",
"5  c #34371B",
"6  c #362413",
"7  c #1B2124",
"8  c #1D282D",
"9  c #252A2B",
"0  c #242E33",
"q  c #293336",
"w  c #33393A",
"e  c #3B3720",
"r  c #121B20",
"t  c #531D09",
"y  c #471A09",
"u  c #4B230D",
"i  c #56240C",
"p  c #59270E",
"a  c #5B290F",
"s  c #5B2B12",
"d  c #5F2E1D",
"f  c #5A331B",
"g  c #442E19",
"h  c #602F16",
"j  c #423A24",
"k  c #673E22",
"l  c #3A431D",
"z  c #3E4720",
"x  c #3C4136",
"c  c #454A22",
"v  c #4B5726",
"b  c #57532A",
"n  c #724D29",
"m  c #5D6931",
"M  c #676A37",
"N  c #687635",
"B  c #746C3B",
"V  c #64451C",
"C  c #333D43",
"Z  c #394448",
"A  c #3A4D56",
"S  c #384B54",
"D  c #3D5865",
"F  c #444A4C",
"G  c #454F53",
"H  c #4A555A",
"J  c #545859",
"K  c #757441",
"L  c #525E63",
"P  c #485A61",
"I  c #59646A",
"U  c #4C6773",
"Y  c #596D75",
"T  c #4E6872",
"R  c #616E74",
"E  c #67757A",
"W  c #6A6A6A",
"Q  c #864D2D",
"!  c #964E2D",
"~  c #965432",
"^  c #985633",
"/  c #9B5934",
"(  c #965C39",
")  c #974F31",
"_  c #A25C37",
"`  c #95713C",
"'  c #877A46",
"]  c #9D7145",
"[  c #A36B56",
"{  c #76873B",
"}  c #76893C",
"|  c #7D8C44",
" . c #87873C",
".. c #91AC3E",
"X. c #869844",
"o. c #999754",
"O. c #8E894C",
"+. c #A39C57",
"@. c #A38C4E",
"#. c #96AA49",
"$. c #9CB549",
"%. c #90A44C",
"&. c #A3BD4C",
"*. c #A1BC46",
"=. c #A8A659",
"-. c #A4BC52",
";. c #AEB25A",
":. c #B6B05D",
">. c #8B9A69",
",. c #A7B26D",
"<. c #CFBA6A",
"1. c #A6C14D",
"2. c #AAC44E",
"3. c #BAD84D",
"4. c #AAC552",
"5. c #ADC953",
"6. c #ACC458",
"7. c #B1CD55",
"8. c #B3CD5A",
"9. c #B2C75A",
"0. c #B5D355",
"q. c #BAD455",
"w. c #B6D25B",
"e. c #B8D45B",
"r. c #BCDA5D",
"t. c #B5CD4B",
"y. c #B4CC62",
"u. c #B6C967",
"i. c #BAD462",
"p. c #BDDC62",
"a. c #B7D364",
"s. c #BAC977",
"d. c #B6CF6D",
"f. c #BEE062",
"g. c #C1DD5F",
"h. c #C8C458",
"j. c #C6E35D",
"k. c #C2DE61",
"l. c #C6D66A",
"z. c #CDCF74",
"x. c #EACC74",
"c. c #F4D679",
"v. c #FADE7D",
"b. c #E9D679",
"n. c #C4E261",
"m. c #C9E665",
"M. c #D0ED65",
"N. c #EAE67E",
"B. c #587988",
"V. c #6E7C84",
"C. c #74848B",
"Z. c #748488",
"A. c #678B9B",
"S. c #7B8C94",
"D. c #798B96",
"F. c #7D919A",
"G. c #6A909D",
"H. c #6C95A8",
"J. c #7297A8",
"K. c #78A5B8",
"L. c #7BA9C2",
"P. c #83949D",
"I. c #999998",
"U. c #8699A3",
"Y. c #97ABB6",
"T. c #9DB2BD",
"R. c #90A3AB",
"E. c #A5B6BB",
"W. c #AEB0B1",
"Q. c #B5B884",
"!. c #B7C481",
"~. c #CCD699",
"^. c #C5CE8D",
"/. c #EDE782",
"(. c #F5EE86",
"). c #FBE984",
"_. c #F7F188",
"`. c #FAF389",
"'. c #FFFC8E",
"]. c #F8F087",
"[. c #FFFF91",
"{. c #D6DBA7",
"}. c #CFD2AF",
"|. c #D8E1B8",
" X c #E2E9BC",
".X c #85B6C8",
"XX c #90B5C9",
"oX c #A4BAC7",
"OX c #94C5DA",
"+X c #8EC1DB",
"@X c #ABC2CC",
"#X c #B5C3C3",
"$X c #B3CBD6",
"%X c #B2C9D7",
"&X c #BAD2DD",
"*X c #9AD3EC",
"=X c #9EDAFB",
"-X c #9BD6F6",
";X c #94CAE3",
":X c #BBD4E3",
">X c #B9DBE9",
",X c #A2DCFC",
"<X c #A9DDF7",
"1X c #AAD6ED",
"2X c #A5E3FF",
"3X c #AAE6FE",
"4X c #ACEBFF",
"5X c #A9E5FB",
"6X c #B7E6FB",
"7X c #B5F5FF",
"8X c #AFF0FF",
"9X c #D7D8D0",
"0X c #E7ECC9",
"qX c #C3DDEB",
"wX c #C3DEE1",
"eX c #DDDFE0",
"rX c #C7E2EA",
"tX c #C5E1F1",
"yX c #CBE5F6",
"uX c #CEE9F5",
"iX c #CCE7F8",
"pX c #CEE9FA",
"aX c #C3E7FC",
"sX c #D2ECFC",
"dX c #D4ECF8",
"fX c #C9F5FF",
"gX c #D5F2FE",
"hX c #D9F5FF",
"jX c #DCFAFF",
"kX c #E3F3FC",
"lX c #E1FDFF",
"zX c #EAF9FD",
"xX c #F3FAFD",
"cX c #FEFFFF",
"vX c #F1F4F6",
"bX c #EFEFEF",
"nX c #DCE1C0",
/* pixels */
"e.e.e.e.e.e.e.e.e.e.e.e.e.e.n.5.| v 5 5 v } 8.n.e.e.e.e.e.e.e.e.e.e.e.0.r.0.0.r.0.f.j.#.N l 5 l N #.j.r.w.w.e.e.w.0.a.3.a.e.e.e.",
"e.e.e.e.e.e.e.e.e.q.e.e.e.r.N &             & { g.e.e.e.e.e.w.e.e.w.e.e.y.^.d.s.d.-.z               l -.j.e.e.w.e.0.e.8.5.0.e.e.",
"e.e.e.e.e.e.e.e.e.e.w.e.e.l     9 U.Y.T.P.Z     c i.e.w.e.w.e.e.e.w.e.e.a.{.s.0Xo.X   - Y R.Y.Y.E O   X X.j.w.e.e.r.s.}.0Xy.e.e.",
"e.e.e.e.e.e.e.e.e.e.w.r.c   .   - S.lXhXjXjXE.7   v k.w.w.i.i.e.e.e.e.e.w.~.^.>.o   H qXjXgXlXwXG       o #.k.w.0.s.nXy.~.a.0.e.",
"e.e.e.e.e.e.e.7.7.w.n.}   & O.M +   Z sXyXyXjX&X;   | r.1.8.e.e.e.e.e.e.y.~.^.w   L hXsXtXhXoX*   3 O.M   3 r.e.e.u.s.{.u.w.w.w.",
"e.0.q.q.g.&.k.2.*.r.i.3   o.[.[.z.3   H hXiXtXjXR.  4 &.1.2.i.e.e.e.e.e.w.r.}   9 rXdXyXgX%X-   M (.[.[.j   } n.e.e.s.{.s.y.e.e.",
"e.i.e.e.q.&.;.9.$.*.X.  : (._./.'.N.3   C.jXiXpXgX0   ..w.8.e.e.e.e.e.e.w.k.c   Z.lXyXsXuXq   K [._./.[.=.  c f.w.q.e.8.e.e.e.e.",
"q.e.i.e.q.-.2.&.8.r.N   b [.(._./.[.<.  + @XgXtXjXE   N n.w.e.e.e.e.w.w.r.4.X   $XhXtXhXE   c `._.(.(.`./.  : 0.q.q.3.q.e.e.e.w.",
"q.3.e.d.u.7.g.q.w.j.N   B [.(.(.(.(.[.'   Z hXyXhXoX  3 e.e.w.e.q.e.e.w.n.}   x gXiXgX@X  o z.`.(.(.].`.N.& o 4.i.i.q.i.e.e.e.e.",
"i.q.0.s.|.u.w.e.8.m.N   B '.(.(.(.(.(._.4   R.hXiXuX9   $.r.w.w.e.e.w.w.n.c   Z.jXtXhXG   O.[.(.(._.(.].N.% % 7.e.q.e.d.h.e.e.e.",
"i.7.l.<.z.^.s.q.e.k.X.  5 `.(.(.(.].(.[.=.  w sXyXjXR   { k.w.e.q.e.w.e.7.&   @XgXgXoX  2 /._.(.(._.(.`.z.  4 e.q.e.e.w.e.e.e.e.",
"g.8.~.~.h.^.d.q.h.r.4.%   z.'.(.(.(.(.(.`.e   Y.hXhXY.  c k.w.w.e.e.e.r.#.  9 uXyXhXH   O.'.(._._.(.(.[.K   N n.w.e.e.e.e.e.e.e.",
"q.3.7.s.|.,.r.q.e.0.r.v   B '.(.(.].(.(.'.=.  F gXiX%X+ 2 0.w.w.w.w.8.n.{   A fXpX$X+ & /._.(.(.(.(.(.(.3   $.r.0.e.e.e.e.e.e.e.",
"e.e.e.y.9.y.e.g.e.q.g.%.  : N.`.(.(._.(.]./.:   OX2X-X8   -.m.j.m.k.n.M.v   B.2X8XY   K [.(._.(.`.(.'.o.  l p.w.e.e.w.e.e.e.w.e.",
"q.e.q.e.l.i.q.e.i.q.e.e.3   o.[.(.(.(.(.(.].B   B.8X8XD   K | M m M B X.3   K.7X,X7   <.`._._.].].(.[.o.  X.f.w.e.e.e.e.e.e.e.e.",
"e.i.q.q.e.e.e.e.i.e.0.j.{   5 `.].(.(.(.c.c.<.  8 +XB.7     +               S K.J.  e c.x.c.(._.].].`.N.5.r.0.a.e.w.w.e.e.w.e.e.",
"q.e.e.e.e.e.e.e.e.e.w.e.8.2   +.[.(.).x.x.c.v.6   +     - Z I E Z.Z.E H q o     .   ' ).x.x.c./.(._.[.m.e.e.i.e.e.e.w.e.e.e.e.e.",
"e.e.e.e.e.e.e.w.e.w.e.w.j.{   4 (./.x.x.v.<.b .   : E oXqXgXjXjXjXjXjXhXpX&XR.G O   & ' c.c.x.x.`.<.e #.k.8.9.e.e.e.e.e.e.e.e.e.",
"e.e.e.e.e.e.e.e.e.e.e.e.a.=.#   ' ).x.c.@.$   ; S.yXjXgXsXiXiXiXyXyXyXiXiXsXhXjX%XL .   5 <.c.x.c.5 + b t.p.|.!.q.e.e.e.e.e.e.e.",
"e.e.e.e.e.w.e.e.w.e.p.:.] / k   & <.).B     U tXjXsXyXiXiXiXiXpXpXuXsXpXpXpXiXiXsXjXoXq   < <.`.'   $ t s ' |.z.8.e.e.e.e.e.e.e.",
"e.e.e.e.e.e.a.e.q.i.@.) ! ~ _ 1   b B   * H.7XsXiXpXpXpXpXdXpXpXpXpXpXpXdXpXpXpXpXyXgXsXL   & ' &   y h p t V Q.s.w.e.e.e.e.e.e.",
"e.e.w.e.w.q.u.y.,.] ! ^ ^ ^ _ Q .     O .X4X6XdXpXpXpXpXpXpXpXpXpXpXpXpXpXpXpXpXdXpXyXpXjXE       < a p p p t d +.p.e.e.e.e.e.w.",
"w.e.e.e.e.9.{.}.( ~ ^ ^ ^ ^ ) _ g   O .X3X,XyXpXpXpXpXpXpXpXpXpXpXpXpXpXpXpXpXpXpXpXpXuXyXjXR   . p a p p p s i i  .p.8.e.e.e.e.",
"e.e.e.e.e.8.^.[ ! ^ ^ ^ ^ ^ _ Q .   G.4X-X6XpXpXpXpXpXpXpXpXpXpXpXpXpXpXpXpXpXpXpXpXpXpXdXyXgXZ   < a a p p p p p t %.f.w.e.w.e.",
"e.e.e.e.e.a.` ! / ^ ^ ^ ^ ~ _ 6   A 4X,X=X6XsXiXpXpXpXpXpXpXpXpXdXpXpXpXpXpXpXpXpXpXpXpXpXyXgX&X*   u a p p p p p p p -.p.w.e.e.",
"e.e.q.e.a.@.) / ^ ^ ^ ^ ^ / n   O OX2X,X=X6XiXyXiXpXpXpXpXpXpXpXpXpXpXpXpXpXdXpXpXyXyXpXpXpXyXjXC.  > a p p p p p p t n i.e.w.e.",
"i.q.q.i.u.( ^ ^ ^ ^ ^ ^ ~ _ 6   L 8X,X,X,XaXjXjXhXiXpXpXpXpXpXpXpXpXpXpXpXpXpXiXsXhXjXgXiXpXiXsXqX;   i a p p p p p a i %.p.w.e.",
"e.e.q.p.=.~ ^ ^ ^ ^ ^ ^ ^ ~ $   .X2X,X,X2X>XP.R R.gXsXpXpXpXpXpXpXpXpXpXpXiXiXgXqXC.E T.hXpXpXyXhXR   1 a p p p p p s t B p.w.i.",
"e.q.8.k.@.! ^ ^ ^ ^ ^ ^ / n   0 2X=X,X,X*Xq   +   I sXiXpXpXpXpXiXpXpXpXpXiXsX:X7       V.hXyXiXgXE.  # a p p p p p p i k w.e.e.",
"e.e.e.g.] ) ^ ^ ^ ^ ^ ^ / f   U 4X=X,X4XB.  C U.;   oXhXyXpXpXpXsXsXpXpXpXiXhXI   H F.O . %XgXyXdXqX;   p a p p p p p p s ;.p.e.",
"e.e.e.q._ ) ^ ^ ^ ^ ^ / _ 6   A.4X,X-X8XH   oXxXV.  U.hXyXpXsXpX&X>XgXdXdXiXgXC   $XzXL   E.hXyXiXhXw   u a p p p p a p a ..p.w.",
"e.e.e.i.@.) ^ ^ ^ ^ / Q u +   K.3X,XgXcX9XI.vXsX:XD.qXsXpXsXqX9     R gXiXpXsXoXU.pXzX9XI.xXxXhXiXhXG   < u a p p p a p d #.2.a.",
"e.e.w.r.@.) ^ ~ / / f , > .   L.4XzXcXcXcXcXcXcXhXjXsXpXpXpXtXL O ; U.sXpXpXpXgXhXxXcXcXcXcXcXcXkXhXL   # > 1 p a p p t n 2.2.e.",
"e.e.w.r.;.^ ^ / ~ u # > <     L.hXcXcXcXcXcXcXcXxXyXpXpXpXpXhXhX:XtXlXsXpXpXpXyXdXcXcXcXcXcXcXcXcXhXH   > , > < i a p t ` f.e.e.",
"e.e.e.r.7.` ~ Q 1 # < > , .   H.lXcXcXcXcXcXcXcXcXdXpXpXpXpXoXrXlXjX%X%XsXpXpXiXkXcXcXcXcXcXcXcXcXlXZ   > < , > > u p s 6.0.e.e.",
"e.e.e.e.7.-.~ 1 # > , > , $   B.fXcXcXcXcXcXcXcXxXiXpXiXhXR.  F E.P.O 7 yXpXpXiXsXcXcXcXcXcXcXcXxXuX9   > , , , > < y  .f.w.e.e.",
"e.e.e.e.e.w.B @ < > > , < @   Z 4XsXcXcXcXcXcXxXsXiXpXiXsX:X0         R gXpXpXpXiXkXcXcXcXcXcXcXzX@X  . > , > , < @ c r.e.e.e.e.",
"e.e.e.e.e.e.e.M @ < < > > >   O OX2X6XhXzXkXpX,X6XiXiXsXpXsXyXS.P I T.hXpXpXpXpXpXiXsXzXxXxXzXyXhXR   $ , > , < @ 5 9.r.e.e.e.e.",
"w.e.e.w.e.0.q.g.M @ > , > < $   Y 7X-X=X,X=X=X,X,XaXsXiXsXiXsXhXhXjXhXiXpXpXpXpXpXpXpXpXiXpXyXsX&XO   > , > , @ j 8.r.w.e.e.e.e.",
"e.e.e.e.e.e.e.q.g.{ < @ < < $   o .X3X,X,X,X,X,X,X,XaXsXiXiXiXyXyXyXiXpXpXpXpXpXpXpXpXpXiXiXdXgXC   $ < < > > b 5.r.w.e.e.e.e.e.",
"e.e.e.e.w.e.e.e.w.k.&.g @ > < -   8 *X3X=X,X,X2X,X,X2XaXpXpXiXsXdXpXpXpXpXpXpXpXpXpXpXpXyXgXgXH   X < > @ 6 X.a.2.7.e.e.e.e.e.e.",
"0.e.w.i.a.e.e.e.w.w.k.e. .6 @ > O   9 +X4X,X=X,X,X,X,X,X6XsXsXiXpXpXpXpXpXpXpXpXpXiXiXdXlX&XZ   + @ @ 1 M 6.n.1.$.7.e.e.q.e.e.e.",
"e.e.e.e.5.7.e.e.e.e.e.q.l.s.O.j > O   * A.,X4X5X,X=X,X,X=X3XiXsXpXsXiXiXiXyXyXyXpXhXhXtXS.-     @ 6 N 4.f.e.a.w.8.w.a.e.q.e.e.e.",
"e.e.e.5.*.7.e.e.e.q.i.9.|.0Xl.^.o.N w X   7 B.OX3X4X4X3X2X,X,X6XiXsXsXsXgXhXjXhXdXoXR ;     & b X.w.j.e.e.e.e.e.i.w.e.w.e.e.e.e.",
"e.e.e.5.*.5.e.e.e.e.e.q.d.^.s. Xi.g.p.%.4 .   + 0 U H.L.+X*X-X-X,X<X>X:X@XY.C.H ;       z X.8.p.n.e.w.w.w.w.e.r.a.e.e.e.e.e.e.e.",
"e.e.e.e.e.e.e.e.e.w.q.q.e.y.d.u.a.w.a.r.m.v   - +         o - ; r ; *           X Z F   $.m.e.w.w.w.e.e.r.w.0.0.w.e.e.e.e.e.e.w.",
"e.e.e.e.e.e.e.e.e.i.e.e.e.e.q.e.w.e.w.e.1.&   .X+XA.U Z q 7 = = O $ 7 9 Z L V.oX>XlX#X  v k.0.e.e.e.q.e.e.e.e.w.e.e.e.e.e.e.e.e.",
"e.e.e.e.e.e.e.0.q.i.i.e.e.e.e.e.e.e.w.n.N   Z 4X2X7XfXfX3X5X1XtXrXwXuXgXjXjXjXhXsXpXwX; % 7.e.e.6.5.e.e.e.e.w.w.r.w.w.e.e.e.w.e.",
"e.e.e.e.e.q.q.q.q.e.e.e.e.e.e.i.e.e.e.e.3   H.5X<XuXuXuXiXpXsXsXpXsXpXpXyXyXyXpXuXyXjXH   X.k.8.$.4.e.e.e.e.e.e.e.e.e.e.e.e.w.e.",
"e.e.e.w.e.e.i.i.h.e.e.e.e.e.e.e.e.w.r.X.  ; *X6XgXuXpXpXiXpXiXpXpXpXpXpXpXyXuXpXpXgXjXU.  v n.8.6.5.e.e.e.e.e.e.w.e.e.e.e.e.e.e.",
"e.e.e.e.e.i.u.u.a.r.e.e.e.e.e.w.q.w.f.c   P 8XXX%XgXpXpXpXpXpXdXpXpXpXpXpXpXpXsXrXY.hX$X  2 q.e.a.e.e.e.e.e.e.e.e.e.e.e.e.e.e.e.",
"e.e.e.e.i.7.~.~.7.a.e.e.w.e.e.e.e.e.1.&   K.7X9 S.kXyXpXpXpXpXpXiXpXpXpXpXpXpXsX>X= oXjX9   #.g.e.e.e.4.w.e.e.i.2.7.e.e.0.e.e.w.",
"e.e.e.e.e.s.z.s.s.0.0.e.e.e.w.e.w.n.N   * ;X<X+ U.jXyXpXpXpXiXdXkXsXpXpXpXsXiXsXqXO U.lXC   { m.w.8.i.&.5.e.w.w.$.0.e.w.r.w.w.e.",
"e.e.e.h.7. X~.{.}.0.e.e.e.e.e.w.k.N     Y 2X1X  P.jXyXpXpXyXsXcXcXcXkXyXpXpXiXsX&X  P.yX%   5 7.k.4.*.9.1.&.8.w.*.w.a.a.w.w.e.e.",
"e.q.e.e.w.u.!.s.y.e.w.e.e.e.w.f.X.    G.4X3XwX  S.jXyXdXpXhXzXcXcXcXcXjXsXpXiXgX:X  C.lXY.*   4 8.i.2.1.&.$.4.5.1.$.e.5.*.e.e.w.",
"e.e.e.g.w.0.w.8.3.e.e.e.e.e.e.e.3   U 8X=XaXqX  Y jXyXyXdXL E.cXcXcXbXL oXgXyXhXoX  P.hXhX%X:   v k.7.-.&.$.#.*.5...$.4.7.e.0.r.",
"e.e.r.w.e.0.5.1.a.a.e.7.w.w.f.%.  * OX2X6XpXiX- Z 6XuXuXsX9 : bXcXcXW   XXhXyXhXJ.  Y.hXtXlXP.  X -.p.5.0.w.7.2.a.w.w.5.0.e.w.e.",
"w.w.w.w.e.p.w.$.p.w.8.$.a.w.f.}   w 4X,XiXiXhXZ * *X6XuXjXP.  I.cXeX  Z 3XaXyXfXD   :XsXyXhX%XO   X.g.e.w.w.r.r.e.e.e.0.w.w.w.e.",
"e.e.r.w.w.-.w.-.-.-.6.$.6.0.7.m   A 3X<XpXyXjXC.  K.3X6XhX@X  J cXW.  Y 8X6XaX,X= w gXpXiXgXoX    X.n.w.w.e.w.w.e.e.w.e.r.w.r.w.",
"w.e.w.w.r.-.#.$.$.$.-.$.#.$.2.m   A 2X6XpXpXgX$X  Z 8X,X6X*X  F cXW.  J.5X1X7XH.  C.jXyXyXjXS.  + &.p.w.e.e.r.w.w.e.e.e.w.e.e.w.",
"r.e.w.r.e.w.2.w.a.7.7.0.5.6.7.{   q 8X,XyXyXyXgXG   B.2X7X.X  W cX#X  Y 7X4X.X* * :XdXyXdXsX9   3 q.e.e.r.w.w.e.r.w.e.e.w.e.e.e.",
"w.w.w.w.0.r.e.e.e.r.e.w.r.w.p.%.    K.8XfXjXjXlX>X0   0 Y 8   #XcXkX9   T Z   + Y.lXgXsXhXV.    { g.w.e.0.e.e.e.w.e.e.w.e.w.w.e.",
"e.w.e.e.e.w.e.w.e.e.w.e.e.w.w.p.c   + Z T C.S.C.A.B.*       9 F.C.F.H         A F.F.Y.%XgXG   v r.w.e.e.e.e.e.w.w.e.e.e.0.r.r.w.",
"e.0.r.w.e.e.e.e.w.e.e.e.e.e.w.e.w.v                     +               + +           * >.d.%.r.e.e.e.e.e.w.e.w.r.w.e.e.w.w.e.w."
};
