/* XPM */
static char *result[] = {
/* columns rows colors chars-per-pixel */
"64 64 222 2 ",
"   c #0C0D0C",
".  c #12130E",
"X  c #1A1B0F",
"o  c #131413",
"O  c #171915",
"+  c #1A1C15",
"@  c #16191B",
"#  c #1A1D1C",
"$  c #151718",
"%  c #0F1010",
"&  c #1D2015",
"*  c #1E201D",
"=  c #212316",
"-  c #242519",
";  c #262A19",
":  c #2A2C1B",
">  c #282719",
",  c #2D321C",
"<  c #33381E",
"1  c #1B1F21",
"2  c #1D2224",
"3  c #212424",
"4  c #242A2D",
"5  c #252826",
"6  c #333323",
"7  c #373B25",
"8  c #272E32",
"9  c #2D3235",
"0  c #2A353A",
"q  c #2A353A",
"w  c #313639",
"e  c #343A3C",
"r  c #303537",
"t  c #201D15",
"y  c #423C26",
"u  c #3D4325",
"i  c #3E4037",
"p  c #464E2A",
"a  c #47482B",
"s  c #4B542C",
"d  c #4D582D",
"f  c #515B2F",
"g  c #565935",
"h  c #4C4A31",
"j  c #645C39",
"k  c #576131",
"l  c #596433",
"z  c #5E6A35",
"x  c #626C39",
"c  c #6A783C",
"v  c #72653F",
"b  c #343E42",
"n  c #383E41",
"m  c #2E3D45",
"M  c #394549",
"N  c #3B4C52",
"B  c #3E5159",
"V  c #434A4C",
"C  c #40474B",
"Z  c #4A5356",
"A  c #48555A",
"S  c #495255",
"D  c #736B43",
"F  c #767446",
"G  c #6C714F",
"H  c #475B63",
"J  c #525D63",
"K  c #4C636D",
"L  c #5B676B",
"P  c #4D6671",
"I  c #556C76",
"U  c #56727D",
"Y  c #626D72",
"T  c #677479",
"R  c #6A7374",
"E  c #73823F",
"W  c #738241",
"Q  c #7A8A44",
"!  c #7F9146",
"~  c #7D927B",
"^  c #839449",
"/  c #879A4A",
"(  c #898955",
")  c #919355",
"_  c #A4985C",
"`  c #B19E5F",
"'  c #8DA24C",
"]  c #92A651",
"[  c #94A952",
"{  c #99AD55",
"}  c #9DB454",
"|  c #93A94F",
" . c #A3BB56",
".. c #A5BC59",
"X. c #A4BA59",
"o. c #878F6A",
"O. c #A7A262",
"+. c #B4AD67",
"@. c #A8AD6F",
"#. c #9EA264",
"$. c #CCB96F",
"%. c #ABC45B",
"&. c #AFC85D",
"*. c #A8C157",
"=. c #B2CB5E",
"-. c #B6CB5F",
";. c #B6D15F",
":. c #B8D25E",
">. c #AFC661",
",. c #B5CE63",
"<. c #B9CF63",
"1. c #B6CD6A",
"2. c #B6CB68",
"3. c #B7D163",
"4. c #B9D364",
"5. c #BDD965",
"6. c #B9D169",
"7. c #BACB74",
"8. c #BDCB7B",
"9. c #B7C775",
"0. c #BED17C",
"q. c #C9C978",
"w. c #D5CC79",
"e. c #C9D671",
"r. c #E7CC7A",
"t. c #EED27D",
"y. c #F2D47E",
"u. c #5C7A85",
"i. c #6B7D83",
"p. c #717F83",
"a. c #62818C",
"s. c #76858A",
"d. c #668996",
"f. c #7D8D93",
"g. c #769099",
"h. c #6E94A2",
"j. c #759DAD",
"k. c #7EA9BB",
"l. c #7AA5B5",
"z. c #83959B",
"x. c #808F94",
"c. c #8A9CA2",
"v. c #8799A1",
"b. c #8EA1A8",
"n. c #91A5AB",
"m. c #96A7AC",
"M. c #98ACB3",
"N. c #9EB3BC",
"B. c #81ABBA",
"V. c #A1B3B8",
"C. c #8FA681",
"Z. c #BDCA85",
"A. c #B2DCB4",
"S. c #C4CD87",
"D. c #C5D189",
"F. c #C8CE92",
"G. c #CBD29A",
"H. c #C8D094",
"J. c #DFD982",
"K. c #E6DC83",
"L. c #F4DF85",
"P. c #EAE688",
"I. c #F4EC8B",
"U. c #F4E487",
"Y. c #F5F08F",
"T. c #F9F18E",
"R. c #FAF390",
"E. c #CFD6A5",
"W. c #88B6C8",
"Q. c #8EBACD",
"!. c #A4BAC3",
"~. c #A7BCC5",
"^. c #94C6DA",
"/. c #8FC1D4",
"(. c #ABC2CC",
"). c #AAC8D4",
"_. c #B4CCD6",
"`. c #BAD3DD",
"'. c #B8D2DD",
"]. c #99CFE4",
"[. c #97CCE4",
"{. c #9BD2E5",
"}. c #9ED6EB",
"|. c #9FD7F6",
" X c #A1DAEE",
".X c #A2D5E8",
"XX c #BCD7E3",
"oX c #A2DCF5",
"OX c #A3DCFA",
"+X c #ABDEF9",
"@X c #ACDCF1",
"#X c #B2DFF7",
"$X c #A6E1F5",
"%X c #A6E1FC",
"&X c #A9E3FD",
"*X c #A9E2F4",
"=X c #BCE4FA",
"-X c #B4E4FB",
";X c #BBE2EA",
":X c #D3DCDB",
">X c #C2DBE5",
",X c #C4DEE9",
"<X c #C6E1EC",
"1X c #CBE4EC",
"2X c #CAE4EB",
"3X c #CCE7F6",
"4X c #CEE9F5",
"5X c #CDE7F8",
"6X c #CEE9F9",
"7X c #C4E6F9",
"8X c #D2ECF5",
"9X c #D2ECFA",
"0X c #D6EBF4",
"qX c #D5F1FD",
"wX c #DAF2FB",
"eX c #D7F0F6",
"rX c #D6E7EB",
"tX c #E8F5FA",
"yX c #F5FBFE",
"uX c #FDFEFF",
"iX c #F1F5F8",
"pX c #E8EAE9",
/* pixels */
"3.3.3.3.-.3.3.4.*.! f 7 , u x ] 3.3.3.3.3.3.3.3.3.3.3.3.3.3.3.3.3.3.5.>.^ k < , 7 x / =.5.:.:.3.3.3.3.3.3.3.3.3.:.3.3.3.3.3.3.3.",
"3.3.,.<.2.<.:.' p = = # # * + ; z } 5.3.3.3.3.1.Z.7.Z.1.3.3.3.3.3.3.[ d & * * * * * - f } 4.3.:.3.3.3.3.3.3.3.3.3.3.3.3.3.3.3.3.",
"3.3.7.E.E.8.W >   # L b.n.z.L 4 O u [ 5.3.3.3.Z.E.Z.G.7.3.3.3.3.3.! , @ e T v.n.c.Z %   6 ) 7.3.3.3.3.3.3.3.3.3.3.3.3.3.3.3.3.3.",
"3.3.7.D.S.o.5 o . o A (.eXeX1XN.Z O u  .3.3.3.1.Z.S.D.6.3.3.3.3.] : @ L _.1XeX4XM.n % O o 6 { 1.<.<.3.3.<.3.3.<.3.3.3.3.3.3.3.3.",
",.3.,.8.Z.7 O D ( a O w N.9X4XqX'.S o x 3.3.3.3.Z.H.Z.1.3.3.3.%.p O R <XqX4X4Xf.5 + g ) g O d %.4.<.3.3.3.3.3.=.=.<.3.3.3.4.:.3.",
"3.3.3.8.o.# g K.I.w.D O w !.4X5XeXN.3 ; { 4.3.3.3.1.1.3.3.3.5.! & M _.9X4X4Xz.2 t ( K.I.q.< & ' 4.3.3.%.%.6.,. .%.<.=.<.4.:.:.3.",
"3.,.3.,.a = O.R.I.R.P.D O Z `.9X4X<XL O W 5.3.3.3.3.3.3.3.3.3.k + s.4X4XeXN.e + ( P.I.T.U.F & c 3.4.=. . .>.} } ..*. .:.<.<.4.3.",
"3.3.4. .; ; q.R.P.I.R.w.h o s.4X4X4Xb.* p >.3.,.3.3.3.3.3.6.} , 4 (.9X6X<XL O D P.T.I.T.R.O.& p ,.4.&.*.,.&.%.,.%...%.=.<.4.<.3.",
"3.4.4.} = < w.T.I.I.I.T.+.- 8 !.6XqX_.9 - } 5.3.3.3.3.<.4.4.^ & Z <XeX4Xc.* y w.R.I.I.I.R.+.; p =.4.<.3.3.<.4.3.:.:.,.9.1.;.:.:.",
"3.3.4.X.; , w.T.I.I.I.I.P.F + L <XqX<XJ + Q 5.3.3.3.3.3.4.=.l # s.eX6X'.M + _ Y.Y.I.I.I.R.O.& p =.4.,.3.3.:.4.<.<.<.7.G.8.;.:.3.",
"3.<.4.&.u = @.T.I.I.I.I.T.q.6 3 N.eXeXx.# f 3.3.,.3.3.3.4.*.< 3 N.qX8Xf.@ g K.R.I.I.I.I.Y.( + x 4.3.:.<.3.3.3.<.<.7.S.w.S.8.,.3.",
"3.3.4.3.c + F I.T.U.Y.I.T.I.F @ Y 1XqXV.2 < *.6.,.3.3.3.4.] X e '.wX`.N # O.Y.I.I.I.I.Y.t.a & / 5.3.3.3.3.3.3.<.<.7.S.q.F.Z.3.;.",
"3.3.3.4.[ = 6 w.R.I.I.I.I.R.q.> 9 ~.6X{.0 & [ 5.3.3.3.3.5.Q O K ;X7Xn.* a K.T.U.I.I.I.T.+.+ u ..5.3.3.3.3.:.3.<.:.<.8.G.Z.,.3.3.",
"3.3.3.4.,.s & _ Y.I.I.I.U.T.K.x # a.&X|.H + ! 5.,.,.,.3.4.x # a.$X$XH # ) I.I.I.I.I.I.P.x + c 4.3.3.3.3.3.3.3.4.3.:.1.7.<.3.3.<.",
"3.3.3.3.4./ s +.Y.I.I.I.I.U.L._ = M {.}.P $ p x d s s k x < $ h.*X/.2 : $.U.I.I.I.I.R.q.> > { 4.3.3.3.:.3.:.3.4.3.3.6.<.<.:.<.3.",
"3.3.3.3.<.<.=.P.R.I.I.T.L.t.L.$.7 * u.K 2 % $ # * * * * # O   8 U P * j r.t.L.U.I.I.I.F O l =.3.;.3.3.<.3.3.3.3.3.3.4.<.:.3.3.3.",
"3.3.3.3.3.3.4.e.w.U.U.L.K.r.L.$.h . $ 1 4 C R x.c.n.b.c.s.L M 2 1 o . D r.t.r.t.U.R.q., & | 4.3.;.3.3.3.3.3.3.3.3.3.3.3.3.3.3.3.",
"3.3.3.3.3.3.3.Q y _ U.r.r.r.` y t t S x.~.>X3X5XwX9X0X0X0X1XXXN.p.n @ # j $.r.r.t.K.D & l =.3.3.3.3.3.3.3.3.3.3.3.3.3.3.3.3.3.3.",
"3.3.3.3.3.3.4.! t y $.L.r.( > $ C c.>X0XwX9X5X5X6X6X6X6X9X6XqXqX3X`.f.0 % y _ r.y.` & ; [ 5.3.3.3.3.,.3.3.3.3.3.3.3.3.3.3.3.3.3.",
"3.3.3.3.3.3.3.>.h X D $.D t > p.>X0X5X5X5X5X5X5X5X6X6X6X5X5X5X5X4X6X6X~.H $ > ( $.h o x >.1.6.=.>.%.*.,.6.3.3.3.3.3.3.3.3.3.3.3.",
"3.3.6.3.3.3.3.0.@.4 = a t r b.rX9X6X5X5X5X6X6X6X6X6X6X6X6X6X6X6X5X6X0X5X{.i.1 - h t < } =.>.*. . .*.%.<.<.<.1.6.3.1.3.3.3.3.3.3.",
"3.3.3.3.6.3.3.7.S.G o   9 M.4X6X5X5X9X5X6X6X6X6X6X6X6X6X6X6X6X6X6X6X5X5X-X}.d.@   + Q 2. .| } *.&.,.=.4.3.1.S.q.2.1.3.3.3.3.3.3.",
"3.3.3.3.6.3.3.3.<.Q . 5 n.9X6X3X6X6X9X5X6X6X6X6X6X6X6X6X6X6X6X6X6X6X6X5X=XOX}.a.@ ; ] <.*.*.&.=.3.>.>.3.<.2.H.S.G.G.2.3.3.3.3.4.",
"3.3.3.3.3.3.,.3. .u # s.4X4X6X6X6X6X6X6X6X6X5X9X9X6X6X6X6X6X6X6X6X6X6X5X7XoX%X{.K $ k &.3.3.3.3.3.3.3.4.3.<.8.H.G.F.1.<.4.3.3.3.",
"3.3.6.3.3.,.3.6.W O S XX6X6X6X5X5X5X5X6X6X6X6X6X6X6X6X6X6X6X6X6X6X6X5X6X5X+X|.OXW.q & / 5.3.3.3.4.6.4.3.<.<.8.G.Z.Z.1.3.3.3.3.3.",
"3.3.3.3.3.*.,.} < 2 m.8X6X6X6X6X9X9X9X5X6X6X6X6X6X6X6X6X6X6X6X6X6X6X9X9X6X+XOXOXoXu.O d ,.3.,.3.4.3.3.3.<.4.1.9.F.F.8.1.3.3.3.4.",
"3.3.6.3.3.*.*.Q & A ;X8X3X6X9X,X`.,X6X9X6X6X6X6X6X6X6X9X6X6X6X6X9X5XXXXX<X-XOXOX%XQ.8 & [ 5.,.3.<.<.3.,.3.:.1.F.q.q.G.7.<.3.3.4.",
"3.3.,.%.3.;.} d # f.eX4X6X6X!.J 9 Z M.6X6X6X6X6X6X5X5X6X9X6X6X6X1Xz.M w U ^.OXOX%X}.K & W 5.3.,.3.3.3.3.3.3.1.9.S.D.9.1.4.<.4.4.",
"3.3.3.} >.6.{ ; 5 ~.9X6X9X_.C O 3 @ w !.6X6X6X6X6X6X6X6X9X5X6X0Xv.3 # * @ J {.OX|.&Xh.2 d &.3.3.3.3.3.3.3.6.3.<.8.Z.3.3.4.<.3.3.",
"3.3.3.,.*.=./ O M XX9X5X9Xz.1 Z ~.L $ i.4X6X5X6X9X4X4X6X6X5X9X,XS o f.V.9 1 W.OX|.%XW.2 , %.4.3.3.3.3.3.3.3.3.3.<.1.3.3.<.<.<.3.",
"1.,.*.} >.%.E O J 2X8X4XtXm.y m.tXM.n f.0X5X6X1XM.T p.!.6X5X9X,XL C `.wXR V ).=X%X%X^.8 ; { 5.3.3.3.3.3.3.3.3.3.3.3.:.3.3.3.:.3.",
"3.>.} } *.>.c O L 2XwXiXuXiX:XiXyX0X_.,X6X5X9X'.S 1 4 T ,X9X6X6XXX'.tXuXpX:XyXyXqX&X[.M & [ 4.3.;.;.3.3.3.<.3.3.3.,.3.3.3.3.3.3.",
"3.%.*.=.3.3.W + Y rXyXuXuXuXuXuXyXyX9X6X5X5X9X5XN.T s.(.6X6X6X6X6XwXyXuXuXuXuXuXyXwX}.M O ] 5.3.3.3.<.3.3.&.%.6.,. .,.3.3.3.3.3.",
"3.3.4.3.3.5.Q + L rXuXuXuXuXuXuXuXyXwX5X9X5X8X1XeXeX9X8X4X6X6X6X5XwXuXuXuXuXuXuXyXyX.Xm + | 4.3.:.3.6.3.>.*.*.6.,. .3.4.3.3.3.3.",
"3.3.3.3.3.4./ O S rXuXuXuXuXuXuXuXyXwX5X5X9X_.Y x.>X'.p.p.XX9X6X5XwXuXuXuXuXuXuXuXyX^.8 ; } 4.3.&.*.>.%. . .*.>.*.*.*.&.3.3.3.3.",
"3.3.3.3.3.5.} & 9 _.yXuXuXuXuXuXuXtX9X5X5X9XN.8 @ M e $ C XX9X5X6X9XiXuXuXuXuXuXyXqXk.2 < &.5.3.&.*. .} } .. .} } } ..>.3.3.3.3.",
"3.3.3.4.3.3.>.p # c.wXtXyXuXuXyXtX9X5X9X6X9X3Xc.e - 2 S !.3X5X5X9X5X7XwXyXyXyXyX6X$Xa.@ l 3.<.<.3.,.>.,.=.%. . .&.*.&.3.3.3.3.3.",
"3.3.4.3.3.3.3.W + A <X9X8XqXwX9X9X5X5X5X6X6X5X4X`.~.~.>X9X6X5X5X9X=XOXOX-X=X=X+X&X^.M O ^ 5.<.<.3.3.<.<.<.2.,.3.3.,.3.3.3.3.6.3.",
"3.3.3.3.3.,.4. .< * x.8X6X4X6X6X5X5X9X5X6X6X6X6X9X9X9X9X6X6X6X5X7XOXOXOX|.OX|.OX Xd.o . E ,.4.<.4.<.<.4.3.4.<.:.3.3.3.3.3.3.3.3.",
"3.3.4.3.3.3.3.:.Q X 4 m.eX6X5X5X5X9X5X5X6X6X6X9X6X5X5X6X6X6X5X7X+XOXOXOXOXoXoX%Xk.4 o @ + z %.4.<.4.4.6.4.5.3.,.3.3.3.3.3.3.3.3.",
"3.3.3.3.3.5.&.*.*.z @ 9 b.2XeX6X5X5X5X5X5X5X9X5X6X6X6X6X6X6X=X+XOXOXOXOXOXOX%Xk.M $ I x.9 X f *.5.4. .^ Q [ 3.4.3.3.3.3.3.3.3.3.",
"3.3.3.;.3.3.&.} >.>.z O 2 T (.4XqX9X5X9X4X5X5X5X5X5X5X5X7X-XOXOXoXOXOXOX%X].d.q $ L XXeXM.e + k X.) 7 & + ; c ..,.3.3.3.3.3.6.3.",
"3.3.;.3.3.6.3.>.>.6.&.c ; o r p.~.>X8X8X9X9X9X9X6XqX5X=X&X%XOX%X%XOXoX^.j.S @ 2 Y XX9X8X9XN.9 . 9 3 $ N J 3 . , f [ ;.&.,.3.3.3.",
"3.4.3.3.3.3.3.6.3.3.5.3.| d & & 4 S s.n.(.'.>X<X<X;X@X|. X{.{.^.W.j.U b 1 # M z.,X4X5X5X4X9Xc.*   @ H ^.XXx.w 5 $ u | *.%.3.3.3.",
"3.3.3.3.3.6.3.3.3.3.,.3.3.,.' l : + @ # 4 w V J P I I I H H N 0 2 1 2 3 V z.'.4X9X9XqX9X4XeX4Xp.o M /.%X&X<X`.N.S O c %.%.3.3.3.",
"3.3.3.6.3.3.3.3.3.;.3.3.3.3.3.,. .^ a . @ 3 1 1 2 2 2 2 1 1 1 2 b J s.!.,X4X9X9X4X`.N.v.f.z.!.N.w 5 k.OXOX7X9XeXs.& z 3.3.3.3.3.",
"3.3.3.3.3.3.3.,.3.3.3.3.3.;.3.3.5.e.c # Y (.!.c.c.g.z.z.c.M.!.(.XX<X8X9X5X4X4X_.p.e 2 2 2 2 3 b 8 o P |.OX*X8X2XT @ l 3.6.3.3.3.",
"3.3.3.3.3.3.3.3.3.3.3.3.3.3.&.%.*.| s # s.wXqX9XeXeXeX6XeX9XqXqX5X6X5X5X4X4Xn.e @ 2 M P U P M 1 o   e ^.&X%X6X8XM.2 : { 3.3.3.3.",
"3.3.3.3.3.3.3.3.3.3.3.3.6.4./ f , * o . Y 2X6X4X5X6X6X4X5X6X5X6X6X5X5X6X4Xv.4 $ H k.].oX$X|.[.k.H o $ d.$X%X7X9X2XZ # / e.:.3.3.",
"3.3.3.3.,.3.3.3.3.3.3.3.3.! : @ 2 M N O M XX6X4X5X5X6X6X6X6X6X6X6X5X6X6XN.9 @ u.].%X&XOXOX%XOX&X].u.1 q k.&X7X1XN.w = ] 5.=.3.3.",
"3.3.3.3.3.5.3.3.3.3.3.4.} < @ P k.[./.0 2 N.qX4X4X7X=X=X5X6X6X6X6X5XqX>XA @ u.}.%X|.OXOX|.OX|.OX%X}.I $ B }.6Xz.4 O f %.4.3.3.3.",
"3.3.3.3.3.3.&.*.3.3.3.,.E & B ].&X%X%Xu.* L <X6X+XOXOX%X#X7X6X6X6X5X6XM.@ M ^.%XOX|.OXOXOXOXOXOX|.%X/.m 2 B.XXS . g X.6.3.3.3.3.",
"3.3.3.3.3.3.&.*.,.3.,.%.k & u.oX|.|.%XW.q 2 T W.|.OXOXOXOX-X9X6X4X9X4XY 1 u.|.%X%XOXOXOXOXOXOXOX|.%X|.u.@ A I * 7 @.q.2.3.3.<.<.",
"3.3.3.3.3.6.&. .&.&.*.*.c O P  X%X|.&X$Xa.o o B ].%XOXOXOX^._.5X5X6XXXV 1 k.%X|.|.%X%X|.OXOXOXOXOX|.%Xl.2 % @ 5 o.G.E.<.:.<.3.3.",
"3.3.3.*.%.&.} *.%. .} *.! & 2 h.[.}.^.l.K o   H }.%XOXOX^.N Z >X9X5XXXe 2 W.&XOXOXOXOXOXOXOXOXOXOXOX%XW.2 X k ' 9.8.7.3.4.4.<.3.",
"3.3.3.&.*.} } *. .} } *.*.x & * M N 8 2 #   $ h.%XOXoX%Xk.1 M XX5X9X>XM 2 W.%X|.OXOXOXOXOXOXOXOXOXOX&XW.2 < *.5.,.&.=.3.<.3.:.4.",
"3.3.3.&.&.&.,.3.%.&.=.&.=.>.W , & O 3 u w . 0 /.%X|.OX%Xa.* T 8X9X9X~.0 @ l.%XOXOXOXOXOXOXOXOXOXOXOXoXl.2 u >.6. .&.3.3.3.3.3.3.",
"3.3.3.3.3.3.3.3.3.3.3.3.3.5.3. .] ) @.#.i * d.oX%X|.%X{.N * M.wX1Xc.m % 2 j.%XOXOXOXOXOXOXOXOXOX|.OXoXU * z ,.3. .,.6.3.3.3.3.3.",
"3.3.3.3.3.3.3.3.3.3.3.3.3.3.3.5.4.6.H.o.* N ].%X|.OX%Xl.* 2 b.`.z.2 1 H h.[.OXOX%X|.%X|.OXOXOXOXOX&X/.m & ! *... .&.%.,.3.3.3.3.",
"3.3.3.3.3.3.3.3.3.3.3.3.3.3.3.3.3.3.0.G 2 a.$XoX|.%X[.H   % 2 M 4 @ i.}.$XOX|.OX|.%X|.%XOXOX|.OX%X{.P $ p } } } } [ X.<.3.3.3.3.",
"3.3.3.3.3.3.3.3.3.4.3.3.3.3.3.3.3.3.6.c * U $X%XOX$Xh.* , l < O . A }.&XOX%X%XOX%X%X|.|.OXOX%X%X].U @ , ] ;.&.,.&.%.,.4.3.3.3.3.",
"3.3.3.3.3.3.3.3.3.3.3.3.3.3.3.3.3.3.5./ & 8 l.}.}.k.q O E 3.} u * d.}.}.}.}.}.}.|.}.oX%X%X|.[.j.B @ ; ! 3.3.3.3.3.3.3.3.3.3.3.4.",
"3.3.3.4.3.6.3.3.3.3.3.3.3.3.3.3.3.3.5.&.l O 2 H H 8 & f &.5.5.z O M P P K P P P K K U ^.$XW.N * O u ' 3.3.3.3.3.3.3.3.3.3.3.3.3.",
"3.3.3.3.3.3.3.3.3.3.3.3.3.3.3.3.3.3.=.4. .s . % % % d } 3.3.3.! &   % o o % o o o o ; ~ A.C.* & z } 5.3.3.3.3.3.3.3.3.3.3.3.3.3."
};
