/* XPM */
static char *result[] = {
/* columns rows colors chars-per-pixel */
"64 64 245 2 ",
"   c #010101",
".  c #040409",
"X  c #0A0C0B",
"o  c #080805",
"O  c #160A05",
"+  c #0E1208",
"@  c #17150C",
"#  c #080B14",
"$  c #0D1218",
"%  c #141A1C",
"&  c #161917",
"*  c #110D1B",
"=  c #240F03",
"-  c #270E06",
";  c #241005",
":  c #231108",
">  c #2B1406",
",  c #32170C",
"<  c #1E2312",
"1  c #1C250F",
"2  c #272716",
"3  c #39271A",
"4  c #2B311B",
"5  c #34371B",
"6  c #171D23",
"7  c #1B2327",
"8  c #1D2832",
"9  c #22272A",
"0  c #363821",
"q  c #262D32",
"w  c #293239",
"e  c #33383A",
"r  c #323023",
"t  c #4A1D04",
"y  c #551E0B",
"u  c #4A220A",
"i  c #5A260E",
"p  c #5B290D",
"a  c #56270B",
"s  c #482615",
"d  c #5B2512",
"f  c #5B2911",
"g  c #552912",
"h  c #543813",
"j  c #683116",
"k  c #593625",
"l  c #663D27",
"z  c #3D4428",
"x  c #37423D",
"c  c #3A411D",
"v  c #5E451B",
"b  c #454929",
"n  c #49552B",
"m  c #555C2D",
"M  c #565A35",
"N  c #4F4A34",
"B  c #6A422A",
"V  c #734D2F",
"C  c #5C6835",
"Z  c #6A783B",
"A  c #6A6937",
"S  c #6A4D1D",
"D  c #2C3A45",
"F  c #373E43",
"G  c #394448",
"H  c #3A4A55",
"J  c #354A4F",
"K  c #3F5162",
"L  c #454D54",
"P  c #49545B",
"I  c #4A504C",
"U  c #687642",
"Y  c #747548",
"T  c #6A6641",
"R  c #455966",
"E  c #515E69",
"W  c #4B606D",
"Q  c #586469",
"!  c #496372",
"~  c #566A78",
"^  c #57717A",
"/  c #677479",
"(  c #6A716F",
")  c #95562E",
"_  c #8B5537",
"`  c #995835",
"'  c #8D4E2D",
"]  c #A35937",
"[  c #927439",
"{  c #A2603A",
"}  c #92764C",
"|  c #76873D",
" . c #798848",
".. c #6A827F",
"X. c #92AD3D",
"o. c #8B8339",
"O. c #86984B",
"+. c #908E51",
"@. c #A69151",
"#. c #9DB847",
"$. c #97AA56",
"%. c #94A64D",
"&. c #A1BB4A",
"*. c #A4B956",
"=. c #AFB059",
"-. c #A79C65",
";. c #9CAB64",
":. c #B9B977",
">. c #B1AD69",
",. c #9E9961",
"<. c #C2B975",
"1. c #A8C44C",
"2. c #AAC453",
"3. c #AEC954",
"4. c #AAC357",
"5. c #B1CD56",
"6. c #B3CC5B",
"7. c #B3C35A",
"8. c #B6D455",
"9. c #BAD455",
"0. c #B6D35B",
"q. c #B9D45B",
"w. c #BCDA5B",
"e. c #BCDA54",
"r. c #B4D14F",
"t. c #ADC762",
"y. c #B5C966",
"u. c #B6D362",
"i. c #BAD462",
"p. c #BCDA62",
"a. c #BAD468",
"s. c #B9C876",
"d. c #BCD373",
"f. c #C2DD5C",
"g. c #C6DE57",
"h. c #C0CF55",
"j. c #C3E35C",
"k. c #C3DC64",
"l. c #C3DD6B",
"z. c #C3D569",
"x. c #CCCF76",
"c. c #E8CC77",
"v. c #EDD67A",
"b. c #F6D779",
"n. c #EAD16B",
"m. c #C5E264",
"M. c #C7E56B",
"N. c #D2EE75",
"B. c #F6EA7D",
"V. c #F5EE7E",
"C. c #597686",
"Z. c #536E81",
"A. c #677987",
"S. c #737D86",
"D. c #78878B",
"F. c #728C97",
"G. c #7695A7",
"H. c #7897AB",
"J. c #7CA5B7",
"K. c #808D95",
"L. c #85959A",
"P. c #8C9AA2",
"I. c #8C9CA8",
"U. c #8EA0A5",
"Y. c #93A3AB",
"T. c #95A6AB",
"R. c #84A7B9",
"E. c #9BABB4",
"W. c #9DB2BD",
"Q. c #86B2BB",
"!. c #A3B3BA",
"~. c #A3AAAE",
"^. c #9EB089",
"/. c #BCD897",
"(. c #CACA96",
"). c #CBD795",
"_. c #D0D787",
"`. c #F7DE8D",
"'. c #E9E789",
"]. c #F5ED85",
"[. c #F5ED8A",
"{. c #F8EB85",
"}. c #FFFB8C",
"|. c #F7F188",
" X c #F9EB93",
".X c #FFFD93",
"XX c #FFFE9A",
"oX c #F8F392",
"OX c #D2D7AB",
"+X c #D9E5B0",
"@X c #E1E8B7",
"#X c #DBE09F",
"$X c #8BB5C8",
"%X c #94BDD3",
"&X c #93B5C7",
"*X c #A8BAC5",
"=X c #96C6D8",
"-X c #8FC1DC",
";X c #AEC2CA",
":X c #B6CAD5",
">X c #BBD1DB",
",X c #AFC7D0",
"<X c #9DDBFB",
"1X c #9CD8F6",
"2X c #9CCBE4",
"3X c #A3DAF5",
"4X c #A2DCFC",
"5X c #A9DBF7",
"6X c #B3DEF6",
"7X c #AED5E8",
"8X c #9CE3FE",
"9X c #A4E3FF",
"0X c #ABE4FE",
"qX c #ABEBFF",
"wX c #A9E6FB",
"eX c #B3E4FC",
"rX c #BCE4FB",
"tX c #B3ECFF",
"yX c #B9EAFE",
"uX c #B5F6FF",
"iX c #ABF1FF",
"pX c #C4D6DF",
"aX c #C5DAE7",
"sX c #CAE3EB",
"dX c #C5E4F4",
"fX c #CBE6F5",
"gX c #CDE9F6",
"hX c #CBE6F9",
"jX c #CDE9FA",
"kX c #C4E7FC",
"lX c #D1E6F4",
"zX c #D2E9F6",
"xX c #D2ECFC",
"cX c #D8ECF9",
"vX c #D5F3FE",
"bX c #DBF4FE",
"nX c #DCFAFF",
"mX c #D9F5FB",
"MX c #C7F4FF",
"NX c #E2FCFF",
"BX c #EBFEFF",
"VX c #E7F4FA",
"CX c #FDFEFD",
"ZX c #F4FAFB",
"AX c #F0EEEC",
/* pixels */
"q.q.q.q.q.q.q.8.k.k.%.C z 0 n Y *.M.q.8.8.q.q.q.q.q.q.q.q.q.9.9.q.q.6.w.j.$.U z 0 b Z *.M.q.8.u.0.q.0.q.q.q.q.q.0.8.u.e.u.q.q.q.",
"q.q.q.q.0.8.8.k.%.5 o           @ C i.k.6.q.q.q.q.q.q.q.q.q.u.0.q.0.j.>.z             X m 6.f.0.q.q.u.q.q.q.q.q.e.0.0.4.3.q.0.q.",
"q.q.q.q.q.0.M. .o   % K.*XW.T.Q +   5 ^.x.u.9.9.q.6.q.q.q.q.q.q.0.j.%.+   7 D.E.!.*XQ     < *.a.8.q.q.q.q.q.q.q.0.u.s.OX@Xt.w.q.",
"q.q.q.q.8.f.O.o     . P sXnXmXNX:Xx   b (.t.9.0.h.q.i.q.0.i.q.8.k.$.o   / gXnXxXBX*Xe       < y.q.q.q.q.q.q.0.q.8.d.+Xs.).y.q.q.",
"q.0.q.6.9.y.@   +.+.2   % :XvXsXvXlXe   ( _.8.q.q.q.0.6.2.5.i.q.i.5   S.NXjXdXnXL.    N -.N   m m.0.0.0.q.q.q.q.i.y.s.#Xy.i.0.0.",
"q.8.9.9.k.Z   N XXXXoXA   7 aXxXdXbX:X. @ y.q.q.i.9.0.1.&.1.q.k.O.  e bXfXsXnXT.  o ,.XXXX'.@ o $.e.q.0.q.q.q.u.q.i.s.#Xs.u.q.q.",
"i.q.h.q.k.5   (.oX'.|.XXM   G mXhXhXNXI   O.m.q.q.q.i.3.6.6.0.k.n   L.nXdXxX:X$   ,.XXB.'.XXY   C 0.6.a.u.0.p.0.8.9.q.7.i.q.q.q.",
"q.q.i.z.6.@ @ '.|.{.].|.[.5   K.bXdXNXT.  n k.8.q.q.q.i.q.q.i.3.+ $ aXxXfXvXI   Y XXB.].[.}.>.  n 1.#.4.1.#.3.0.q.9.8.q.q.q.q.q.",
"h.9.9.z.*.o 2 [.{.[.V.[..X<.  $ aXxXjXaX* + y.e.0.q.q.q.q.0.m. .  P NXfXmXU.  0  X[.[.[.].}.<.  z 6.&.#.2.1.#.0.y.9.q.q.q.q.q.q.",
"q.9.5.s.OX* @ '.{.[.].|.]..XT   ( nXdXbXL   O.l.0.q.q.q.q.0.M.m   L.bXhXzXq   >.XX].[.[.].oX>.  z m.q.u.0.w.0.q.i.q.q.i.q.q.q.q.",
"i.q.z.x._.r   _.}.[.[.].{.|._.@ X >XjXnXL.  C k.8.q.q.q.q.q.a.< . :XgXbXL.  N }.].].].[.].XX+.  Z j.0.q.0.q.q.q.q.q.q.q.q.q.q.q.",
"9.6.).(.x.A   Y .X].[.|.|.].XXY   / nXxX,X  4 q.0.q.q.q.8.e.*.  w bXgXzXq   :..X].].|.{.]. Xr   $.w.q.q.0.0.8.q.q.9.q.q.q.q.q.q.",
"9.9.6.s.@X;.  2 [.|.[.].].].}.x.  % aXkX6X7 o 3.0.r.8.0.8.p. .  Q jXMXE.  b oX].].|.].V..X:.  4 a.8.9.q.w.q.q.q.q.q.q.q.q.q.q.q.",
"q.q.q.y.6.l.z   -.}.].|.].].V.XXT   G.5X5XJ   $.N.k.l.l.l.N.C   G.9XqXH   -.}.].].|.].V.XXM   | M.8.q.q.0.0.q.q.q.q.q.q.q.q.q.q.",
"9.q.9.q.u.k.%.4 x.|.].].|.{.{.{.-.  G uXuX^   I U n n b m U r   $XuX2X. @ v.{.[.].|.[.}.x.. @ 5.q.q.q.q.0.0.q.q.q.q.q.q.q.q.q.q.",
"q.q.q.9.q.u.8.z.[.|.].[.|.{.v.n.v.2   F.R $                     7 C./   T b.c.v.V.[.'..XY   U M.r.0.9.q.0.0.0.0.q.q.q.q.0.q.q.q.",
"q.q.q.q.q.q.0.6.x.'.|.{.B.n.c.b. Xk       X G ( P.E.!.!.T.K.Q q         } {.c.n.v.{.|._.X   A =.k.k.8.5.6.q.9.q.q.q.q.q.q.q.q.q.",
"q.q.q.q.q.q.0.j.|   :.B.c.n.b.<.0   . F P.aXvXnXnXbXmXbXbXnXnXxX:XD.9   . M c.b.c.n. XT   s i a S +.y.l.q.6.y.i.q.q.q.q.q.q.q.q.",
"q.q.q.q.q.9.6.k.O.  3 _.b.`.} O   F &XbXnXxXhXhXhXhXfXgXfXfXhXjXcXnXgXF.6   2 <.b.b.:.  O _ j i i t h [ r.z.+Xx.q.q.q.q.q.q.q.q.",
"q.q.q.q.q.q.q.9.z.b   }  XV   # F.bXbXfXhXhXjXjXzXhXzXhXzXzXjXjXhXfXjXbX7XP   X -.`.0   k ] ' y d p d t h } OXx.6.q.q.q.0.q.q.0.",
"q.q.q.q.q.u.w.9.k.$.  @ N   & *XVXgXgXzXxXgXjXjXgXjXxXxXxXhXjXjXjXxXzXgXjXyXC.  : N   , ` ) ] j a a f f d y v ^.z.8.q.q.q.q.q.0.",
"0.q.0.q.q.q.4.x.>.} k     & >XbXhXhXhXhXhXxXxXhXxXhXgXhXhXjXjXzXjXjXjXhXjX5XtXF.    # V ` ) ` ' i g a a i f y h ,.k.0.i.q.q.q.q.",
"w.0.q.0.p.=.#X(.) ] V   $ ;XvXkXjXjXjXxXgXxXhXjXhXxXhXxXxXhXhXjXjXjXjXhXjXrX<XyXC.  : ` ) ` ` ' i i i a i i f a u o.f.q.0.q.q.q.",
"q.0.q.q.q.s.(.} ) ` :   L.VXfXjXjXjXhXxXhXjXhXxXhXxXjXjXhXxXxXjXxXjXjXzXjXkX4X<XeXK . s ] ` ` ` j i i a i i i f i u +.f.0.0.q.q.",
"0.q.q.q.q.i.} ' ] k   L nXfXgXjXjXjXjXjXjXjXjXjXjXjXxXhXjXxXhXhXhXjXjXjXzXjX9X<X9X2X* o _ ` ` ` l p a i i f i i p d i =.p.0.q.q.",
"q.q.q.q.a.@.) ] ' O   ;XvXhXjXhXhXjXhXjXjXjXjXjXxXhXxXhXjXhXjXxXlXxXhXjXjXkX5X4X4XtXC.  s ` ) ` ' a a g d a i i a a a S a.9.0.q.",
"q.q.h.w.y.` ` ] l   L NXdXxXsXmXvXdXbXbXhXjXjXjXxXhXhXxXhXzXjXjXlXjXnXxXgXvXeX<X4X4X2X$ . _ ` ` ' p i i i i f i a d a u %.m.0.i.",
"q.i.9.p.-.) ` ` s   Y.bXhXhXbX:XL < I *XbXgXjXjXhXgXxXhXxXhXxXgXjXxXL.q 7 ( 6X4X4X<XtXK   B ] ] ) p a g i i a i p f p y A a.0.q.",
"q.q.9.z.@.' ) ) O # >XxXjXxXaX6   X   & >XxXhXjXxXfXfXdXjXjXzXfXvXP.    o   R 0X<X<XqXH.  , V _ ` f i i i i a f i i p y j i.w.0.",
"q.i.q.i.{ ' ] '   e vXxXhXnXK.  P cXQ   S.nXfXjXhXbXbXnXvXjXjXjXvXe   T.pX& . %X9X<X0X%X  o O , a u f f i d d a p p p i h =.p.q.",
"q.i.9.i.[ ) ] l   E nXsXlXNX~.. !.BX*XX L.vXhXjXxXW.A.S.:XxXjXjXbXL q zXNX( % aXrX3X4X3X6   @ - = ; , t g g i i i d a p a %.p.0.",
"q.q.q.i.@.' ] l   ( nXlXZXCXCXAXCXBXcXaXxXjXjXxXaX6     R vXjXjXxXfXdXcXCXCXAXCXCXmX5X4Xq   = ; ; ; = = > y f i i p p p h %.2.i.",
"q.q.q.p.@.' ] l   / nXZXCXCXCXCXZXCXZXzXhXxXjXhXgX;X( D.aXjXjXjXgXxXcXZXCXCXCXCXCXCXcX3X9   : ; ; ; ; ; ; ; , p p p a y S 4.1.u.",
"q.q.q.p.=.) ] l   Q BXZXCXCXCXCXCXCXCXxXjXjXjXxXnXnXvXnXNXbXjXjXzXfXVXCXCXCXCXCXCXCXZXeX8   : ; ; ; ; : ; ; ; > g a d t [ m.q.q.",
"q.8.9.i.8.[ ` B   L BXCXCXCXCXCXCXCXCXxXjXjXxX>XL U.bXhX^ / xXxXgXhXbXCXCXCXCXCXCXCXBX1X$   ; ; ; ; ; ; ; - - - - u d a 4.w.0.q.",
"q.8.9.q.3.=._ ,   9 fXZXCXCXCXCXCXCXVXgXjXhXvX*X  . e 9   9 sXjXjXjXzXZXCXCXCXCXCXCXvX$X  o : ; ; - ; ; - - - ; - ; t +.p.0.q.q.",
"q.q.q.q.q.8.Z O O   W.bXVXCXCXCXCXVXlXxXjXjXjXbXY.9     G :XxXjXxXjXhXdXVXZXCXCXZXdX0XC.  O : : : ; ; ; ; : - ; > O b k.q.q.q.0.",
"q.0.q.0.q.8.z.A o   P VXgXzXcXcXlXgXgXhXjXjXjXjXbXlX:X>XbXvXjXjXlXjXrX3X3X5XrXeX3X<X5X8   @ ; ; ; ; ; ; ; ; > > O s 7.e.q.q.q.q.",
"w.q.q.q.q.8.h.k.A     T.nXdXhXjXgXjXjXjXjXjXjXjXhXjXvXvXzXhXjXjXxXkX4X8X4X4X4X<X<XiXF.  o @ : ; = ; ; ; - - ; O b 7.w.u.q.8.q.q.",
"q.q.0.q.q.i.q.8.j.U   $ ,XnXdXjXjXjXjXjXjXjXjXjXjXjXlXhXhXjXjXjXrX5X4X4X4X4X4X1XtX$X#   o   O : - - ; ; ; : O m 7.e.8.a.u.q.q.0.",
"q.q.0.0.q.q.q.q.0.m.C   % !.NXxXfXjXgXjXjXjXgXjXxXgXjXjXjXjXxXdX4X<X<X4X4X<X<XtX%X7   / T.#   O : ; : = @ O Y k.1.3.q.8.q.q.q.q.",
"q.q.w.q.i.q.q.0.0.q.z.m   X / fXnXvXhXgXhXjXjXjXjXjXjXzXxXkX6X3X5X4X4X<X<XqX0XG.&   Q bXNX*X%   O > O o     + Z 2.i.p.0.q.9.q.q.",
"q.0.0.u.2.6.w.0.q.0.9.g.Y *   7 D.>XmXNXvXxXjXjXkXhXhXjXrX4X3X4X4X9XqXqX5XR.G     / cXjXdXnX,X$   o     I Q X o & n t.w.8.q.q.q.",
"q.q.0.3.1.3.w.0.q.q.a.7.+XOXb     # G D.*XaXzXvXnXvXMXyXqXqXqX0X4X2XR.^ 8     q !.nXjXhXfXdXbXE.    # K 6XnXD.$ #   4 y.w.0.q.q.",
"q.q.q.3.#.1.w.0.q.q.q.9.y.(.d.(.M @       $ 9 G P W ~ Z.~ W R D 6 .     o e P.cXvXdXjXbXbXNXvXBX/   L kX<X4XvXsX>XI    .m.0.0.q.",
"q.0.q.q.0.q.0.q.q.q.9.9.q.6.s.d.l.6.$.x   X .                   X q P G.>XVXbXhXjXnXgX;XY.L.Y.:XsX9   %XwX4XkXgXNXK.  Z m.0.q.q.",
"q.0.q.q.q.q.q.9.q.a.q.q.u.u.0.u.5.q.N. .  D.zX;XW.T.U.P.U.T.!.:XaXxXbXnXxXjXkXbXsXS.6           w e   ~ qX1XrXgXnXQ   Z m.0.q.0.",
"q.q.q.q.q.q.9.9.q.i.q.q.q.q.8.w.m.0.4.n   K.nXvXnXnXnXnXNXnXbXvXjXjXhXfXhXhXbX!.%   X D ! C.! w       q 0X<X6XfXvXE.  + 4.w.0.q.",
"q.q.q.q.q.q.9.9.9.q.9.0.0.0.k.*.m 2       / bXdXfXhXgXfXfXhXfXhXjXjXjXjXhXnXU..   R =X0XtXeXtX9X&XH     R.qX3XjXdXNXL   $.f.q.q.",
"0.q.w.0.q.q.i.i.q.9.q.0.q.k.%.o   . q L   G bXhXjXjXjXjXjXjXgXjXxXjXjXhXvX;XX   F.yX0X<X<X3X3X8X8XtXC.  % =X0XdXbX:X6   *.k.q.q.",
"q.q.0.0.q.i.t.6.z.q.q.0.w.y.&   ^ =X5X6X6   >XxXhXjXyXrXrXjXjXxXjXjXjXhXvXG   A.yX<X4X4X4X4X4X4X4X4XuXQ   K wXMXP..   n f.0.q.q.",
"q.q.q.q.q.5.).).7.q.q.0.f. .  H uX9X<XqX^   / NXjX4X5X3X4XeXkXxXjXjXgXbXW.  q eX<X<X4X4X4X<X4X4X4X4X8X7X6   =XvXe   C a.8.0.q.q.",
"q.q.q.h.i.s.s.(.s.8.r.y.j.C   G.qX1X5X4X=X# X D.%X4X4X5X<X<XyXxXjXjXgXbXQ   G.qX<X4X4X4X4X4X4X4X4X4X<XtXC.  Q D.. 2 l.9.q.q.q.q.",
"q.q.6.k.5.@X).#X).0.9.0.m.|   ^ tX1X4X<XiXF.    D qX4X4X4X9X=XaXxXhXjXxXw   =X9X3X4X4X4X4X4X<X9X4X4X4X9XR.      . O.f.q.6.9.q.q.",
"q.q.q.h.8.s.s.s.a.i.0.0.p.*.  # $XeXwX3X$X^ o   R qX<X4X4X5X7 F vXjXjXxX7 # 2X9X4X4X4X9X4X9X4X4X4X4X<X9X=X. + C %.#.0.4.#.q.0.q.",
"h.q.q.q.q.9.6.5.9.0.0.q.8.m.U   . D J %     o   I.qX<X<X0X$X  F cXhXhXxX7 $ 2X9X4X4X4X<X4X4X4X4X4X4X4X0X=X  1 0.5.X.#.2.3.w.q.q.",
"q.q.q.q.q.w.3.1.q.i.0.3.0.q.z. .1     o c z   8 3X9X<X<XqXA.  S.NXfXbXsX9   %X9X4X4X4X4X4X4X4X4X<X4X4XqXQ.  5 5.8.6.5.1.8.q.q.q.",
"w.q.0.0.q.u.0.#.p.6.3.#.u.u.q.k.0.$.$.6.d.4   G.qX<X4X4X0Xw   ,XvXcXY.%     J.iX<X4X4X4X4X4X4X9X4X4X<XqX^   Z M.0.q.0.0.q.q.q.q.",
"0.0.0.0.0.1.6.&.*.&.4.#.2.0.1.0.0.w.p.m. .  H tX<X4X4X0XQ.  6 *XNXU.    P G.3X<X4X4X4X4X4X9X4X4X5X<X9X7X6 . #.k.0.q.q.q.0.0.q.q.",
"q.q.0.0.0.2.%.#.#.#.4.#.#.#.#.u.0.8.0.m.m   H.iX<X4X4XeXJ     . G &   H.uXqX<X4X4X4X4X4X4X4X<X<X<X4XtXR   n l.0.8.q.q.q.q.q.q.q.",
"q.q.q.q.0.0.1.6.0.0.6.8.2.3.2.0.q.0.0.k.C   F.tX1X1XtXH.  2 Z 1     R tX1X1X<X<X4X<X3X<X4X4X4X<XwXeX^   @ 4.p.0.9.0.0.q.q.q.q.q.",
"q.0.q.q.q.q.q.w.q.0.q.q.0.i.u.0.q.q.0.f.$.  $ 2XyXqX=X%   O.M.d.z   R.uX0XtXtXtXqXqXqXtX9X<X9XqX$XD   + $.m.0.0.0.0.0.q.q.q.q.q.",
"q.q.q.q.0.q.q.q.0.q.q.q.q.q.q.q.q.q.0.8.p.n   % R K $   m m.6.m.m   H ! R ! R ! ! ! ! Z.1XwX-X8     4 ;.w.8.0.q.w.q.0.q.q.q.q.q.",
"q.q.q.q.q.q.q.q.q.q.q.q.q.q.q.0.q.q.q.0.0.d.M         C a.8.0.e.$.X                     ^.OX^.  2 Y i.g.r.w.u.q.q.q.q.q.q.q.q.q."
};
