/* XPM */
static char *_bc2a88b16994e9ba1d7eee33c755102024b8oyUFbGge7y0[] = {
/* columns rows colors chars-per-pixel */
"64 64 214 2 ",
"   c #000000",
".  c #0B0401",
"X  c #040A04",
"o  c #0B0B05",
"O  c #0C0D09",
"+  c #140A05",
"@  c #160B07",
"#  c #0C1509",
"$  c #0D1B0A",
"%  c #091107",
"&  c #121309",
"*  c #141B0C",
"=  c #1A1C0C",
"-  c #220D04",
";  c #291508",
":  c #381C0A",
">  c #1B210F",
",  c #13240E",
"<  c #182911",
"1  c #1D3916",
"2  c #21260E",
"3  c #242A13",
"4  c #222611",
"5  c #2C3316",
"6  c #24371A",
"7  c #343C19",
"8  c #393F1E",
"9  c #3F2210",
"0  c #411E06",
"q  c #432108",
"w  c #4C2609",
"e  c #552B0A",
"r  c #452412",
"t  c #542C16",
"y  c #5E3119",
"u  c #65330C",
"i  c #68361B",
"p  c #763E17",
"a  c #23441B",
"s  c #3A421C",
"d  c #29531E",
"f  c #2A4E21",
"g  c #264A20",
"h  c #2D5523",
"j  c #36682B",
"k  c #3B782B",
"l  c #45521E",
"z  c #424B1F",
"x  c #7F4110",
"c  c #444E24",
"v  c #4D5926",
"b  c #4A5525",
"n  c #515C25",
"m  c #525D28",
"M  c #4E5337",
"N  c #59662B",
"B  c #5C6A2D",
"V  c #556228",
"C  c #5B6835",
"Z  c #417D35",
"A  c #616D2E",
"S  c #697933",
"D  c #697733",
"F  c #615E42",
"G  c #74755B",
"H  c #894511",
"J  c #9C4F14",
"K  c #944B12",
"L  c #89460F",
"P  c #A75414",
"I  c #B65B18",
"U  c #874623",
"Y  c #9E5329",
"T  c #A1532A",
"R  c #AB592C",
"E  c #B45D2F",
"W  c #977E30",
"Q  c #BA6331",
"!  c #C36218",
"~  c #D76C1A",
"^  c #EC761C",
"/  c #E7741C",
"(  c #F47A1D",
")  c #FB7D1E",
"_  c #F2771B",
"`  c #C76733",
"'  c #D66D37",
"]  c #D27135",
"[  c #EE7621",
"{  c #F37A2A",
"}  c #F47A24",
"|  c #EB7A3D",
" . c #E5763B",
".. c #FA7D34",
"X. c #F27C3E",
"o. c #FA7D3C",
"O. c #F77C32",
"+. c #C25812",
"@. c #FC7E40",
"#. c #F57F40",
"$. c #4A8B3B",
"%. c #448635",
"&. c #4A9836",
"*. c #41842F",
"=. c #76873B",
"-. c #7E903E",
";. c #52AA3D",
":. c #55B23F",
">. c #4FA339",
",. c #529A42",
"<. c #4E9C42",
"1. c #7C8843",
"2. c #5AAB49",
"3. c #56A345",
"4. c #57B440",
"5. c #58B741",
"6. c #5ABC43",
"7. c #5EB44C",
"8. c #64BD51",
"9. c #7DB049",
"0. c #5EC245",
"q. c #63CB4B",
"w. c #6AC955",
"e. c #6ED25A",
"r. c #70D55B",
"t. c #73DC5E",
"y. c #76E260",
"u. c #78E562",
"i. c #7AE964",
"p. c #91AB3D",
"a. c #FF811F",
"s. c #FE813C",
"d. c #FF8434",
"f. c #FA8C26",
"g. c #839540",
"h. c #889B44",
"j. c #8DA247",
"k. c #96AC4B",
"l. c #94A948",
"z. c #96B142",
"x. c #9EB947",
"c. c #9CB44A",
"v. c #9EB94B",
"b. c #9AB544",
"n. c #9DB151",
"m. c #A1BC46",
"M. c #A3BD4C",
"N. c #A0B64F",
"B. c #A4BD52",
"V. c #AABC5A",
"C. c #BFBE50",
"Z. c #ACBD68",
"A. c #B3BE6A",
"S. c #ABB676",
"D. c #FF8141",
"F. c #FF8945",
"G. c #F88443",
"H. c #A6C14D",
"J. c #A9C44E",
"K. c #B9D74D",
"L. c #A6C151",
"P. c #AAC552",
"I. c #AEC954",
"U. c #AFC959",
"Y. c #ADC658",
"T. c #B2CD55",
"R. c #B3CD5A",
"E. c #B2C25C",
"W. c #B6D356",
"Q. c #BAD455",
"!. c #B6D25B",
"~. c #B8D45B",
"^. c #BEDA5E",
"/. c #B8D950",
"(. c #B1CB4C",
"). c #ADC465",
"_. c #B4CC64",
"`. c #B7CC6A",
"'. c #B6C867",
"]. c #B6D261",
"[. c #BAD462",
"{. c #BEDB63",
"}. c #BAD669",
"|. c #BACD73",
" X c #BACD7B",
".X c #B6C774",
"XX c #C1DD5E",
"oX c #C6C756",
"OX c #C4E15E",
"+X c #C2DD62",
"@X c #C1DC69",
"#X c #C3C978",
"$X c #C4D67B",
"%X c #CCCC69",
"&X c #C4E261",
"*X c #C9E865",
"=X c #ABB383",
"-X c #BABBAB",
";X c #BAC986",
":X c #C2CD86",
">X c #C8D586",
",X c #C4CE96",
"<X c #CCD493",
"1X c #CCD698",
"2X c #D4DB99",
"3X c #DAD881",
"4X c #D3D7A7",
"5X c #D7DAB8",
"6X c #CCD8AC",
"7X c #D8E1B5",
"8X c #D9E1A8",
"9X c #E4E6AC",
"0X c #DCE1C2",
"qX c #E5E9CB",
/* pixels */
"~.~.~.~.~.~.~.~.~.~.~.~.~.~.~.!.~.Q.~.~.Q.Q.[.~.~.~.~.~.~.~.~.~.~.~.~.~.~.W.!.!.Q.~.~.~.~.~.!.~.~.~.~.~.~.~.~.!.!.W.}.K.[.~.~.!.",
"~.~.~.~.~.~.~.~.~.~.~.~.~.~.~.Q.K.^.~.~.~.Q.~.~.oX[.~.~.~.~.!.~.~.!.~.~.].>X].;X`.~.~.~.~.~.~.~.~.W.~.~.!.!.!.!.W.W.~.R.(.W.~.~.",
"~.~.~.~.~.~.~.~.!.~.~.!.~.~.~.~.Q.`.'.|. X~.Q.Q.~.~.~.~.~.~.~.~.~.!.~.~._.5X|.0X|.W.!.~.~.~.~.~.~.~.!.!.{.&X&X*X{.W..X6XqX).~.~.",
"~.~.~.~.~.~.~.Q.~.~.~.~.~.~.~.].(.:X4X:X,X'.K.~.~.~.].~.!.[.~.~.~.~.~.~.R.1X#X;X@X&X&X~.!.!.~.~.!.~.&X~.l.=.A S z.>X0X_.1X_.~.~.",
"~.~.~.~.~.~.Q.!.W.~.~.~.~.~.~.].K. X:X'.5X XW.~.~.Q.].T.P.R.[.~.W.~.~.~._.<X1XS.D B =.M.&X~.W.!.^.^.=.>           3 S.9X).~.~.~.",
"~.W.Q.Q.~.J.+X(.x.~.}.L.P.~.~.~.K.R.,X7X.X~.~.~.~.~.~.J.H.H.~.~.~.~.~.!.~.!.m       X X v P.+X&Xx.6   X a $.,.$.6   . =X$X~.~.~.",
"~.~.[.~.XXm.V.E.b.c.U.H.x.~.~.].Q.Q.|._.W.~.~.~.~.~.[.I.I.R.~.~.~.~.~.~.+Xv   , k *.j ,   * j.g.o   f 8.y.u.y.y.u.<.X   j.XX!.~.",
"Q.~.[.~.T.B.M.M.[.I.I.~.H.I.~.~.~.Q.~.Q.W.~.W.~.~.!.~.~.~.[.~.~.~.~.!.&X1.  , 4.0.0.0.6.h   # o X %.u.t.e.e.e.e.e.u.&.X 4 ~.~.~.",
"Q.K.Q.~.).!.Q.~.Q.Q.Q.~.+X~.~.!.Q.~.[.[.[.~.~.~.~.~.!.~.~.~.~.~.W.~.~.!.=   &.0.:.:.5.5.q.1 X # 2.u.e.e.r.r.r.r.e.e.i.h   g.+X~.",
"[.Q.Q.|.5X'.Q.~.~.~.~.~.!.~.~.Q.~.~.Q.~.~.~.~.~.!.~.~.~.~.~.~.~.~.!.&X=.X d q.:.:.:.:.q.k X % 7.y.e.r.r.r.r.r.r.e.e.t.3.  N &X~.",
"[.W.#X#X%X<X|.~.[.~.~.~.~.~.!.Q.~.~.W.W.~.~.~.~.~.~.~.~.~.~.~.~.~.~.~.6   >.0.:.:.:.0.*.  X 7.y.e.r.r.r.r.r.r.r.e.e.t.2.  c +X!.",
"K.R.,X4XoX<X|.Q.Q.~.~.~.~.~.~.~.~.~.~.~.~.~.~.~.~.~.~.~.~.~.~.Q.~.XXk.  1 0.:.6.:.6.;.%   ,.y.e.r.r.r.r.r.r.r.r.r.e.u.,.  B &X!.",
"oX/.W..X0XA.~.Q.~.~.~.~.~.~.~.~.~.~.~.~.~.~.~.~.!.~.~.~.~.~.~.~.!.+XB   k q.:.:.6.6.<   %.u.e.e.r.r.r.r.r.r.r.r.r.e.u.f   j.&X!.",
"[.[.]._.E.[.Q.Q.~.~.~.~.~.~.~.~.~.~.~.~.~.~.~.~.~.~.W.~.~.~.~.~.~.XX4 X ;.:.:.:.q.d   h y.e.r.r.r.r.r.r.r.r.r.r.e.y.2.  3 ~.~.~.",
"Q.Q.Q.Q.}.[.Q.~.[.Q.W.~.~.~.~.~.~.~.~.~.~.~.~.~.~.~.~.~.~.~.Q.T.XXN.. 1 0.:.:.q.*.  , e.r.r.r.r.r.r.r.r.r.r.r.r.t.e.,   h.^.!.~.",
"[.~.~.Q.~.[.Q.~.[.Q.Q.~.!.~.~.!.W.~.~.~.P.!.~.~.~.!.~.[.Q.Q.~.:X$XS   j q.:.:.:.$ X 2.t.e.r.r.r.r.r.r.r.r.r.e.r.t.a   V &X!.~.~.",
"~.~.~.~.~.~.~.~.~.~.~.~.~.R.~.!.W.~.~.].x.U.~.Q.~.~.~.[.Q.~.Z.7X>X8   &.0.4.0.f   j u.e.r.r.r.r.r.r.r.r.e.e.t.t.f   7 {.~.!.~.~.",
"~.~.~.~.~.~.~.~.~.~.~.~.~.~.~.~.~.~.~.~.v.R.~.~.[.~.~.Q.Q..X8X%XA.O $ 6.4.6.&.  < t.e.r.r.r.r.r.r.r.r.r.e.t.e.1     7 ~.!.~.~.~.",
"~.~.~.~.!.~.~.!.~.~.~.[.[.!.~.~.~.~.].~.H.!.~.{.R.B.Q.R.~..X:X4X-X. d 0.4.6.,   2.y.e.r.r.r.r.r.r.e.e.e.y.8.,   h h   =.OX!.~.~.",
"~.~.~.~.~.~.~.~.~.~.~.~.[.m.I.~.W.~.[.U.P.I.~.].B.P.+X{.XXQ.E.}.C   *.0.4.6.h j y.e.r.r.r.r.e.e.r.e.t.y.$.X   j u.8.  7 ^.!.~.~.",
"~.~.~.~.~.!.}.~.~.!.~.[.XXP.P.m.L.M._.U.U.U.].}.R.I.V.n.M.T.&X{.> X 4.5.4.5.t.y.e.r.r.r.e.r.r.e.e.u.w.g   X $.y.e.e.$ = ~.~.~.~.",
"~.~.~.~.~./._.Y.#X<XR.Q.~.I.R.Y.L.x.p.M._.x.I.k.n = X   X # s N   a 0.4.4.q.e.e.e.r.r.r.e.e.e.u.t.%.%   1 8.y.e.r.e.% > ~.~.~.~.",
"~.~.~.~.~.I.7X4X#X5XE.XX~.E.I.+X!.I.I.x.+XP.l X   + 0 e q -       < &.0.0.e.r.r.r.r.r.r.e.t.u.2.1   X Z t.t.e.e.u.,.  b &X!.~.~.",
"~.!.~.~.~.R.<X<X<XA.Q.~.~.~.~.~.~.~.!.OXB.3   ; J / ( ) ( ^ ~ H ;     a 7.u.e.e.r.r.r.r.e.w.f X   g w.y.r.r.e.t.e., X k.{.!.~.!.",
"~.~.~.~.~.W. X=X4X$XK.~.~.[.[.~.~.W.OXl.#     e } ( / ^ ^ ^ ( a.( P :   % $.u.r.r.r.r.e.u.f   < ,.u.t.e.e.e.t.t.6   B &X!.~.~.!.",
"~.~.~.~.[..X4X<XA.].~.~.~.~.~.~.!.{.c.%   H w   q / ( / ^ ^ ^ / ^ a._ H .   j y.r.e.r.e.t.2.$.t.u.e.e.r.e.y.e.1   s H.[.~.~.~.~.",
"~.Q.Q.~.`.5XoX%X5XU.Q.~.~.~.~.!.^.B.*   K a._ e   q ^ _ ^ ^ _ ^ ^ [ { d.] ;   f t.r.e.r.e.t.u.r.e.r.e.e.t.3.$   c m.J.].].].~.].",
"~.~.~.[.[.).>X2X).[.!.~.~.~.~.~.~.5   H a.^ ^ } e   w _ ^ ^ ^ [ O.s.D.@.F.| r   h y.r.r.e.e.e.r.r.r.y.i.<.  X A ~.H.I.{.J.!.~.~.",
"~.~.~.~.[.~.;X:XQ.~.[.~.!.~.~.OXm   u ) / ^ / _ ( e   u ( ^ { o.D.D.D.o.@.D.G.9   j u.e.r.r.e.r.u.e.,.8.9.s j.&XP.P.].P.x.~.~.~.",
"!.XXoX~.~.~.R._.~.~.~.~.~.R.+Xg.  ; ^ _ ^ ^ _ / _ / : X L d.@.D.D.D.D.D.@.@.D.| ;   ,.y.e.t.y.e.Z $   N +XP.!.P.U.U.U.H.U.}.~.~.",
"~.~.!.~.Q.Q.~.Q.Q.[.~.~.~.Q.R.*   ! ( / ^ ^ _ ^ / ( ~ : R F.@.D.D.@.D.D.D.D.@.F.`   $ e.y.7.j X   X c z.].b.z.P.].z.P.U.L.J.~.].",
"~.~.~.~.~.~.~.~.[.~.~.~.R.OXn   H ) / ^ ^ ^ ^ ^ _ ^ _ s.D.o.D.D.D.D.@.D.D.@.@.@.F.U   a 6     & B c.W.R.].I.P.P.].H.U.L.b.x.J.{.",
"~.~.~.~.~.!.x.].[.J.P.[.+Xj.  ; ^ ^ ^ ^ ^ ^ ^ ^ ^ ^ o.@.@.D.D.D.D.D.D.@.D.@.D.D.@.#.;   X 5 =.R.&X[.~.~.~.{.~.].~.~.~.~.{.J.J.].",
"~.~.~.~.~.[.x.~.{.H.P.Y.{.7   I a.^ ^ ^ ^ _ ^ ^ ^ o.D.s.D.D.@.D.D.@.D.D.D.D.@.D.@.F.Y   v *X+X~.~.~.~.~.~.W.W.W.~.~./.~.W.~.{.~.",
"~.~.~.{.J.P.L.P.].P.B.H.-.  e ( / ^ [ ^ ^ ^ ^ ^ O.D.@.D.D.@.@.D.D.D.D.D.D.D.D.D.D.D.G.@ & T.R.~.~.~.~.~.~.~.~.~.~.~.~.~.~.~.W.~.",
"W.~.~.~.I.H.v.x.p.L.B.m.2   J ) / ^ ^ ^ _ ^ ^ O.D.D.D.D.D.D.D.D.D.@.D.@.D.@.D.D.D.o.F.i   h.+X~.~.~.~.~.~.~.~.~.~.~.~.~.~.~.W.~.",
"~.~.~.W.~.I.H._.M.L.!.=.    . I a.^ ^ ^ ^ ^ { D.D.D.D.D.@.D.D.D.D.D.D.D.@.D.@.D.D.@.F.Q   V OX!.~.~.~.!.~.~.~.W.!.~.~.~.~.~.~.!.",
"~.~.~.~.~.!.~.~.~.~.{.3 . x X . I ) / ^ / { D.D.D.D.D.@.D.D.D.@.D.@.D.D.D.D.D.D.D.@.D. .. 5 ^.!.~.!.~.~.~.~.~.~.~.!.~.~.~.~.~.~.",
"~.~.~.~.~.W.!.Q.W.OXh.  e a.J   . I } _ } D.D.D.D.D.D.D.D.D.D.@.@.D.D.@.D.D.D.o.@.D.D.@.- * !.~.~.~.~.~.W.~.~.~.~.!.~.~.~.~.~.~.",
"~.~.~.~.~.~.~.~.W.^.7   ! ( ) P . . ! ( o.D.@.D.@.D.@.D.@.D.D.@.D.D.D.D.@.D.D.D.D.D.D.D.; $ !.~.!.~.~.!.~.~.~.~.I.^.~.~.~.~.~.!.",
"~.~.~.~.~.~.~.~.XXk.. q ) / / a.J - ! s.D.D.D.D.D.D.@.D.D.@.@.@.o.@.@.D.D.D.D.D.D.D.D.| . 3 ~.~.~.~.~.~.~.W.~.U.H.W.^.!.!.~.~.~.",
"W.~.].~.].~.~.!.XXb   P ) / ^ ^ ( ( O.D.D.D.@.D.D.@.D.D.D.D.@.F.F.@.D.D.D.@.@.D.@.@.F.Q   v &X!.~.~.~.].~.~.}.P.v.I.].!./.!.~.~.",
"~.~.~.~.P.W.~.~.Q.* - ^ _ ^ ^ ^ ^ { D.D.D.D.D.D.D.D.D.D.D.D.#.i R F.@.@.D.D.D.D.@.o.F.t X h.+X!.~.~.~./.~.~.].!.U.].~.~./.!.!.~.",
"~.~.].T.M.I.~.!.oXg.+.} / ^ _ ^ ^ s.D.D.D.D.@.D.D.@.D.D.@.D. .+   T F.@.D.@.D.D.@.F.Q   5 ~.~.~.~.~.~.]./.].].].{.!.~.~.~.^.!.~.",
"~.~.~.P.m.I.~.^.XXf._ ^ ^ ^ ^ / o.D.s.D.o.D.D.D.D.@.D.@.@.@.F.` +   R F.@.@.@.o.D. .-   k.{.!.~.~.~.~.~.~.~.~.^.~.~.].~.~.~.~.~.",
"~.~.~.~.W.!.{.v.4 P ( ^ _ ^ ^ O.D.D.@.D.D.D.D.@.D.D.D.D.@.@.o.F.` . . ` F.@.@.@.G.r   A &X~.~.~.~.~.~.~.~.~.W.W.~.~.~.!.].~.~.~.",
"~.~.~.~.~.~.OXA . J a./ ^ ^ { D.D.D.D.@.@.D.D.D.D.@.@.D.D.D.@.@.F.E   @  .D.D.G.r   c +X~.~.W.~.~.~./.!.~.~.~.W.~.~.~.~.~.~.~.~.",
"~.~.~.~.~.~.^.< . ~ _ / ^ _ D.D.D.@.D.D.D.D.D.@.D.D.D.D.D.@.D.D.#.F.U   r F. .9   s I.~.!.~.~.~.I.U.~.!.~.~.~.~.~.~.~.~.!.~.~.~.",
"~.~.~.~.!.XXk.  w ) / _ ^ o.@.D.G.F.@.@.@.@.@.D.D.D.D.D.@.D.D.D.D.@.F.r   p ;   z J.M.~.~.~.~.~.v.L.].^.~.~.~.W.~.~.~.~.~.~.~.~.",
"W.~.~.W.~.+XA . J ) ^ / { D.F.` @ T F.@.D.D.D.D.D.@.@.D.D.D.D.@.@.@.F.] X   X n !.R.I.[.~.~.~.[.L.U.~.W.~.~.~.~.~.~.~.~.!.~.~.!.",
"~.~.~.~.~.+X5 . ~ _ / _ D.@.D.' .   T F.@.D.D.D.D.D.D.D.D.D.@.@.F.F.` :   = h.Q.~.P.~.~.~.~.Q.~.].~.W.~.~.~.~.~.~.~.~.~.~.~.~.~.",
"~.~.~.~.~.V.  : ) / ^ s.D.@.o.F.` +   T F.@.D.@.@.D.@.D.@.@.D.F.#.i .   c Y.+X~.!.!.~.~.~.!.~.~.~.~.].I.!.~.W.[.I.T.~.~.~.!.~.~.",
"~.~.~.~.+X1.  x } / { D.D.D.@.@.F.` +   T D.@.@.D.D.@.@.D.F.o.U .   4 h.+X~.~.~.Q.~.~.oX~.~.~.~.^.W.{.v.P.~.!.~.x.R.^.!.~.~.!./.",
"~.~.~.~.%XM   I ) [ D.@.D.D.D.D.@.F.` . : F.@.@.@.@.D.F.#.U - . O S Q.@X!.~.~.~.~.~.~.[.oX~.Q.~.].P.x.U.L.H.R.W.M.W.].].!.!.~.~.",
"~.~.~.~.~.> . / ( ..D.D.D.@.D.@.D.@.F.' ' D.@.@.F.F. .U @   . G S.+XQ.~.~.~.~.Q.~.~.~.~.~.~.XX~.~.~.H.H.v.v.L.P.H.z.!.I.x.!.~.~.",
"Q.~.~.+XB.  0 ) { D.D.D.D.D.D.D.@.@.G.D.D.D.F.F.` i .   O F E.$X;XK.~.[.~.~.~.~.~.~.~.W.~.T.Q.~.~.{.!.L.v.N.b.v.W.p.x.P.I.{.~.~.",
"~.~.~.&Xj.  u a.@.@.@.@.D.@.D.D.@.o.D.F.F.| T :     ; S V.<X>X<X$X!.~.[.~.~.~.~.~.W._.,X`.2X'.Q.W.^.].I.!.!.U.P.].W.!.P.!./.].~.",
"~.~.!.OXS X J d.@.D.@.@.@.@.D.D.F.F.#.E t .     7 h.~.+X[.|.;X X`.~.oX~.~.~.~.~.~.W. XqXE.4X`.Q.~.~.~.~.!.W.^.^.~.].~.!.!.!.~.~.",
"~.~.R.&XN   Q s.@.@.@.G.D.F.F. .R y +     > A N.XX&X[.!.~.[.'.Q.Q.Q.Q.~.~.~.~.~.~.}.].).0X.XQ.~.~.~.~.~.!.~.W.~.~.~.W.~.~.~.~.~.",
"~.~.!.&XB   ] F.F.F.D.#.Q U r .     * V j.Q.&X+X!.~.~.~.Q.~.Q.~.Q.~.[.[.~.~.~.~.~.W.~.!.6X XQ.~.~.~.~.!.^.!.~.~.~.~.~.~.~.~.~.~.",
"!.~.W.&XB   U T U i : .     X 3 B j.~.OXXX~.W.!.~.~.~.~.~.~.~.~.~.~.~.~.~.~.!.~.~.~.[.[.T.].~.~.~.~.~.~.~.~.~.~.~.~.~.~.~.~.!.~.",
"~.~.!.XXg.          X 3 v 1.B.~.&X^.~.!.!.~.!.~.~.!.Q.~.~.~.[.~.~.~.W.~.~.~.~.~.~.].~.~.~./.~.~.~.~.~.~.~.~.~.!.~.~.~.~.!.~./.~.",
"~.~.~.!.^.c.=.=.-.k.P.~.&X&X^.!.!.!.~.~.~.~.~.~.~.!.~.~.~.~.~.~.~.~.~.~.W.~.~.!.~.W.~.~.~.~.~.~.~.~.~.~.~.~.~.~.~.~.~.!.~.~.].~.",
"~.~.~.~.!.^.+X&X&XXX^.!.R.!.!.~.~.~.~.~.~.~.~.~.~.~.~.~.~.~.~.~.~.~.~.~.~.~.~.~.~.~.~.~.~.~.~.~.~.~.~.~.~.~.~.~.W.~.~.~.~.~.~.~."
};
