/* XPM */
static char *dc4fc55df3534bd8ca5b44a8bfe886be7yjYvShIqtqxdiHb[] = {
/* columns rows colors chars-per-pixel */
"64 64 200 2 ",
"   c #1B0400",
".  c #1E0C02",
"X  c #210D04",
"o  c #241005",
"O  c #2B1407",
"+  c #2C1509",
"@  c #2A180B",
"#  c #331A0B",
"$  c #3A1E0F",
"%  c #3B1F10",
"&  c #32210E",
"*  c #332211",
"=  c #372916",
"-  c #3A2C14",
";  c #392C19",
":  c #342718",
">  c #3E321A",
",  c #531C09",
"<  c #501907",
"1  c #461507",
"2  c #47210C",
"3  c #4C230D",
"4  c #56240C",
"5  c #59270E",
"6  c #5A290F",
"7  c #442513",
"8  c #4E2B17",
"9  c #492714",
"0  c #5B2B12",
"q  c #5B2A17",
"w  c #40351B",
"e  c #453B1C",
"r  c #5C331D",
"t  c #56301B",
"y  c #612D12",
"u  c #60351C",
"i  c #6C3519",
"p  c #673718",
"a  c #47392A",
"s  c #693F22",
"d  c #793E22",
"f  c #64451C",
"g  c #4E4621",
"h  c #585629",
"j  c #6C4A24",
"k  c #754226",
"l  c #7A462A",
"z  c #7C4427",
"x  c #6E5028",
"c  c #745E2F",
"v  c #775F37",
"b  c #67682E",
"n  c #646432",
"m  c #6B6E30",
"M  c #6F7235",
"N  c #737636",
"B  c #854B2D",
"V  c #8B4D2C",
"C  c #804525",
"Z  c #964E2E",
"A  c #8D502E",
"S  c #96512F",
"D  c #8B4F30",
"F  c #964E31",
"G  c #965433",
"H  c #985633",
"J  c #9B5935",
"K  c #985B3A",
"L  c #945938",
"P  c #A05B36",
"I  c #99693C",
"U  c #867B3B",
"Y  c #9C6C43",
"T  c #9E7244",
"R  c #9F7D49",
"E  c #847844",
"W  c #A17E49",
"Q  c #A36B56",
"!  c #7E863B",
"~  c #87873C",
"^  c #8FA93D",
"/  c #92AC3E",
"(  c #8A8941",
")  c #899543",
"_  c #929351",
"`  c #A2834A",
"'  c #A48B4B",
"]  c #A3924F",
"[  c #A89C55",
"{  c #A79853",
"}  c #97A749",
"|  c #97B142",
" . c #9BB545",
".. c #9EB946",
"X. c #9CB44A",
"o. c #9FB94C",
"O. c #95A257",
"+. c #A1BC46",
"@. c #A3BD4C",
"#. c #A2B04E",
"$. c #AAA45A",
"%. c #ABAA59",
"&. c #A8A953",
"*. c #A4BE52",
"=. c #AEB359",
"-. c #A8B857",
";. c #B1BB5C",
":. c #AEBC6C",
">. c #A6C14D",
",. c #A9C44E",
"<. c #ACCA4F",
"1. c #B2CA49",
"2. c #BAD64D",
"3. c #BAD94D",
"4. c #B7D74C",
"5. c #A6C152",
"6. c #AAC553",
"7. c #AEC953",
"8. c #ACC559",
"9. c #AFC95A",
"0. c #A7C158",
"q. c #B2C755",
"w. c #B1CD55",
"e. c #B2C45D",
"r. c #B3CD5B",
"t. c #B5D355",
"y. c #B9D455",
"u. c #B6D25B",
"i. c #B8D45B",
"p. c #BBDB5D",
"a. c #B9D952",
"s. c #AFC665",
"d. c #B3C463",
"f. c #B4CD63",
"g. c #B8CD63",
"h. c #B2C26A",
"j. c #B9C569",
"k. c #B6CC6A",
"l. c #BACE6B",
"z. c #BBC762",
"x. c #B6D361",
"c. c #BAD462",
"v. c #BCDC61",
"b. c #BAD269",
"n. c #B5D468",
"m. c #B2C273",
"M. c #BBC674",
"N. c #B6CB74",
"B. c #BACC73",
"V. c #BCC47D",
"C. c #BBCC7C",
"Z. c #B3C878",
"A. c #BDD17A",
"S. c #BDD674",
"D. c #BFE061",
"F. c #C0DE5E",
"G. c #D3D15B",
"H. c #C8C459",
"J. c #C3E35E",
"K. c #C0DD63",
"L. c #C9D86A",
"P. c #C5CB7C",
"I. c #C7CB76",
"U. c #C4D67D",
"Y. c #D9D171",
"T. c #C2E161",
"R. c #C5E468",
"E. c #B5B884",
"W. c #B5C581",
"Q. c #BBC481",
"!. c #B9CC86",
"~. c #BAC388",
"^. c #C2CB86",
"/. c #C5CD8E",
"(. c #C3D284",
"). c #C3D48A",
"_. c #CDD68F",
"`. c #C3CE95",
"'. c #C4CA98",
"]. c #CCD595",
"[. c #CFDA9E",
"{. c #C9D49A",
"}. c #D4DD9E",
"|. c #D1D796",
" X c #CAD6A7",
".X c #D2D2A2",
"XX c #D4DDA4",
"oX c #DDDFA3",
"OX c #D3DCAE",
"+X c #DAD8AA",
"@X c #CFD4B2",
"#X c #D4DAB5",
"$X c #CBC6A3",
"%X c #D9E4B0",
"&X c #D8E0BC",
"*X c #E2E9BC",
"=X c #DFDEC1",
"-X c #DCE1C1",
";X c #E4E8C7",
":X c #E8EED0",
/* pixels */
"i.i.i.i.i.u.i.i.u.i.i.i.i.i.i.i.i.y.u.y.y.i.g.i.i.i.i.i.i.i.i.i.i.i.i.i.t.t.t.i.t.i.i.i.i.i.i.i.i.i.i.t.i.i.i.p.u.t.n.4.c.i.i.i.",
"i.i.i.i.i.i.i.u.i.y.i.i.i.i.i.t.y.y.F.r.i.y.y.y.i.i.i.i.i.i.i.i.i.i.i.i.n.).n.W.k.u.i.i.i.i.t.i.i.i.u.p.u.i.i.u.p.t.i.9.<.y.i.i.",
"i.i.i.i.i.i.i.i.i.i.i.i.i.i.i.i.a.k.h.B.P.u.a.i.i.i.i.i.i.i.i.i.i.u.i.i.f.OXI.-XA.t.i.u.i.i.i.i.i.i.i.i.i.i.i.i.x.u.m.#X;Xs.i.i.",
"i.i.i.i.i.i.i.i.i.i.i.i.i.i.i.x.t.(.XXP.'.d.a.i.g.y.i.c.r.v.x.i.i.i.i.i.r.].P.~.x.i.i.i.i.i.u.i.i.i.u.i.i.u.i.i.t.S.-Xz.{.f.p.i.",
"i.i.y.i.i.c.i.r.t.i.i.i.u.i.i.x.1.B./.j.#XC.y.i.F.y.i.9.6.r.i.i.i.i.i.i.f.].'.(.t.i.i.i.i.i.i.i.p.u.i.i.i.i.i.i.i.g.:.oXh.i.i.i.",
"i.t.y.y.i.,.K.1.+.c.c.5.7.i.i.i.F.r.`.%Xm.i.i.i.y.r.i.,.>.,.c.i.i.i.u.i.i.r.i.w.i.i.i.u.i.i.p.i.7.u.i.p.i.i.i.i.i.c.P.XXB.i.i.i.",
"i.c.i.i.i.@.;.q.X.X.8.>...i.i.i.y.y.l.g.u.i.i.i.i.i.g.q.7.r.i.i.u.i.i.i.i.i.i.i.i.i.i.i.7.i.6.x.o.9.u.n.x.i.c.i.i.y.i.r.i.i.i.i.",
"y.i.c.i.y.*.@.@.i.7.7.i.>.7.i.x.y.u.c.u.a.i.u.i.i.i.i.c.i.i.i.i.i.i.i.i.i.i.i.i.i.i.i.c.@.0.o.0.9.X.o.0.5.o.7.i.c.y.2.i.y.i.i.i.",
"y.y.y.c.e.u.p.i.u.F.p.u.i.i.i.y.i.i.i.c.c.i.i.u.i.i.i.i.i.i.i.i.i.i.i.i.i.i.i.i.i.t.i.i.7.9.0.o.f.*.@.o.0.@...u.c.i.y.c.i.i.i.i.",
"i.y.y.N.&Xd.u.i.i.r.y.i.i.i.i.i.i.i.u.y.i.i.i.i.i.i.i.u.i.i.i.i.u.i.p.t.i.i.i.i.i.i.i.i.t.i.i.i.i.i.p.i.p.p.i.u.i.y.i.l.i.y.i.i.",
"g.u.b.P.Y.^.N.i.H.i.i.i.i.i.i.i.i.i.t.t.i.i.i.i.y.i.u.u.i.u.i.i.i.i.i.i.i.i.i.i.i.i.i.i.i.t.i.i.i.i.i.i.i.i.i.i.i.i.i.i.i.i.i.i.",
"F.r.{..XH._.B.y.i.i.i.i.i.i.i.i.i.i.p.i.i.i.i.i.i.i.i.i.i.i.i.i.i.i.i.i.i.i.i.i.i.i.i.i.i.i.i.i.i.i.i.i.i.i.i.i.i.i.i.i.i.i.i.i.",
"y.H.4.Z.=X:.i.y.i.i.i.i.i.i.i.i.i.i.i.i.i.i.i.i.i.i.u.i.i.i.i.i.r.y.r.i.i.i.i.i.i.i.i.i.u.i.i.t.i.i.i.u.i.i.i.i.i.i.i.i.i.i.i.i.",
"i.i.x.u.9.c.y.y.i.y.i.i.i.i.i.i.i.i.i.i.u.u.u.u.i.i.t.p.p.p.p.p.v.F.F.p.p.i.i.i.i.u.i.i.i.i.i.i.i.i.i.i.i.i.i.i.i.i.u.i.i.i.i.i.",
"i.y.u.y.L.c.i.y.c.i.t.i.i.i.i.i.i.i.u.i.i.p.v.p.c.r.d.;.=.%.%.[ ' { $.%.=.=.;.z.i.p.p.p.i.i.u.i.i.i.i.i.i.i.i.i.i.i.u.i.u.i.i.u.",
"i.y.u.y.i.i.i.i.i.i.i.i.t.i.i.t.t.i.p.v.8.=.$.' T I K H F G F Z Z F F F F G K I Y ` { %.9.v.D.p.u.u.i.t.i.i.t.c.i.t.i.i.i.i.i.i.",
"i.i.i.i.i.i.i.i.i.i.i.u.i.u.u.p.p.q.&.W I G F F G G G H H H H H J H H H H H H G G Z F G K v U #.p.v.p.x.i.i.c.i.y.i.i.i.i.i.i.i.",
"i.i.i.i.i.i.i.i.i.u.i.i.i.p.v.%.` K Z Z F H H H H H H H H H H H H H H H H H H H H J H H J d < 5 j ~ r.K.i.g.e.i.i.i.i.i.i.i.i.i.",
"i.i.i.i.i.i.i.i.i.i.i.v.x.%.Y F Z G J L H H H H H H H H H H H H H H G H H H H H H H H H G J i 5 , < r U 1.v.#XC.i.i.i.i.i.i.i.t.",
"i.i.i.i.u.i.i.i.u.i.v.=.Y G G H H G G H H H H H H H H H H H H H H H H H H H H H H H H G J J V 5 0 0 4 < p E OXP.r.i.i.i.i.i.i.i.",
"i.i.i.i.i.u.n.y.i.r.' F S H L H H H H H H H H H H H H H H H H H H H H H H H H H H H H H H H J i 4 6 6 6 4 , f E.S.u.i.i.i.i.i.i.",
"i.i.i.i.i.t.d.g.:.Y Z J H H H H H H H H H H H H H H H H H H H H H H H H H H H H H H H H H G J z 4 6 6 6 6 0 , u O.D.i.i.i.i.i.i.",
"i.i.i.i.i.7.%X$XL H H H H H H H H H H H H H H H H H H H H H H H H H H H H H H G H H H H H H H F y 4 4 4 6 6 6 4 , ~ D.u.i.i.i.i.",
"i.i.i.i.i.c./.Q S J H H H H H H H H H H H H H H H H H H H H H H H H H H H H H H H H H H H H H J i 4 6 6 4 6 4 0 5 < _ D.u.i.i.i.",
"i.i.i.i.i.c.I Z J H H H H H H H H H H H H H H H H H H H H H H H H G H H H H H H H H H H H H H J d 4 6 6 4 6 6 6 5 5 q -.p.i.i.i.",
"i.i.i.i.c.] H J G G H H H H H H H H H G H H H H H G H H J J J P J J J H J J H H H H H H H H G J V 4 6 6 6 6 4 6 5 0 , x v.i.i.i.",
"i.y.y.i.h.K H H H H H H H H H H H H G H H J P P J L G V B l l k k k k l l V S H P P P J H G G J V 4 6 4 6 6 6 4 5 5 0 , O.v.i.x.",
"i.i.i.v.$.Z H H H H H H H H H H H H J P J D k r 8 % # + o X X X o . o o o O @ $ 9 r s B L J P H H y 4 6 6 4 6 4 5 5 4 , c v.i.i.",
"i.i.r.K.` F H H H H H H H G J J P G l r % O X . . X X X o o o o o o o o O X X X . . . o # 8 k G H y 4 4 0 6 4 6 6 4 6 4 p f.i.u.",
"F.i.i.i.T F H H H H H H G P J l t # . . . X o o o o o o o o o o o o o o o o o o o o o o . . . # 7 3 4 y 4 6 6 6 6 6 6 4 r 8.i.i.",
"r.i.i.F.I P S H H H G J J l 7 o . X o O o o o o o o o o o o o X o o o o o o o o o o o o o o o X X o + 2 4 6 4 6 4 6 6 6 4 / v.i.",
"i.i.i.i.W Z J J G H P B 9 X . o X o o o o o o o o o o o o o o o o o o o o o o o o o o o o o o o o o X X O 3 y 6 4 6 6 4 u } 7.c.",
"i.i.u.v.{ F H G J H s o . o o o o X o o o o o o o o o o o o X o o o o o o o o X . o o o o o o o o o o o o . $ 5 0 5 0 4 j ,.,.i.",
"i.i.u.p.;.G G J G -   o o o o o o o o o o o o o o o o X o o o o o o o o o o o o o o o o o o X o o o o o o o . + 3 5 0 , U T.c.i.",
"i.i.i.i.7.I H V + X o o o o o X o o o o X o o o o o o o o o o o o X o o o o o o o o o o o o o o o o o X o o o o o 2 4 q 7.i.i.i.",
"i.i.i.i.t.#.L + X X o o o o o o o o o o o o o o o o o o o o o o o o o o o o o o o o o o o o o o o o o o o o o o o O 1 ( v.u.i.i.",
"i.i.i.u.i.u.N   + X o o o o o o o o o o o o o o o o o o o o o o o o o o o X o o o o X o o o o o o o o o o o o o O   g p.i.i.i.i.",
"i.i.i.i.i.u.i.n   o o o o o o o o o X o o o o X o X o o o o o o o o o o o o o o o o o o o o o o o o o o o o o O   w q.i.u.i.i.i.",
"u.i.i.i.i.t.p.p.n   X O o X X o o o o o o o o o o o o o o o o o o o o o o o o o o o o o o o o o o o o o o o O   e s.p.t.i.i.i.i.",
"i.i.i.u.i.i.i.i.D.! o   O O o o o o o o o o o X o o o o o o o o X o X o o o o o o o o o o X o X X o o o o .   h 7.v.u.i.i.i.i.i.",
"i.i.i.i.i.i.i.i.i.K.#.e   X o o o o o o o o o o o o o o o o o o o o o o o o o X o o o o o o o o X o O X   * ) p.>.t.p.i.i.i.i.i.",
"u.i.i.x.x.i.i.x.i.i.F.i.~ =     o o o o o o o o o o o o o X o o o o o o o o o o o o o o o o o O o X   @ m 8.v.5.o.7.x.i.t.i.i.i.",
"i.i.p.i.6.t.p.u.i.i.i.2.L.V._ a .   . o O o o o o o o X o o o o o o o o o o o X o X o o o O X   . = M 5.D.i.u.f.9.x.i.i.i.t.i.i.",
"t.i.i.7.o.7.i.i.i.y.g.r.@X;XL.'.O.b ; X     X o o O o o o o o o o o o o + o o o o o X .     & h ) r.T.p.u.x.p.u.x.i.i.i.i.i.i.i.",
"i.i.i.7.>.7.i.i.i.i.i.y.B.^.V.*Xc.J.u.} N g * o           X . . . . . .           X @ e b ) 9.T.F.i.u.i.i.u.i.i.i.u.u.u.i.i.i.i.",
"i.i.c.i.t.i.i.u.i.i.y.y.i.f.g.k.c.i.i.p.D.p.9.#.) N h g e w ; ; : = ; > e g h M ~ } 8.c.T.J.i.u.i.i.i.i.i.i.i.i.i.i.i.p.i.i.i.i.",
"i.i.i.i.i.i.i.t.i.c.i.i.c.i.i.i.u.u.i.u.t.i.t.>.T.R.,.u.w.8.8.9.r.9.5.9.7.u.v.T.T.v.v.i.u.u.t.i.i.i.t.i.i.u.u.i.i.i.i.i.i.i.i.i.",
"i.i.i.i.i.i.y.y.i.c.i.i.i.i.i.u.i.i.i.i.i.i.c.>.5.7.5.>.7.7.r.+.r.u.<.i.X.X.x.i.i.u.6.i.i.i.i.i.7.w.u.i.i.i.i.u.p.u.u.i.i.u.i.i.",
"i.i.i.i.i.i.y.i.i.y.i.i.i.i.i.i.i.i.i.i.i.v.9.o.6. .o.7.@.g.X.X.X.6.u.7.X.^ 5.>.@.,.@.c.i.i.i.i.o.5.c.i.i.i.i.i.i.i.i.i.i.i.i.i.",
"i.i.i.i.i.i.i.K.i.y.i.i.i.i.i.i.u.i.u.u.i.u.f.o.5.x.r.u.q.i.6.8. ...v.7.6.9. ...6.w.r.i.i.i.i.i.5.7.i.i.u.i.i.i.i.i.i.i.i.i.u.i.",
"i.i.i.i.i.c.e.f.z.i.i.i.i.i.i.i.i.i.t.7.i.t.v.i.i.p.i.i.i.i.i.i.i.u.i.i.u.x.u.6.i.7.i.g.i.i.y.i.c.c.y.i.i.i.i.i.i.i.i.i.i.i.i.i.",
"i.t.i.i.i.w.}.[.q.b.p.i.i.i.i.i.i.i.>.,.i.u.u.i.i.t.t.u.F.i.b.i.y.c.t.p.i.i.i.i.i.i.i.i.y.i.i.i.i.i.i.6.u.p.t.c.6.7.p.i.t.u.i.i.",
"i.i.i.i.i.M.V.Q.Z.t.t.u.i.i.i.i.i.v.7.6.p.i.i.i.i.u.i.i.y.a.i.3.2.i.t.c.i.i.i.i.i.i.r.y.i.i.i.i.i.r.K.@.q.r.u.i...r.x.u.i.i.i.i.",
"i.y.i.p.q.;X|.oX@Xt.i.p.i.i.i.i.x.i.i.u.u.i.u.i.u.i.c.y.i.f.i.9.i.i.u.c.i.i.i.i.i.i.F.i.H.r.i.i.i.7.+.q.6.@.r.r.+.r.i.v.u.i.i.u.",
"i.i.H.i.u.j.W.M.f.i.u.i.i.u.u.i.x.i.x.i.i.i.u.i.i.y.i.i.f.{.h.}.!.i.a.i.i.i.i.i.i.i.i.i.i.F.i.i.i.i.@.*.@.o.@.7.5.| i.7...i.i.i.",
"i.i.i.i.y.a.u.r.3.i.i.i.i.i.i.i.i.u.p.i.u.i.i.i.i.y.l.a.f.+XG.I.Z.t.i.H.i.i.i.i.i.p.H.q.y.q.i.i.i.K.r.*.#.@.| +.9./ ..,.9.p.t.i.",
"i.i.i.i.u.p.<.,.c.i.p.9.u.i.i.i.i.i.u.i.u.i.i.i.i.i.i.y.g.Q.P.|.U.u.c.g.y.i.i.i.i.a.f.`.k.}.g.i.i.i.i.7.u.u.9.7.p.u.r.7.t.i.i.i.",
"i.i.i.i.u.v.u.X.c.u.r.X.i.x.x.i.i.u.p.u.i.i.u.u.i.p.H.i.f.A.!.M.f.i.y.y.i.i.i.i.i.i.C.:Xe..Xl.y.y.i.i.p.u.i.i.i.i.i.i.t.u.u.i.i.",
"i.i.i.i.u.*.s.o.*.*.0.X.0.u.>.i.i.i.p.t.i.i.i.p.i.i.c.y.i.c.z.r.y.y.y.i.i.i.i.i.i.b.g.s.=XN.u.y.i.i.i.i.i.i.u.i.i.i.i.i.i.u.i.u.",
"i.i.i.i.i.5.| o.X.o.*.X.| X.+.c.i.i.u.i.u.i.i.u.i.i.c.y.y.u.F.i.i.i.c.c.i.i.i.i.y.i.i.r. XC.y.i.H.i.i.i.u.i.u.p.i.i.i.i.i.i.i.i.",
"u.i.u.i.i.t.6.t.c.w.t.w.9.9.5.i.t.i.i.i.i.i.i.i.i.i.i.i.i.i.c.i.i.i.i.i.i.i.i.i.i.y.c.c.9.i.c.i.i.i.i.i.i.u.i.u.i.i.u.i.i.p.u.i.",
"i.i.i.i.i.i.i.i.i.p.t.i.p.i.c.i.i.i.i.i.i.i.u.i.i.i.y.i.i.i.i.i.i.i.i.t.i.i.i.i.i.x.i.t.p.t.y.i.i.i.i.i.i.i.i.i.u.i.i.u.i.t.i.i.",
"u.i.i.u.u.i.i.u.i.i.i.i.i.i.i.i.i.i.i.i.u.i.i.i.i.i.i.i.i.i.i.i.i.i.i.i.i.i.i.i.i.i.i.i.i.i.i.i.i.i.i.i.u.i.i.i.i.i.u.p.i.u.i.u.",
"i.i.i.i.i.i.i.i.i.i.i.i.i.i.i.i.u.i.i.u.i.i.i.i.i.i.i.i.i.i.i.i.i.i.i.i.i.i.i.u.i.i.i.i.i.i.i.i.i.i.i.i.p.t.i.i.u.i.i.i.i.i.i.i."
};
