/* XPM */
static char *bcc777643c0b4a48c906cafcc7636298Pcxn7uDNkU42jD2d[] = {
/* columns rows colors chars-per-pixel */
"64 64 174 2 ",
"   c #000000",
".  c #090703",
"X  c #060901",
"o  c #0C0A04",
"O  c #110E06",
"+  c #141007",
"@  c #161B07",
"#  c #171308",
"$  c #1B160A",
"%  c #1B1D1F",
"&  c #221C0C",
"*  c #1D2309",
"=  c #2D230C",
"-  c #242B0C",
";  c #31250D",
":  c #2B320B",
">  c #2B2911",
",  c #302711",
"<  c #362C13",
"1  c #3E2F11",
"2  c #2F3712",
"3  c #3D3216",
"4  c #303913",
"5  c #272A2C",
"6  c #2A2D30",
"7  c #2F3336",
"8  c #473917",
"9  c #523E16",
"0  c #384117",
"q  c #4E401C",
"w  c #554117",
"e  c #55451D",
"r  c #6A511C",
"t  c #75591F",
"y  c #5D4C21",
"u  c #4E5A23",
"i  c #604F22",
"p  c #665324",
"a  c #6E5824",
"s  c #785C20",
"d  c #715D28",
"f  c #536025",
"g  c #5A6B28",
"h  c #7C662D",
"j  c #65762E",
"k  c #67782D",
"l  c #6B7C32",
"z  c #50565D",
"x  c #5B6268",
"c  c #6C757F",
"v  c #856623",
"b  c #886925",
"n  c #846C2F",
"m  c #937027",
"M  c #9B762A",
"N  c #886F31",
"B  c #967B36",
"V  c #9A7E37",
"C  c #6D802D",
"Z  c #6F8134",
"A  c #718234",
"S  c #768937",
"D  c #798C3A",
"F  c #7F923D",
"G  c #98863A",
"H  c #81953E",
"J  c #BB8F32",
"K  c #BE9133",
"L  c #93AD3F",
"P  c #C19433",
"I  c #D4A239",
"U  c #E3AE3D",
"Y  c #E6B03D",
"T  c #818A4F",
"R  c #869943",
"E  c #838957",
"W  c #B89742",
"Q  c #BB9943",
"!  c #8EA446",
"~  c #90A646",
"^  c #93AA45",
"/  c #98AC4B",
"(  c #97B242",
")  c #9BB645",
"_  c #9EB946",
"`  c #9BB54A",
"'  c #9EB94C",
"]  c #AEA246",
"[  c #A1BC46",
"{  c #A2BC4D",
"}  c #A3BD52",
"|  c #8F976E",
" . c #989B72",
".. c #C29F45",
"X. c #C4A146",
"o. c #CBA648",
"O. c #CFAA4A",
"+. c #D2AC4B",
"@. c #DBB34E",
"#. c #DFB750",
"$. c #FABF43",
"%. c #E3BA51",
"&. c #A6C14D",
"*. c #A9C44E",
"=. c #B1CB4C",
"-. c #B8D74C",
";. c #BAD84E",
":. c #A6C152",
">. c #AAC553",
",. c #AFCA55",
"<. c #A7C158",
"1. c #ABC559",
"2. c #AEC959",
"3. c #B1CB55",
"4. c #B2C05C",
"5. c #B3CD5B",
"6. c #B5D355",
"7. c #B9D555",
"8. c #BAD852",
"9. c #B6D35B",
"0. c #B8D45B",
"q. c #BCD85F",
"w. c #AFC565",
"e. c #B5C566",
"r. c #B4CD64",
"t. c #B8CD63",
"y. c #B6C468",
"u. c #B7CD69",
"i. c #B9CD6A",
"p. c #B6D361",
"a. c #BAD462",
"s. c #BED965",
"d. c #B6D468",
"f. c #B9D26A",
"g. c #B4C574",
"h. c #BACC74",
"j. c #BACC7B",
"k. c #BBD17A",
"l. c #D9CD59",
"z. c #FFC344",
"x. c #FFC649",
"c. c #FFC84D",
"v. c #EEC355",
"b. c #E7CC59",
"n. c #F3C757",
"m. c #FFCC53",
"M. c #F6CA58",
"N. c #FCCE5A",
"B. c #EAD25C",
"V. c #FFD15B",
"C. c #C7CA76",
"Z. c #C4CC7C",
"A. c #C4D67E",
"S. c #757E88",
"D. c #7C868D",
"F. c #909BA4",
"G. c #9FACBA",
"H. c #B9C785",
"J. c #C3CF8E",
"K. c #C3D284",
"L. c #C3D38A",
"P. c #C3CB97",
"I. c #CCD695",
"U. c #D3DB9A",
"Y. c #CAD6A6",
"T. c #D3DDA4",
"R. c #D8D9A4",
"E. c #CFD4B2",
"W. c #D5DAB4",
"Q. c #D9E2B0",
"!. c #B6C4CF",
"~. c #DBE1C2",
"^. c #E1E6C8",
"/. c #E8EED0",
/* pixels */
"0.0.! f * 0 S ,.0.0.9.0.0.0.0.0.0.7.7.0.7.0.t.0.0.0.0.0.0.0.0.0.0.0.0.6.0.6.9.0.8.9.0.0.0.0.0.0.9.0.0.9.0.9.0.9.9.6.d.-.a.0.0.0.",
"9.l     O     4 } 0.0.0.0.9.0.7.7.0.0.0.0.0.7.0.0.0.0.0.9.0.0.0.0.0.0.0.p.L.d.H.u.9.0.0.0.0.0.9.0.0.0.0.0.0.0.0.6.q.0.5.=.7.0.0.",
"!   = o.V.n.a   u 0.0.0.0.0.0.9.8.u.y.h.C.9.8.0.0.0.0.0.0.9.0.0.0.0.0.0.e.W.h.~.k.6.9.0.0.0.9.0.6.0.0.9.0.9.0.0.p.6.g.E.~.w.0.0.",
"f   o.V.V.V.c.3   { 0.9.0.0.0.p.3.L.T.Z.P.e.8.0.0.7.a.0.9.s.a.0.0.0.0.0.5.I.Z.H.p.0.0.0.0.0.0.0.0.0.0.0.0.0.0.0.6.A.~.r.U.d.7.0.",
"* + V.V.V.V.x.v   ~ 0.0.9.0.9.p.-.j.J.y.W.j.7.a.0.7.0.3.>.5.0.0.0.0.9.0.r.I.P.K.6.0.0.0.0.0.0.0.0.0.0.0.0.0.0.0.0.t.H.R.w.0.0.0.",
"0   n.V.V.c.z.r   / s.:.,.0.0.0.;.5.P.Q.g.9.0.0.0.0.0.} { *.a.0.0.0.0.0.0.5.0.3.0.0.0.0.0.0.0.0.,.0.a.0.6.0.0.0.0.0.h.T.j.0.9.0.",
"D   a c.x.z.I . * ^ 1.{ ) 9.0.a.7.7.h.u.7.0.0.0.0.0.t.,.3.5.0.0.0.0.0.0.0.0.0.0.0.0.0.0.,.0.:.a.[ 2.9.d.p.0.p.0.7.7.0.5.0.0.0.0.",
"3.@   1 v r .   R ,.,.0.&.3.0.0.0.7.0.7.7.0.9.0.0.0.0.0.0.0.0.0.0.0.0.0.7.0.0.0.0.0.0.p.:.:.' 1.2.` ' <.<._ ,.0.t.7.-.7.0.0.0.0.",
"S               2 >.0.0.0.0.0.7.0.0.0.f.a.0.0.9.0.0.0.0.0.0.0.0.0.6.0.0.0.0.0.0.0.0.6.0.,.2.:.' 5.} &.' 1.{ _ 9.a.0.0.0.C.7.9.0.",
"@ + N N N b b 9   ~ 7.0.0.0.0.7.0.0.7.7.0.0.0.0.0.0.0.0.0.0.0.0.0.0.0.0.0.0.0.0.0.0.0.0.6.0.0.0.0.0.q.0.0.q.0.0.0.0.0.t.8.7.9.0.",
"  & V.V.V.x.z.m   ~ 0.0.0.0.0.0.0.0.0.7.0.7.0.0.0.0.0.0.0.0.0.0.0.0.0.0.0.0.0.0.0.0.0.0.7.0.0.0.0.0.0.0.0.0.0.0.0.0.0.0.0.0.0.0.",
": . e e e w w ;   f l A Z Z Z A Z Z Z A A l A A Z Z Z Z Z Z Z A l A A l Z Z Z Z Z Z Z R 0.0.5.D Z Z Z Z Z Z Z A l A A A Z Z Z ! ",
"R                                                                                     @ l.B.]                                 4 ",
"a.}   % S.z   e Q Q Q Q Q Q Q Q Q Q W Q Q Q Q W W W Q Q Q Q Q Q Q ..Q W Q Q Q Q Q W Q %.V.V.N.+.Q Q Q Q Q W Q Q Q Q W J J v   l ",
"7.3.  5 G.c   d V.V.V.V.V.V.V.V.V.V.V.V.V.V.V.V.V.V.V.V.V.V.V.V.N.V.V.V.V.V.V.V.V.V.V.V.V.V.V.V.V.V.V.V.V.V.V.V.V.V.m.z.z.t   ~ ",
"a.3.  5 G.S.  d V.V.V.V.V.V.V.V.V.V.V.V.V.V.V.V.V.V.V.V.V.V.V.V.N.V.V.V.V.V.V.V.V.V.V.V.V.V.V.V.V.V.V.V.V.V.V.V.V.V.c.z.z.=   ,.",
"9.,.  6 !.D.  d V.V.V.V.V.V.V.V.V.V.V.V.V.V.V.V.V.V.V.V.V.V.V.V.V.V.V.V.V.V.V.V.V.V.V.V.V.V.V.V.V.V.V.V.V.V.V.V.V.V.z.z.U   u 0.",
"0.,.  6 !.D.  d V.V.V.V.V.V.V.V.V.V.V.V.V.V.V.V.V.V.V.V.V.V.V.V.V.V.V.V.V.V.V.V.V.V.V.V.V.V.V.V.V.V.V.V.V.V.V.V.V.N.z.z.M   H 0.",
"0.,.  6 !.D.  d V.V.V.V.V.V.V.V.V.V.V.V.V.V.V.V.V.V.V.V.V.V.V.V.V.V.V.V.V.V.V.V.V.V.V.V.V.V.V.V.V.V.V.V.V.V.V.V.V.m.z.z.9   { 9.",
"0.,.  6 !.D.  d V.V.V.V.V.V.V.V.V.V.V.V.V.V.V.V.V.V.V.V.V.V.V.V.V.V.V.V.V.V.V.V.V.V.V.V.V.V.V.V.V.V.V.V.V.V.V.V.V.x.z.$.o - 9.0.",
"0.,.  6 !.D.  d V.V.V.V.V.V.V.V.V.V.V.V.V.V.V.V.V.V.V.V.V.V.V.V.V.V.V.V.V.V.V.V.V.V.V.V.V.V.V.V.V.V.V.V.V.V.V.V.V.z.z.K   l 0.0.",
"0.,.  6 !.D.  d V.V.V.V.V.V.V.V.V.V.V.V.V.V.V.V.V.V.V.V.V.V.V.V.V.V.V.V.V.V.V.V.V.V.V.V.V.V.V.V.V.V.V.V.V.V.V.V.m.z.z.t   ~ 0.0.",
"0.,.  6 !.D.  d V.V.V.V.V.V.V.V.V.V.V.V.V.V.V.V.V.V.V.V.V.V.V.V.V.V.V.V.V.V.V.V.V.V.V.V.N.V.V.V.V.V.V.V.V.V.V.V.c.z.z.=   ,.0.0.",
"0.,.  6 !.D.  d V.V.V.V.V.V.V.B           o @.V.V.W # Q V.V.V.V.V.V.3 y V.V.V.q         $ i #.V.V.V.V.V.V.V.V.V.z.z.U   u 0.0.0.",
"0.2.  6 !.D.  d V.V.V.V.V.V.V.y   $ & & & < %.V.V.n   # %.V.V.V.V.V.. $ V.V.V.O   - & $     o Q V.V.V.V.V.V.V.V.z.z.M   R 9.9.0.",
"0.3.  6 !.D.  d V.V.V.V.V.V.V.y   X.V.V.V.V.V.V.V.N     8 V.V.V.V.V.  $ V.V.V.O O V.N.N.v.n   O %.V.V.V.V.V.V.c.z.z.9   ' 9.9.a.",
"0.3.  6 !.D.  d V.V.V.V.V.V.V.y   ..V.V.V.V.V.V.V.n       V V.V.V.V.  $ V.V.V.O o V.V.V.V.V.h   a V.V.V.V.V.V.c.z.z.o - 9.a.0.p.",
"0.3.  6 !.D.  d V.V.V.V.V.V.V.y   ..V.V.V.V.V.V.V.N   p   . @.V.V.V.. $ V.V.V.# o V.V.V.V.V.n.. o V.V.V.V.V.V.z.z.K   l &.9.0.0.",
"0.3.  6 !.D.  d V.V.V.V.V.V.V.y   ..V.V.V.V.V.V.V.n   V n   < M.V.V.  $ V.V.V.+ o V.V.V.V.V.V.3   @.V.V.V.V.m.z.z.t   R ' 0.9.9.",
"0.3.  6 !.D.  d V.V.V.V.V.V.V.y   o O O O q V.V.V.n   V N.3   n V.V.. $ V.V.V.O o V.V.V.V.V.V.y   X.V.V.V.V.c.z.z.=   ` 5.a.9.p.",
"0.3.  6 !.D.  d V.V.V.V.V.V.V.y   o O O O y V.V.V.n   V V.#.o   ..V.. $ V.V.V.+ o V.V.V.V.V.V.y   X.V.V.V.V.c.z.z.;   } :.*.a.0.",
"0.3.  6 !.D.  d V.V.V.V.V.V.V.y   ..V.V.V.V.V.V.V.N   V V.V.G   & n.  $ V.V.V.# o V.V.V.V.V.V.<   #.V.V.V.V.m.z.z.s   H _ _ *.a.",
"0.,.  6 !.D.  d V.V.V.V.V.V.V.y   ..V.V.V.V.V.V.V.n   V V.V.N.y   i . $ V.V.V.# . V.V.V.V.V.%.. $ V.V.V.V.V.N.z.z.P   l 0.*.*.a.",
"0.2.  6 !.D.  d V.V.V.V.V.V.V.y   X.V.V.V.V.V.V.V.N   V V.V.V.v.$     $ V.V.V.# o V.V.V.V.V.y   h N.V.V.V.V.V.x.z.z.o - 6.0.a.0.",
"0.,.  6 !.D.  d V.V.V.V.V.V.V.y   ..V.V.V.V.V.V.V.n   V V.V.V.V.W     $ V.V.V.# o V.V.V.%.y   $ v.V.V.V.V.V.V.m.z.z.9   ' 6.0.0.",
"0.,.  6 !.D.  d V.V.V.V.V.V.V.y   $ & & & , #.V.V.n   B V.V.V.V.V.a   $ V.V.V.#   O O o     $ +.V.V.V.V.V.V.V.N.z.z.M   F 0.0.0.",
"0.,.  6 !.D.  d V.V.V.V.V.V.V.V           # @.V.V.Q & O.V.V.V.V.V.M.< y V.V.V.y   . O O , h v.V.V.V.V.V.V.V.V.V.z.z.Y   u 0.0.0.",
"0.,.  6 !.D.  d V.V.V.V.V.V.V.V.V.V.V.V.V.V.V.V.V.V.V.V.V.V.V.V.V.V.V.V.V.V.V.V.V.V.V.V.N.V.V.V.V.V.V.V.V.V.V.V.c.z.z.=   ,.0.0.",
"0.2.  6 !.D.  d V.V.V.V.V.V.V.V.V.V.V.V.V.V.V.V.V.V.V.V.V.V.V.V.V.V.V.V.V.V.V.V.V.V.V.V.V.V.V.V.V.V.V.V.V.V.V.V.V.z.z.s   ! 0.0.",
"0.,.  6 !.D.  d V.V.V.V.V.V.V.V.V.V.V.V.V.V.V.V.V.V.V.V.V.V.V.V.V.V.V.V.V.V.V.V.V.V.V.V.V.V.V.V.V.V.V.V.V.V.V.V.V.z.z.P   k 0.0.",
"0.,.  6 !.D.  d V.V.V.V.V.V.V.V.V.V.V.V.V.V.V.V.V.V.V.V.V.V.V.V.V.V.V.V.V.V.V.V.V.V.V.V.V.V.V.V.V.V.V.V.V.V.V.V.V.z.z.z.o - 6.9.",
"0.,.  6 !.D.  d V.V.V.V.V.V.V.V.V.V.V.V.V.V.V.V.V.V.V.V.V.V.V.V.V.V.V.V.V.V.V.V.V.V.V.V.V.V.V.V.V.V.V.V.V.V.V.V.V.m.z.z.9   ' 0.",
"0.5.X 7 !.D.  d V.V.V.V.V.V.V.V.V.V.V.V.V.V.V.V.V.V.V.V.V.V.V.V.V.V.V.V.V.V.V.V.V.V.V.V.V.V.V.V.V.V.V.V.V.V.V.V.V.V.z.z.M   F 0.",
"0.0.R F.!.D.  d V.V.V.V.V.V.V.V.V.V.V.V.V.V.V.V.V.V.V.V.V.V.V.V.V.V.V.V.V.V.V.V.V.V.V.V.V.V.V.V.V.V.V.V.V.V.V.V.V.V.z.z.Y   u 0.",
"0.0.k.!.!.D.  d V.V.V.V.V.V.V.V.V.V.V.V.V.V.V.V.V.V.V.V.V.V.V.V.V.V.V.V.V.V.V.V.V.V.V.V.V.V.V.V.V.V.V.V.V.V.V.V.V.V.c.z.z.=   ,.",
"0.9.k.!.!.D.  d V.V.V.V.V.V.V.V.V.V.V.V.V.V.V.V.V.V.V.V.V.V.V.V.V.V.V.V.V.V.V.V.V.V.V.V.V.V.V.V.V.V.V.V.V.V.V.V.V.V.m.z.z.s   ~ ",
"9.9.g x !.D.  e Q Q Q Q Q Q Q Q Q Q Q Q Q Q %.V.V.V.X.Q Q Q Q Q Q Q Q Q Q Q Q Q Q Q Q Q Q Q Q Q Q Q Q Q Q Q Q Q W Q W K J v   l ",
"0.2.  6 !.D.                                > b.b.G                                                                           2 ",
"0.,.  6 !.D.  u D D D D D D D D D D D D D D ! } <.^ Z Z l D k j C C D A k g l l C Z C F D D D S l Z D D D D D D D D D D D D D ^ ",
"0.,.  6 !.D.  R 0.7.0.0.0.9.0.9.9.9.9.9.6.s.9.' :.9.9.9.,.s.:.1.L [ C.>.,.,.) [ >.,.2.p.9.9.9.p.:.,.0.0.0.0.0.0.0.0.0.0.0.0.0.9.",
"0.,.  6 !.D.  R a.0.0.0.0.0.0.0.0.q.6.,.6.0.s.p.9.0.6.0.0.7.a.q.8.0.0.0.9.a.5.>.p.>.0.0.9.q.9.9.a.0.0.0.0.0.0.0.0.0.0.0.0.0.0.0.",
"0.3.  6 !.D.  | 3.s.0.0.9.0.9.0.0.6.&.*.0.9.6.9.0.0.7.0.0.7.f.6.8.a.8.0.0.0.0.0.0.0.0.0.0.9.l.0.0.0.0.:.9.0.0.a.*.,.q.0.6.0.0.9.",
"0.3.  6 !.F.  E j.-.6.0.0.0.0.0.9.0.>.*.s.9.0.0.0.9.0.0.7.8.7.8.;.0.7.p.0.0.0.0.0.0.0.0.0.7.0.0.0.9.a.{ >.0.6.0._ 9.p.0.0.0.0.0.",
"0.,.  6 !.S.   .E.5.0.0.0.0.0.0.s.0.0.s.6.6.q.0.0.0.a.6.0.p.9.w.p.0.7.a.0.0.0.0.0.0.0.0.0.0.7.0.0.>.[ ,.} &.5.5.[ 9.0.0.9.9.0.0.",
"0.4.  6 !.D.  T r.0.9.0.0.0.0.0.p.0.p.0.9.0.0.9.0.7.0.0.w.Y.y.U.H.0.7.7.0.0.0.0.0.0.0.0.0.0.9.9.0.7.*.&.{ ' { >.:.( p.>.[ 0.6.0.",
"0.3.  6 !.S.  D -.0.0.0.0.0.0.0.0.0.0.0.p.0.0.0.0.7.f.8.9.R.l.C.j.8.0.a.0.0.0.0.0.0.7.6.7.,.9.l.0.C.6.&.{ ' ) [ 2.L _ >.,.0.0.0.",
"0.5.  6 !.D.  A a.p.0.,.9.0.0.0.p.0.0.0.0.0.9.0.9.7.9.6.r.H.K.I.K.5.0.a.0.0.0.0.0.8.r.H.i.T.e.0.0.0.0.,.p.9.6.,.0.9.6.>.6.0.0.0.",
"0.,.  6 !.D.  C a.9.5.) p.a.0.0.0.0.0.0.0.9.9.6.0.0.0.l.t.k.H.g.u.0.7.7.0.0.0.0.0.0.j./.} Y.i.7.0.0.0.q.9.9.9.0.0.0.0.9.9.9.0.0.",
"0.,.  6 !.D.  Z } } <.` 1.9.&.0.6.0.9.0.0.0.0.q.0.0.t.0.7.0.r.9.7.7.7.0.0.0.0.0.0.f.p.e.^.g.7.0.0.0.0.0.6.0.9.0.0.0.9.0.0.0.9.0.",
"0.,.  6 !.D.  l ` ' <.) ( _ ' p.0.0.0.0.0.9.0.0.0.0.0.0.0.0.l.0.7.0.a.t.0.0.0.0.7.0.0.5.W.Z.7.0.0.0.0.0.0.9.0.0.9.0.0.0.0.9.0.0.",
"0.,.  6 !.D.  D 0.6.,.6.,.2.>.0.0.6.0.0.0.0.0.0.0.0.0.0.0.0.0.0.0.0.0.0.0.9.0.0.0.7.p.a.3.p.0.0.l.9.0.9.q.6.9.0.9.q.0.0.9.0.0.9.",
"0.,.  6 !.D.  R 0.0.0.0.0.p.d.0.0.0.0.0.9.0.0.6.9.0.0.0.0.0.0.0.0.0.0.7.0.0.0.0.0.p.0.6.q.7.6.0.p.9.0.0.0.0.0.9.9.0.0.0.0.0.0.0.",
"0.,.  6 !.D.  F 0.0.0.9.6.0.0.0.0.9.0.0.0.0.0.0.0.0.0.0.0.0.0.0.0.0.0.0.0.0.9.0.0.0.0.0.0.0.0.0.0.0.0.0.9.0.9.0.9.0.6.0.9.0.0.9.",
"0.9.u H d.:.0 ` 0.0.0.0.0.0.0.0.0.0.0.6.0.0.0.0.0.0.0.0.0.0.0.0.0.0.9.0.0.9.0.0.0.0.9.0.0.0.0.0.9.0.9.0.0.0.0.9.6.q.0.0.0.0.0.0."
};
