/* XPM */
static char *_eb5f9592fcd49f4901cc71cf16b19f668KoQxgZGrLKrqT6[] = {
/* columns rows colors chars-per-pixel */
"64 64 170 2 ",
"   c #231F20",
".  c #252121",
"X  c #2A2524",
"o  c #2C2C21",
"O  c #2E2A2C",
"+  c #352A24",
"@  c #392C24",
"#  c #303223",
"$  c #3F3027",
"%  c #363B24",
"&  c #393D26",
"*  c #322F30",
"=  c #343233",
"-  c #383536",
";  c #3A3739",
":  c #3E3B3D",
">  c #473325",
",  c #4C382B",
"<  c #5A3E26",
"1  c #513B2D",
"2  c #583D2B",
"3  c #3C4226",
"4  c #3F4428",
"5  c #414827",
"6  c #404628",
"7  c #444B29",
"8  c #5E4028",
"9  c #5C5E3B",
"0  c #674428",
"q  c #754D2C",
"w  c #7C522F",
"e  c #614431",
"r  c #6C4B33",
"t  c #7D5331",
"y  c #7D5538",
"u  c #56602F",
"i  c #576331",
"p  c #5A6632",
"a  c #5D6A33",
"s  c #647336",
"d  c #697737",
"f  c #687639",
"g  c #6A7938",
"h  c #413E40",
"j  c #444143",
"k  c #484648",
"l  c #4D4B4D",
"z  c #504E50",
"x  c #555254",
"c  c #585759",
"v  c #5A595B",
"b  c #697044",
"n  c #605F61",
"m  c #646364",
"M  c #6B6B6C",
"N  c #727174",
"B  c #767679",
"V  c #7B7C7F",
"C  c #815533",
"Z  c #865A37",
"A  c #865B3A",
"S  c #8B5E3C",
"D  c #6F8037",
"F  c #75853D",
"G  c #758838",
"H  c #7B8E3D",
"J  c #778347",
"K  c #91AB3D",
"L  c #8B9C4B",
"P  c #8FA444",
"I  c #8FA448",
"U  c #90A549",
"Y  c #96AC4B",
"T  c #97B142",
"R  c #9AB544",
"E  c #9EB946",
"W  c #9CB44B",
"Q  c #9EB94B",
"!  c #9CAE5A",
"~  c #9BB153",
"^  c #A1BC46",
"/  c #A2BD4C",
"(  c #A5BD51",
")  c #909669",
"_  c #AABB68",
"`  c #AEBE71",
"'  c #A6C14D",
"]  c #A9C44E",
"[  c #B1CB4C",
"{  c #BDD943",
"}  c #BCD74D",
"|  c #BAD94E",
" . c #A6C151",
".. c #AAC553",
"X. c #AEC954",
"o. c #A7C158",
"O. c #ACC559",
"+. c #AFCA59",
"@. c #B1CD55",
"#. c #B2C35B",
"$. c #B3CD5A",
"%. c #B8CF5F",
"&. c #B5D454",
"*. c #BAD455",
"=. c #B6D35B",
"-. c #B8D45B",
";. c #BCD85C",
":. c #ADC465",
">. c #B2C563",
",. c #BAC566",
"<. c #B4CB63",
"1. c #BACD62",
"2. c #B2C46B",
"3. c #B7CC6B",
"4. c #BBCE6B",
"5. c #B7D361",
"6. c #BAD362",
"7. c #BDD865",
"8. c #B5D468",
"9. c #B5C276",
"0. c #B6CB74",
"q. c #BACC73",
"w. c #B9C27A",
"e. c #BBCD7C",
"r. c #BED078",
"t. c #C6C756",
"y. c #CBCC65",
"u. c #C0D962",
"i. c #C1CA74",
"p. c #C4C97E",
"a. c #C2D37C",
"s. c #D9D171",
"d. c #7D7E81",
"f. c #807F82",
"g. c #818284",
"h. c #8A8B8D",
"j. c #8E8E91",
"k. c #919295",
"l. c #939598",
"z. c #97989B",
"x. c #9A9B9D",
"c. c #9D9EA2",
"v. c #9EA0A3",
"b. c #A1A2A6",
"n. c #A4A6A9",
"m. c #A7A9AC",
"M. c #B5C581",
"N. c #B9C783",
"B. c #BCCF83",
"V. c #C2CD83",
"C. c #C4CE8D",
"Z. c #C3D38A",
"A. c #CDD68F",
"S. c #C5CE97",
"D. c #CBD494",
"F. c #CED996",
"G. c #C5D49B",
"H. c #D2D893",
"J. c #D4D4A5",
"K. c #D2DBA4",
"L. c #DEDFA0",
"P. c #D4D9AE",
"I. c #D3D8B5",
"U. c #DBDDBA",
"Y. c #D9E1B1",
"T. c #D8E0BC",
"R. c #DFDEC1",
"E. c #DCE1C0",
"W. c #E1E6C8",
"Q. c #E9F1C4",
/* pixels */
"-.-.-.-.-.-.-.=.-.-.-.-.=.-.-.-.-.*.*.=.*.-.6.u.*.%.*.-.-.-.-.=.-.-.-.-.-.&.*.*.&.-.=.-.-.=.*.=.-.-.-.-.=.-.-.=.;.&.8.| 6.-.-.-.",
"-.-.-.-.*.-.-.-.-.-.-.-.-.-.=.*.*.;.;.-.-.-.-.-.%.*.-.-.-.-.-.-.-.-.-.-.<.Z.8.M.8.=.-.-.-.-.-.-.-.-.-.-.-.-.-.-.;.&.=.$.[ &.-.-.",
"-.-.-.-.-.-.-.-.=.-.-.=.-.-.-.=.*.4.2.q.q.-.*.-.-.-.( U F i 6 + o 3 p F L S.e.W.r.&.=.-.-.;.=.-.-.-.-.-.-.-.*.-.8.&.0.I.W.>.-.-.",
"-.-.-.-.-.-.-.%.-.-.-.-.-.-.-.6.[ Z.K.V.S.>.} $.U u                         9 ) <.*.=.-.-.=.=.-.-.-.-.-.-.-.-.5.&.r.E.<.F.<.-.-.",
"-.-.-.-.-.;.-.*.@.-.-.-.=.-.-.5.} e.C.,.U.e.P 6     O x B j.v.n.n.c.f.M l O     3 U *.-.-.-.-.-.-.-.=.=.-.-.-.-.6.1.w.L.2.-.-.-.",
"-.&.*.-.u./ u.[ ^ -.7. .X.-.-.-.} $.S.P._ p     h f.m.m.m.m.m.m.n.m.m.n.c.k.N ;     a ..;.-.-.-.@.=.;.=.-.-.-.-.-.-.q.P.e.-.-.-.",
"-.6.-.-.-.^ ( #.W W O.' R =.&.6.-.*.3.! %   = g.m.m.m.m.m.m.m.m.m.m.m.m.m.c.l.l.N *   3 Y -. .6.^ +.5.8.5.=.5.-.&.*.-.$.-.-.-.=.",
"*.-.1.;.*./ ( ] %.X.X.-.' X.-.6.-.*.Y o   z b.m.m.m.m.m.m.m.m.m.m.m.m.m.m.m.n.l.l.j.k   . L Q o.+.W Q o.o.E X.-.6.*.} *.-.&.-.-.",
"*.} *.6.>.-.;.*.*.u.-.-.u.-.-.*.;./ X   m m.m.m.m.m.m.m.m.m.m.m.m.m.m.m.m.m.m.n.l.l.l.v   X U Q <.( ' Q O.' E -.6.-.*.%.-.-.-.-.",
"-.*.*.w.T.#.%.6.-.-.-.*.*.-.-.*...&   m m.m.m.m.m.m.m.m.m.m.m.m.m.m.m.m.m.m.m.m.n.l.l.l.v   % O.-.;.5.-.-.;.=.=.-.-.-.4.-.-.-.-.",
"6.*.4.p.s.V.q.-.%.-.-.-.-.-.-.%.p   x m.m.m.m.m.m.m.m.m.m.m.m.m.m.m.m.m.m.m.m.m.m.c.l.l.l.l   p =.=.-.-.=.-.-.=.-.*.-.-.-.-.-.-.",
"} $.G.J.t.A.q.*.*.-.-.-.-.-.-.P   = b.m.m.m.m.m.m.m.m.m.m.m.m.m.m.m.m.m.m.m.m.m.m.n.c.l.l.j.*   I -.-.-.-.-.-.-.-.-.-.-.-.-.-.-.",
"1.} @.w.R.` -.*.-.-.-.-.-.-.$.4   g.m.m.m.m.m.m.m.m.m.m.m.m.m.m.m.m.m.m.m.m.m.m.m.m.n.l.l.l.N   4 &.-.-.-.-.-.-.-.-.-.-.-.-.-.-.",
"6.-.6.5.$.6.*.*.-.*.-.-.=.-.P   j m.m.m.m.m.m.m.m.m.m.m.m.m.m.m.m.m.m.m.m.m.m.m.m.m.n.c.l.l.l.:   I -.-.=.-.-.-.-.-.=.-.-.-.-.-.",
"*.-.*.*.u.1.*.-.6.-.&.-.-.-.u . f.m.m.m.m.m.m.m.m.m.m.m.m.m.m.m.m.m.m.m.m.m.m.m.m.m.m.n.l.l.l.N   i -.-.-.-.-.-.-.-.=.-.-.=.-.*.",
"-.-.-.*.-.-.-.-.-.-.-.-.-. .  O n.m.m.m.m.m.m.m.m.m.m.m.m.m.m.m.m.m.m.m.m.m.m.m.m.m.m.m.l.l.l.k.O . ..&.-.-.&.-.=.-.-.-.-.-.-.=.",
"-.-.-.-.-.-.-.-.-.-.-.-.-.U   x m.m.m.m.m.m.m.m.m.m.m.m.m.m.m.m.m.m.m.m.m.m.m.m.m.m.m.m.v.l.l.l.l   I 8.-.-.6.*.-.-.-.-.-.-.-.-.",
"-.-.-.-.-.-.-.-.-.-.-.-.-.F   B m.m.m.m.m.m.m.m.m.m.m.m.m.m.m.m.m.m.m.m.m.m.m.m.m.m.m.m.v.l.l.l.m . F -.-.6.>.-.-.-.-.-.-.-.-.-.",
"-.-.-.-.-.=.-.-.-.-.6.-.=.i   j.m.m.m.m.h       X k k.m.m.m.m.j j m.m.m.h       X k j.m.v.l.l.l.d.  p -.{ $.T.p.*.-.-.=.-.-.-.&.",
"-.-.-.-.-.-.-.-.-.-.-.-.6.&   c.m.m.m.m.            X l.m.m.m.    m.m.m.            X l.m.l.l.l.h.  5 6.6.9.K.9.%.=.-.-.-.-.-.-.",
"-.-.-.-.&.-.8.;.%.%.;.-.6.o   n.m.m.m.m.    m.m.x.l   z m.m.m.    m.m.m.    m.m.v.l   l v.z.l.l.k.  # *.N.Q.` K.0.-.-.-.-.=.-.-.",
"-.-.-.-.-.&.<.#.V.D.$.*.-.    m.m.m.m.m.    m.m.m.x.  O m.m.m.    m.m.m.    m.m.v.v.  O m.l.l.l.l.    *.%.w.M.D.8.*.7.5.=.=.=.-.",
"-.=.-.-.;.X.Y.K.i.P.#.u.6.    m.m.m.m.m.    m.m.m.x.  O m.m.m.    m.m.m.    m.m.v.c.  O m.l.l.l.l.    *.*.-.-.&.-.=.-.-.=.;.-.-.",
"-.-.-.-.-.<.D.D.H.` } -.-.    m.m.m.m.m.    m.m.x.l   z m.m.m.    m.m.m.    m.m.v.l   z m.l.l.l.l.    -.-.-.-.*.=.=.-.6.=.=.-.-.",
"-.-.-.-.-.&.e.M.P.a.} -.-.    m.m.m.m.m.            X k.m.m.m.    m.m.m.            X k.m.l.l.l.l.    -.-.-.5.-.=.=.-.-.-.=.=.=.",
"-.-.-.-.5.2.J.D._ <.-.-.-.    m.m.m.m.m.        . l j.m.m.m.m.    m.m.m.        X k j.m.m.l.l.l.l.    =.;.' =.5.=.=.' =.=.=.;.=.",
"t.-.*.-.3.U.t.y.I.+.} -.-.    m.m.m.m.m.    h..   h.m.m.m.m.m.    m.m.m.    m.m.m.m.m.m.m.l.l.l.l.    -.&.E =.=.-.E ] 7.5.5.=.5.",
"6.-.-.-.6.:.F.H.>.6.-.-.-.    m.m.m.m.m.    m.m   - n.m.m.m.m.    m.m.m.    m.m.m.m.m.m.m.l.l.l.l.    *... .=.-.+.' @.6.] =.;.-.",
"-.-.*.-.-.-.B.B.%.-.-.-.-.    m.m.m.m.m.    m.b.;   n m.m.m.m.    m.m.m.    m.m.m.m.m.m.m.l.l.l.l.    =.....5.-.....5...E =.=.=.",
";.-.-.-.-.-.<.=.-.-.-.-.-.    m.m.m.m.m.    m.m.h.. . h.m.m.m.    m.m.m.    m.m.m.m.m.m.m.l.l.l.l.    ..+. .O.X.+.+.$.' +.7.=.5.",
"-.-.-.-.*.t.;.*.*.1.-.;.-.    m.m.m.m.m.    m.m.m.n   ; m.m.m.    m.m.m.    m.m.m.m.m.m.m.l.l.l.l.    E 5.E T ..5.T ..O. .] 6.-.",
"-.-.-.-.-.%.=.=.-.-.6.-.-.    m.m.m.m.m.j j m.m.m.n.: h m.m.m.h h m.m.m.j h m.m.m.m.m.m.m.l.l.l.l.    $.5.X.....5.' +.' E E ] 7.",
"-.-.-.-.-.=.^ 5.6...] 7.-.    m.m.m.m.m.m.m.m.m.m.m.m.m.m.m.m.m.m.m.m.m.m.m.m.m.m.m.m.m.m.l.l.l.l.    5.=.;.=.=.;.5.=.=.;.] ] ;.",
"-.-.-.-.-.6.Q =.7.'  .+.6.    m.m.m.m.m.m.m.m.m.m.m.m.m.m.m.m.m.m.m.m.m.m.m.m.m.m.m.m.m.m.l.l.l.l.    =.;.=.=.*.;.=.=.;.=.;.;.=.",
"-.-.-.6.] .. . .6...( Q #..   m.m.m.m.m.m.m.m.m.m.m.m.m.m.m.m.m.m.m.m.m.m.m.m.m.m.m.m.m.m.l.l.l.l.    *.-.-.=.=.=.=.=.-.;.=.=.=.",
"-.-.-.;.@.^ / ^ K  ./ Q T     m.m.m.m.m.m.m.m.m.m.m.m.m.m.m.m.m.m.m.m.m.m.m.m.m.m.m.m.m.m.l.l.l.l.    =.=.=.;.=.=.;.*.=.=.=.*.=.",
"-.-.-.-.;.X./ <.^ ' X.@.$.    m.m.m.m.m.h                                             j m.l.l.l.l.    -.-.-.=.;.=.-.=.=.=.;.=.=.",
"-.-.-.-.-.$.-.-.7.-.6.-.-.    m.m.m.m.m.j                                             j m.l.l.l.l.    =.=.-.*.-.;.-.-.;.-.=.-.-.",
"-.-.-.-.-.&.-.*.*.-.-.-.-.    m.m.m.m.m.m.m.m.m.m.m.m.m.m.m.m.m.m.m.m.m.m.m.m.m.m.m.m.m.m.l.l.l.l.    -.-.-.=.=.=.=.-.=.-.-.-.=.",
"-.-.-.-.-.-.-.-.-.-.-.-.-.    m.m.m.m.m.m.m.m.m.m.m.m.m.m.m.m.m.m.m.m.m.m.m.m.m.m.m.m.m.m.l.l.l.l.    -.-.-.;.=.X.;.=.;.=.=.=.;.",
"-.=.-.-.-.-.-.-.-.-.-.-.-.    m.m.m.m.m.m.m.m.j                                 j m.m.m.m.l.l.l.l.  . =.*.-.=.@.] &.7.*.=.-.-.-.",
"=.*.5.-.5.-.-.-.-.-.-.*.u.    m.m.m.m.m.m.m.m.j                                 j m.m.m.m.l.l.l.l.    *.-.-.8. .E +.5.*.&.*.-.-.",
"*.-.-.=.] @.;.=.-.-.;.*.y.    m.m.m.m.m.m.m.m.m.m.m.m.m.m.m.m.m.m.m.m.m.m.m.m.m.m.m.m.m.m.l.l.l.l.    -.-.-.7.5.+.=.5.-.=.*.-.=.",
"=.-.5.@.' X.7.=.-.-.-.#.I.    n.m.m.m.m.m.m.m.m.m.m.m.m.m.m.m.m.m.m.m.m.m.m.m.m.m.m.m.m.m.l.l.l.l.    =.*.5.5.5.8.=.-.-.-.-.-.-.",
"-.-.-.X.^ X.;.=.-.-.-.*.q.    m.m.m.m.m.m.m.m.m.m.m.m.m.m.m.m.m.m.m.m.m.m.m.m.m.m.m.m.m.m.l.l.l.l.    =.*.=.;.*.5.-.;.=.=.5.-.=.",
"=.-.=.-.=.=.=.=.-.-.-.*.6.    m.m.m.m.m.m.m.m.m.m.m.m.m.m.m.m.m.m.m.m.m.m.m.m.m.m.m.m.m.m.l.l.l.l.    =.=.=.=.=.;.=.=.5.;.=.=.;.",
"-.-.=.=.-.-.*.*.-.6.-.-.-.    m.m.m.m.m.m.m.m.m.m.m.m.m.m.m.m.m.m.m.m.m.m.m.m.m.m.m.m.m.m.l.l.l.l.    -.=.;.=.;.=.=.;.=.=.=.=.-.",
"-.-.=.f f *.s s -.s s -.=.    m.m.m.m.m.m.m.m.m.m.m.m.m.m.m.m.m.m.m.m.m.m.m.m.m.m.m.m.m.m.l.l.l.l.    -.=.s s =.s s =.s s ;.=.*.",
"=.-.-.    -..   *.    %.*.    m.m.m.m.m.m.m.m.m.m.m.m.m.m.m.m.m.m.m.m.m.m.m.m.m.m.m.m.m.m.l.l.l.l.    -.-..   -..   =.. . -.=.-.",
"-.-.=.    -.    %.  . -.-.    m.m.m.m.m.m.m.m.m.m.m.m.m.m.m.m.m.m.m.m.m.m.m.m.m.m.m.m.m.m.l.l.l.l.    =.=.    =.    =.    -.-.-.",
"-.-.-.    -.    u.    -.-.    m.m.m.m.m.m.m.m.m.m.m.m.m.m.m.m.m.m.m.m.m.m.m.m.m.m.m.m.m.m.l.l.l.l.    ;.-.. . =.    =.    -.-.=.",
";.-.;.4 . (     (   5 -.-.    m.m.m.m.m.m.m.m.m.m.m.m.n.c.z.k.j.j.k.z.c.n.m.m.m.m.m.m.m.m.l.l.l.l.     .=.4   +.    +.  4 -.-.-.",
"-.-.%.G   b     b   G -.-.    m.m.m.m.m.m.n.h.M v k = .                 . = k c M h.m.m.m.l.l.l.l.    / ..F   f     g   G -.-.-.",
"-.-.*.#.5         7 @.-.-.    m.m.n.j.m j X . .     . . X + @ @ @ + X X             X j m V l.l.l.    +. .R 7 .       7 X.=.-.-.",
"-.-.-.u...b .   J X.-.-.-.    j.m = . .   . @ 1 8 r y S S S S S S S S S S y r 2 > o         * c d.     .Q Q Q D     F / ^ -.-.-.",
"-.;.-.-.u.} .   } =.-.-.$.        . X , r A S S S S S S S S S S S S S S S S S S S A w 0 > X           / Q Q R Q     E ..$.5.*.=.",
"-.-.-.-.-.-.    6.6...H %     X , r S S S S S S S S S S S S S S S S S S S S S S S S S S Z w 0 > X   . # F ( X...    =.X.$.;.=.=.",
"-.-.-.-.-.;.    ~ a       $ r S S S S S S S S S S S S S S S S S S S S S S S S S S S S S S S S C q < @ .   . s W     *.=.=.=.;.=.",
"-.-.=.-.-.W     . . X 1 y S S S S S S S S S S S S S S S S S S S S S S S S S S S S S S S S S S S S Z t 0 > . .       +.=.=.=.=.=.",
"-.-.5.Q D o     @ e A S S S S S S S S A S S S S S S S S S S S S S S S S S S S S S S S S S S S S S S S A t q < #     . g R =.;.=.",
"-.-.d                                                                   X                                                 f =.*.",
"-.-.d                                                                                                                     g -.=.",
"-.-.-.-.-.-.-.=.-.-.=.=.-.-.=.=.-.-.-.-.-.-.-.-.-.*.-.-.-.-.-.-.-.-.-.=.-.-.-.-.-.-.&.-.-.=.-.-.-.-.=.-.;.=.-.=.-.-.=.-.-.-.-.-.",
"-.-.-.-.-.-.-.-.-.-.-.-.-.-.-.=.-.-.-.-.-.-.-.-.-.-.-.-.=.-.-.=.-.-.-.-.-.-.-.-.-.-.-.-.-.-.-.-.-.-.-.-.=.-.-.=.;.=.=.;.=.-.=.-."
};
