/* XPM */
static char * n0_xpm[] = {
"22 30 17 1",
" 	c #2D3093",
".	c #2D3192",
"+	c #2E3192",
"@	c #6D78B9",
"#	c #C8E3F6",
"$	c #B6CDEA",
"%	c #5C67B0",
"&	c #5761AD",
"*	c #B5CEEA",
"=	c #93A6D3",
"-	c #484FA2",
";	c #4D54A6",
">	c #94A7D4",
",	c #B0C7E6",
"'	c #AFC6E5",
")	c #2E3091",
"!	c #2F3192",
" .................... ",
"++++++++++++++++++++++",
"+@##################@+",
"+@##################@+",
"+@##################@+",
"+@##################@+",
"+@#####$%&&&&%*#####@+",
"+@#####=+-;;-+>#####@+",
"+@#####=+,##'+>#####@+",
"+@#####=+,##'+>#####@+",
"+@#####=+,##'+>#####@+",
"+@#####=+,##'+>#####@+",
"+@#####=+,##'+>#####@+",
"+@#####=+,##'+>#####@+",
"+@#####=+,##'+>#####@+",
"+@#####=+,##'+>#####@+",
"+@#####=+,##'+>#####@+",
"+@#####=+,##'+>#####@+",
"+@#####=+,##'+>#####@+",
"+@#####=+,##'+>#####@+",
"+@#####=+,##'+>#####@+",
"+@#####=+,##'+>#####@+",
"+@#####=+-;;-+>#####@+",
"+@#####*%&&&&%*#####@+",
"+@##################@+",
"+@##################@+",
"+@##################@+",
"+@##################@+",
"++++++++++++++++++++++",
")!!!!!!!!!!!!!!!!!!!!+"};
