/* XPM */
static char * une_xpm[] = {
"22 30 18 1",
" 	c None",
".	c #2E3192",
"+	c #6974B7",
"@	c #C8E3F6",
"#	c #7887C2",
"$	c #4348A0",
"%	c #4C54A5",
"&	c #B9D3ED",
"*	c #8FA1D1",
"=	c #626DB3",
"-	c #545DAB",
";	c #A2B7DD",
">	c #A1B5DC",
",	c #97ABD6",
"'	c #545EAB",
")	c #8494C9",
"!	c #7987C3",
"~	c #2F3192",
"                      ",
"......................",
".+@@@@@@@@@@@@@@@@@@+.",
".+@@@@@@@@@@@@@@@@@@+.",
".+@@@@@@@@@@@@@@@@@@+.",
".+@@@@@@@@@@@@@@@@@@+.",
".+@@@@@@#$$%&@@@@@@@+.",
".+@@@@@@*=-.;@@@@@@@+.",
".+@@@@@@@@>.;@@@@@@@+.",
".+@@@@@@@@>.;@@@@@@@+.",
".+@@@@@@@@>.;@@@@@@@+.",
".+@@@@@@@@>.;@@@@@@@+.",
".+@@@@@@@@>.;@@@@@@@+.",
".+@@@@@@@@>.;@@@@@@@+.",
".+@@@@@@@@>.;@@@@@@@+.",
".+@@@@@@@@>.;@@@@@@@+.",
".+@@@@@@@@>.;@@@@@@@+.",
".+@@@@@@@@>.;@@@@@@@+.",
".+@@@@@@@@>.;@@@@@@@+.",
".+@@@@@@@@>.;@@@@@@@+.",
".+@@@@@@@@>.;@@@@@@@+.",
".+@@@@@@@@>.;@@@@@@@+.",
".+@@@@@@@,-.'*@@@@@@+.",
".+@@@@@@@)$$$!@@@@@@+.",
".+@@@@@@@@@@@@@@@@@@+.",
".+@@@@@@@@@@@@@@@@@@+.",
".+@@@@@@@@@@@@@@@@@@+.",
".+@@@@@@@@@@@@@@@@@@+.",
"......................",
" ~~~~~~~~~~~~~~~~~~~~ "};
