/* XPM */
static char * n4_xpm[] = {
"22 30 19 1",
" 	c #2D3093",
".	c #2D3192",
"+	c #2E3192",
"@	c #6974B7",
"#	c #C8E3F6",
"$	c #ADC4E5",
"%	c #707CBC",
"&	c #C7E2F6",
"*	c #8394CA",
"=	c #BFD9F1",
"-	c #8495CA",
";	c #41479F",
">	c #4348A0",
",	c #B2C9E7",
"'	c #6571B6",
")	c #626DB3",
"!	c #5F69B1",
"~	c #2E3091",
"{	c #2F3192",
" .................... ",
"++++++++++++++++++++++",
"+@##################@+",
"+@##################@+",
"+@##################@+",
"+@##################@+",
"+@#####$%&##&%$#####@+",
"+@#####*+=##=+*#####@+",
"+@#####*+=##=+*#####@+",
"+@#####*+=##=+*#####@+",
"+@#####*+=##=+*#####@+",
"+@#####*+=##=+*#####@+",
"+@#####*+=##=+*#####@+",
"+@#####*+=##=+*#####@+",
"+@#####-+;>>;+*#####@+",
"+@#####,')))!+*#####@+",
"+@##########=+*#####@+",
"+@##########=+*#####@+",
"+@##########=+*#####@+",
"+@##########=+*#####@+",
"+@##########=+*#####@+",
"+@##########=+*#####@+",
"+@##########=+*#####@+",
"+@##########&%$#####@+",
"+@##################@+",
"+@##################@+",
"+@##################@+",
"+@##################@+",
"++++++++++++++++++++++",
"~{{{{{{{{{{{{{{{{{{{{+"};
