/* XPM */
static char * n5_xpm[] = {
"22 30 25 1",
" 	c #2D3093",
".	c #2D3192",
"+	c #2E3192",
"@	c #6974B7",
"#	c #C8E3F6",
"$	c #B5CEEA",
"%	c #5C67B0",
"&	c #5761AD",
"*	c #94A7D4",
"=	c #484FA2",
"-	c #4D54A6",
";	c #545DAB",
">	c #B3CCE8",
",	c #AFC6E5",
"'	c #5962AD",
")	c #626DB3",
"!	c #6874B8",
"~	c #BAD3ED",
"{	c #4950A3",
"]	c #4348A0",
"^	c #40459D",
"/	c #95A7D4",
"(	c #5D67B0",
"_	c #2E3091",
":	c #2F3192",
" .................... ",
"++++++++++++++++++++++",
"+@##################@+",
"+@##################@+",
"+@##################@+",
"+@##################@+",
"+@#####$%&&&&%$#####@+",
"+@#####*+=---;>#####@+",
"+@#####*+,##########@+",
"+@#####*+,##########@+",
"+@#####*+,##########@+",
"+@#####*+,##########@+",
"+@#####*+,##########@+",
"+@#####*+,##########@+",
"+@#####*+')))!~#####@+",
"+@#####,{]]]^+/#####@+",
"+@##########,+*#####@+",
"+@##########,+*#####@+",
"+@##########,+*#####@+",
"+@##########,+*#####@+",
"+@##########,+*#####@+",
"+@##########,+*#####@+",
"+@#####>;---=+*#####@+",
"+@#####$(&&&&($#####@+",
"+@##################@+",
"+@##################@+",
"+@##################@+",
"+@##################@+",
"++++++++++++++++++++++",
"_::::::::::::::::::::+"};
