/* XPM */
static char * n6_xpm[] = {
"22 30 22 1",
" 	c #2D3093",
".	c #2D3192",
"+	c #2E3192",
"@	c #91A3D1",
"#	c #C8E3F6",
"$	c #B6CDEA",
"%	c #5C67B0",
"&	c #5761AD",
"*	c #B5CEEA",
"=	c #93A6D3",
"-	c #484FA2",
";	c #4D54A6",
">	c #545DAB",
",	c #B3CCE8",
"'	c #B0C7E6",
")	c #5159A8",
"!	c #5B66AF",
"~	c #B5CDE9",
"{	c #94A7D4",
"]	c #AFC6E5",
"^	c #2E3091",
"/	c #2F3192",
" .................... ",
"++++++++++++++++++++++",
"+@##################@+",
"+@##################@+",
"+@##################@+",
"+@##################@+",
"+@#####$%&&&&%*#####@+",
"+@#####=+-;;;>,#####@+",
"+@#####=+'##########@+",
"+@#####=+'##########@+",
"+@#####=+'##########@+",
"+@#####=+'##########@+",
"+@#####=+'##########@+",
"+@#####=+'##########@+",
"+@#####=+)&&&!~#####@+",
"+@#####=+)&&)+{#####@+",
"+@#####=+'##]+{#####@+",
"+@#####=+'##]+{#####@+",
"+@#####=+'##]+{#####@+",
"+@#####=+'##]+{#####@+",
"+@#####=+'##]+{#####@+",
"+@#####=+'##]+{#####@+",
"+@#####=+-;;-+{#####@+",
"+@#####*%&&&&%*#####@+",
"+@##################@+",
"+@##################@+",
"+@##################@+",
"+@##################@+",
"++++++++++++++++++++++",
"^////////////////////+"};
