/* XPM */
static char * n7_xpm[] = {
"22 30 17 1",
" 	c #2D3093",
".	c #2D3192",
"+	c #2E3192",
"@	c #99ACD6",
"#	c #C8E3F6",
"$	c #6A76B9",
"%	c #4348A0",
"&	c #6A77B9",
"*	c #8393C9",
"=	c #626DB3",
"-	c #444AA0",
";	c #3A3F9A",
">	c #707CBC",
",	c #97AAD6",
"'	c #6C79BA",
")	c #2E3091",
"!	c #2F3192",
" .................... ",
"++++++++++++++++++++++",
"+@##################@+",
"+@##################@+",
"+@##################@+",
"+@##################@+",
"+@#####$%%%%%%&#####@+",
"+@#####*=====-;#####@+",
"+@###########>;#####@+",
"+@###########>;#####@+",
"+@###########>;#####@+",
"+@###########>;#####@+",
"+@###########>;#####@+",
"+@###########>;#####@+",
"+@###########>;#####@+",
"+@###########>;#####@+",
"+@###########>;#####@+",
"+@###########>;#####@+",
"+@###########>;#####@+",
"+@###########>;#####@+",
"+@###########>;#####@+",
"+@###########>;#####@+",
"+@###########>;#####@+",
"+@###########,'#####@+",
"+@##################@+",
"+@##################@+",
"+@##################@+",
"+@##################@+",
"++++++++++++++++++++++",
")!!!!!!!!!!!!!!!!!!!!+"};
