/* XPM */
static char * n8_xpm[] = {
"22 30 16 1",
" 	c #2D3093",
".	c #2D3192",
"+	c #2E3192",
"@	c #9BAED8",
"#	c #C8E3F6",
"$	c #B5CEEA",
"%	c #5C67B0",
"&	c #5761AD",
"*	c #94A7D4",
"=	c #484FA2",
"-	c #4D54A6",
";	c #AFC6E5",
">	c #5159A8",
",	c #5D67B0",
"'	c #2E3091",
")	c #2F3192",
" .................... ",
"++++++++++++++++++++++",
"+@##################@+",
"+@##################@+",
"+@##################@+",
"+@##################@+",
"+@#####$%&&&&%$#####@+",
"+@#####*+=--=+*#####@+",
"+@#####*+;##;+*#####@+",
"+@#####*+;##;+*#####@+",
"+@#####*+;##;+*#####@+",
"+@#####*+;##;+*#####@+",
"+@#####*+;##;+*#####@+",
"+@#####*+;##;+*#####@+",
"+@#####*+>&&>+*#####@+",
"+@#####*+>&&>+*#####@+",
"+@#####*+;##;+*#####@+",
"+@#####*+;##;+*#####@+",
"+@#####*+;##;+*#####@+",
"+@#####*+;##;+*#####@+",
"+@#####*+;##;+*#####@+",
"+@#####*+;##;+*#####@+",
"+@#####*+=--=+*#####@+",
"+@#####$,&&&&,$#####@+",
"+@##################@+",
"+@##################@+",
"+@##################@+",
"+@##################@+",
"++++++++++++++++++++++",
"'))))))))))))))))))))+"};
