/* XPM */
static char * n9_xpm[] = {
"22 30 20 1",
" 	c #2D3093",
".	c #2D3192",
"+	c #2E3192",
"@	c #7885C0",
"#	c #C8E3F6",
"$	c #B6CDEA",
"%	c #5C67B0",
"&	c #5761AD",
"*	c #B5CEEA",
"=	c #93A6D3",
"-	c #484FA2",
";	c #4D54A6",
">	c #B0C7E6",
",	c #5159A8",
"'	c #B5CDE9",
")	c #5B66AF",
"!	c #B3CBE8",
"~	c #545DAB",
"{	c #2E3091",
"]	c #2F3192",
" .................... ",
"++++++++++++++++++++++",
"+@##################@+",
"+@##################@+",
"+@##################@+",
"+@##################@+",
"+@#####$%&&&&%*#####@+",
"+@#####=+-;;-+=#####@+",
"+@#####=+>##>+=#####@+",
"+@#####=+>##>+=#####@+",
"+@#####=+>##>+=#####@+",
"+@#####=+>##>+=#####@+",
"+@#####=+>##>+=#####@+",
"+@#####=+>##>+=#####@+",
"+@#####=+,&&,+=#####@+",
"+@#####')&&&,+=#####@+",
"+@##########>+=#####@+",
"+@##########>+=#####@+",
"+@##########>+=#####@+",
"+@##########>+=#####@+",
"+@##########>+=#####@+",
"+@##########>+=#####@+",
"+@#####!~;;;-+=#####@+",
"+@#####*%&&&&%*#####@+",
"+@##################@+",
"+@##################@+",
"+@##################@+",
"+@##################@+",
"++++++++++++++++++++++",
"{]]]]]]]]]]]]]]]]]]]]+"};
