/* XPM */
static char *eb3ba0eb979d45c8ec4ff202a97e9f08UnhLg47HzQSULiKY[] = {
/* columns rows colors chars-per-pixel */
"64 64 203 2 ",
"   c #000000",
".  c #070807",
"X  c #0C0D05",
"o  c #0D0D0D",
"O  c #100E08",
"+  c #0F1106",
"@  c #151A05",
"#  c #15140B",
"$  c #171909",
"%  c #0F1010",
"&  c #121313",
"*  c #171917",
"=  c #1B1C1D",
"-  c #1D2308",
";  c #23290C",
":  c #242C0D",
">  c #2A320F",
",  c #2A2814",
"<  c #352E1A",
"1  c #2D3511",
"2  c #323B14",
"3  c #38311B",
"4  c #1F1D20",
"5  c #211F22",
"6  c #1E2122",
"7  c #242527",
"8  c #262A2A",
"9  c #2C2D2D",
"0  c #2A2F30",
"q  c #2E3233",
"w  c #313536",
"e  c #34393B",
"r  c #383C3E",
"t  c #374016",
"y  c #384217",
"u  c #3A4419",
"i  c #3E481A",
"p  c #414C1B",
"a  c #47541E",
"s  c #4A4725",
"d  c #574D2B",
"f  c #4A5621",
"g  c #4B5722",
"h  c #515F24",
"j  c #4E5636",
"k  c #695C33",
"l  c #556226",
"z  c #586628",
"x  c #5C6A2A",
"c  c #5E6B33",
"v  c #606F2D",
"b  c #63732E",
"n  c #697C2C",
"m  c #76673A",
"M  c #657630",
"N  c #6B7C32",
"B  c #3C3E40",
"V  c #3D4345",
"C  c #464748",
"Z  c #444B4D",
"A  c #494F51",
"S  c #544F57",
"D  c #4C5354",
"F  c #4D5659",
"G  c #545457",
"H  c #535A5C",
"J  c #646944",
"K  c #6F7550",
"L  c #585F61",
"P  c #665E66",
"I  c #5B6264",
"U  c #5D696B",
"Y  c #676969",
"T  c #62696C",
"R  c #646F71",
"E  c #697577",
"W  c #6E797C",
"Q  c #70797C",
"!  c #897843",
"~  c #70842A",
"^  c #6F8036",
"/  c #728335",
"(  c #74853B",
")  c #768939",
"_  c #7B8E3B",
"`  c #7E923D",
"'  c #7C8D41",
"]  c #81953D",
"[  c #869B3F",
"{  c #91A93E",
"}  c #ABC43C",
"|  c #9A874B",
" . c #849443",
".. c #859A40",
"X. c #899E44",
"o. c #A99453",
"O. c #8CA243",
"+. c #95AA47",
"@. c #94AC44",
"#. c #95AC4A",
"$. c #98AF4A",
"%. c #97B141",
"&. c #9AB346",
"*. c #9EB946",
"=. c #9BB34B",
"-. c #9EB94A",
";. c #97AC51",
":. c #A1BB46",
">. c #A3BC4D",
",. c #BEA75D",
"<. c #A4BD51",
"1. c #A8BF54",
"2. c #AABF68",
"3. c #AFBB75",
"4. c #C7AF62",
"5. c #CAB163",
"6. c #D8BE6A",
"7. c #A6C14D",
"8. c #A9C44E",
"9. c #ACCB4F",
"0. c #B1CB4C",
"q. c #BAD84D",
"w. c #A6C052",
"e. c #ABC453",
"r. c #AEC954",
"t. c #ADC558",
"y. c #AFCA59",
"u. c #B1CC55",
"i. c #B5CB5A",
"p. c #B3CD5A",
"a. c #B5D454",
"s. c #BAD455",
"d. c #B6D25B",
"f. c #B8D45B",
"g. c #BCD85B",
"h. c #B4CC63",
"j. c #B6CA67",
"k. c #B4C86D",
"l. c #B7D362",
"z. c #BAD462",
"x. c #BACB74",
"c. c #B9C778",
"v. c #C8C459",
"b. c #DEC36D",
"n. c #C7D074",
"m. c #E2C76F",
"M. c #EED175",
"N. c #F5D778",
"B. c #FDDE7C",
"V. c #FFE07D",
"C. c #747E81",
"Z. c #758183",
"A. c #7B8689",
"S. c #7D8E92",
"D. c #818B8E",
"F. c #848F92",
"G. c #899599",
"H. c #969D9F",
"J. c #ADB688",
"K. c #8B9EA2",
"L. c #929EA1",
"P. c #9D9FA0",
"I. c #95A1A5",
"U. c #99A6AA",
"Y. c #9CA9AD",
"T. c #9DB2B7",
"R. c #A4A6A7",
"E. c #A1AEB2",
"W. c #A4B1B5",
"Q. c #A9B8BC",
"!. c #B2B4B5",
"~. c #B9C883",
"^. c #C1CB85",
"/. c #C6D48B",
"(. c #C8D69B",
"). c #D2DB9E",
"_. c #D5DAA4",
"`. c #D1D8AD",
"'. c #D8E0BC",
"]. c #E0E8BD",
"[. c #AABDC1",
"{. c #B1BFC4",
"}. c #ACC4C9",
"|. c #B6C5C9",
" X c #B9CDD1",
".X c #B7D0D5",
"XX c #B9D1D6",
"oX c #BED4DA",
"OX c #C6C9CA",
"+X c #C1D1D6",
"@X c #CED1D2",
"#X c #C4D5DA",
"$X c #C5D9DE",
"%X c #C9D9DE",
"&X c #DCE1C0",
"*X c #E4EAC7",
"=X c #C6DAE0",
"-X c #CCDDE2",
";X c #CFE0E5",
":X c #D1E2E7",
">X c #E8EDF0",
",X c #EEF1F3",
"<X c #F1F4F6",
/* pixels */
"f.f.f.f.f.f.f.f.f.f.d.d.g.g.d.g.f.s.s.f.s.f.z.f.f.f.f.f.f.f.f.f.f.f.f.d.d.a.a.a.s.f.f.f.f.f.f.f.a.f.f.f.f.f.f.f.d.a.l.q.l.f.f.f.",
"f.f.f.f.f.f.f.f.d.f.d.d.d.d.f.s.s.g.f.f.f.g.f.s.s.f.f.f.f.f.f.f.f.f.f.f.l./.k.~.j.f.f.f.f.f.f.f.f.f.f.f.f.f.f.f.f.a.f.p.u.s.f.f.",
"f.f.f.f.f.f.f.f.f.f.f.d.f.f.f.f.s.j.k.x.x.i.s.s.f.f.f.f.z.f.f.f.f.f.f.f.j.`.x.*Xx.s.f.f.f.f.f.d.f.d.d.f.f.f.f.f.l.g.c.`.*Xh.f.f.",
"f.f.f.f.f.f.f.f.f.f.f.f.f.f.f.l.u.^.).c.J.;.[ ] N b v g u 2 2 2 1 : 2 a g J J K ' O.#.>.r.f.f.f.f.f.f.f.f.f.f.f.a.x.&Xh.(.h.s.f.",
"f.f.f.f.f.f.g.d.u.f.f.l.d.r.=.O.~ j $           .       . o % o % %                       ; l ^ <.d.l.d.d.d.f.f.f.j.n.).k.d.d.f.",
"f.a.s.f.f.8.v.0.*.<.#.M y           * w D T A.L.W.{.+X-X:X:X:X-XH.e     o L W.W.H.Z.R D q %     j (.t.l ^ O.<.d.f.f.c.`.c.d.f.f.",
"f.z.f.f.g.:.1.t.a       . 6 F C.K.}..X-X:X:X:X:X:X:X:X:X:X+XQ =     6 Z.#X:X:X:X:X:X:X:X:X:X+XW.XX:X[.+       z s.s.f.i.f.f.f.f.",
"s.f.z.f.s.1.>.1.z   F K.}..X.X.X.X.X.X$X:X:X:X:X:X:X:XQ.G .     B L.;X:X:X:X:X:X:X:X:X:X:X:X:X:X:X:X:X;XE.I   z z.s.q.s.f.f.f.f.",
"s.q.s.z.h.i.g.f.O.  U .X.X.X.X.X.X.X.XoX:X:X:X:X;XL.r     o H {.:X:X:X:X:X:X:X:X:X:X:X:X:X:X:X:X:X:X:X:X:XR   O.j.f.s.h.f.f.f.f.",
"z.s.s.c.'.j.s.f.t.  6 .X.X.X.X.X.X.X.XXX:X:X#XZ.=     4 W #X:X:X:X:X:X:X:X:X:X:X:X:X:X:X:X:X:X:X:X:X:X:X:X7   e.f.s.z.z.f.f.f.f.",
"z.i.x.n.b.~.x.f.f.l   T..X.X.X.X.X.X.X.X$XF .     V I.:X:X:X:X:X:X:X:X:X:X:X:X:X:X:X:X:X:X:X:X:X:X:X:X:X}.  l f.f.s.f.f.f.f.f.f.",
"q.i.(._.v./.x.s.f.X.  T .X.X.X.X.X.X.X.XU.      w L.-X:X:X:X:X:X:X:X:X:X:X:X:X:X:X:X:X:X:X:X:X:X:X:X:X:XE   ..f.f.f.f.f.f.f.f.f.",
"f.q.a.c.&X2.f.s.f.e.  7 .X.X.X.X.X.X.X.X$XL.D .     % H U.-X:X:X:X:X:X:X:X:X:X:X:X:X:X:X:X:X:X:X:X:X:X:X8   e.f.f.f.f.f.f.f.f.f.",
"v.l.l.l.i.f.f.s.f.f.h   T..X.X.X.X.X.X.X#X:X:X-XL.D .     % D U.;X:X:X;X:X:X:X:X:X:X:X:X:X:X:X:X:X:X:X|.  l f.f.f.f.f.f.f.f.f.s.",
"s.f.s.s.n.f.s.f.z.f.[   R .X.X.X.X.X.X.X.X:X:X:X:X:X#XF.V .     * I E.;X:X;X:X:X:X:X:X:X:X:X:X:X:X:X:XQ   ..f.f.f.f.f.f.f.f.f.f.",
"f.f.f.s.f.f.f.f.f.f.w.  8 .X.X.X.X.X.X.X.X;X:X:X:X:X:X:X:X+XF.V .     = I Q.:X:X:X:X:X:X:X:X:X:X:X:X:X9   w.s.l.d.s.f.f.f.d.f.f.",
"f.f.f.f.f.f.f.f.f.f.f.g   T..X.X.X.X.X.X.X-X:X:X:X:X:X:X:X:X:X:X+XA.w       7 E }.-X:X:X:X:X:X:X:X:X|.  g d.f.f.s.f.f.f.f.f.f.f.",
"f.f.d.f.f.d.d.f.f.f.d...  E .X.X.X.X.X.X.XoX:X:X:X:X:X:X:X:X:X:X:X:X:X|.W 8       C :X:X:X:X:X:X:X:XC.  [ h.i.h.f.f.f.f.f.f.f.f.",
"f.f.f.f.d.d.d.d.f.f.z.1.  0 .X.X.X.X.X.X.XoX:X:X:X:X:X:X:X:X:X:X:X:X:X+XD.r       7 -X:X:X:X:X:X:X;Xw   } i.&Xn.s.f.f.f.f.f.f.f.",
"f.f.f.f.g.g.d.d.f.f.f.f.g   Q..X.X.X.X.X.X.X:X:X:X:X:X:X:X:X:X:X+XF.V .     # D L.-X:X:X:X:X:X:X:X X  a h.c.`.3.p.f.f.f.f.f.f.f.",
"f.>.b a x ` ;.a.i.i.z.f. .  E .X.X.X.X.X.X.X-X:X:X:X:X:X:X+XF.V .     & D L.:X:X:X:X:X:X:X:X:X:X:XC.  ] ~.*X3.).k.=.` z a v -.f.",
"<.@   .         J ~.i.g.w.  q .X.X.X.X.X.X.X=X:X:X:X+XF.V .     % D L.-X:X:X:X:X:X:X:X:X:X:X:X:X:Xe   >.f.x.3.K         +   - <.",
"N   | V.b.o.k ,   j t.f.z.i   [..X.X.X.X.X.XoX#XA.B       * L Y.-X:X:X:X:X:X:X:X:X:X:X:X:X:X:X:X+X  p s.s.f.p   , k o.b.V.|   N ",
"y . B.B.B.V.V.B.d   &.f.f.`   C..X.X.X.X.X.XoXw     & I Y.-X:X:X:X:X:X:X:X:X:X:X:X:X:X:X:X:X:X:XD.  ` f.f.$.  d B.B.V.V.V.B.. t ",
"t O B.B.B.B.B.B.!   { f.z.<.  w .X.X.X.X.X.X.XS.%   . F |.:X:X:X:X:X:X:X:X:X:X:X:X:X:X:X:X:X:X:Xr   <.f.d.#.  ! B.V.B.B.B.B.X t ",
"^   d o.4.6.M.b.,   1.f.f.f.u . }..X.X.X.X.X.X;X$XC.&     Z {.:X:X:X:X:X:X:X:X:X:X:X:X:X:X:X:X+X  u d.s.f.@.  , b.M.6.4.o.d   ^ ",
"y.a               M s.f.f.f._   C..X.X.X.X.X.X=X:X:X$XC.*     Z {.;X;X:X:X:X:X:X:X:X:X:X:X:X:XD.  ` f.f.d.*.M               g t.",
"f.i.$.] ( c J J  .i.f.f.f.f.-.  e .X.X.X.X.X.XoX:X:X:X:X%XC.*     C Q.:X:X:X:X:X:X:X:X:X:X:X:XV   >.d.f.8.e.d...l a b ) / #.d.d.",
"f.f.s.z.z.i.^.^.f.f.f.f.f.f.d.y . }..X.X.X.X.X.X:X:X:X:X:X:X%XC.*     V Q.:X:X:X:X:X:X:X:X:X+X. 1 d.z.d.8.r.l.d.e.e.l.e.*.z.f.f.",
"f.f.f.g.s.g.f.i.f.f.f.f.f.f.f._   Z..X.X.X.X.X.X;X:X:X:X:X:X:X:X=XC.*     Z |.:X:X:X:X:X:X:XF.  n e.y.e.y.w.y.r.y.y.p.w.u.z.d.f.",
"f.f.f.s.s.s.z.s.s.n.d.s.f.f.f.=.  B .X.X.X.X.X.X-X:X:X:X:X:X:X:X:X:X%XD     r :X:X:X:X:X:X:XV   =.7.%.>.d.=.%.e.l.%.w.y.w.8.l.f.",
"f.f.f.f.f.f.t.$.X.$.d.f.f.s.s.a.2 . }..X.X.X.X.X$X:X:X:X:X:X:X:X:X|.D     7 W.:X:X:X:X:X:X$X. 2 d.8.e.y.l.r.@.` ;.*.p.7.*.*.8.z.",
"f.f.f.r.O.v +       z z.f.f.f.f.)   A..X.X.X.X.XoX:X:X:X:X:X;X#XT .   * A.;X:X:X:X:X:X:X:XG.  ) f.d.z.f.f.b       @ b O.u.7.8.z.",
"f.f.#.>     $ k | <   ] z.f.f.f.=.  V .X.X.X.X.XXX:X:X:X:X-XA.*   . T %X:X:X:X:X:X:X:X:X:XZ   =.z.f.f.f.[   3 | k #     > =.z.f.",
"f.r.; X m 5.V.V.B.b.  a t.p.1.0.l.1 . }..X.X.X.XXX-X:X:XL.5     D  X:X:X:X:X:X:X:X:X:X:X%X# > d.f.f.f.f.l   m.V.B.B.5.m X ; r.f.",
"f.#.  m V.V.V.V.V.M.  p &.>.<.i.g./   S..X.X.X.X.X-XW.w     r Q.:X:X:X:X:X:X:X:X:X:X:X:XG.  / f.f.f.f.f.g   M.V.B.V.V.V.m   @.f.",
"f.=.  m B.V.V.V.,.3   _ i.i.f.s.f.=.  Z .X.X.X.X.XU     7 Y.:X:X:X:X:X:X:X:X:X:X:X:X:X:XD   =.f.f.f.f.a.`   3 ,.V.V.V.V.m   =.f.",
"f.r.@ # m.B.o.3     b p.z.z.g.f.f.d.: .  X.X.X.X.XH     . A Y.:X:X:X:X:X:X:X:X:X:X:X:X=X% : a.f.f.f.f.f.d.b     3 o.V.m.# @ r.f.",
"f.f.`   + #     l $.f.f.f.f.f.f.f.f./   F..X.X.X.X.X[.T &     = T |.:X:X:X:X:X:X:X:X:XL.  ^ f.f.f.f.f.f.d.d.#.l     # X   ` f.f.",
"f.d.d.[ u @ b >.f.f.f.f.f.f.f.f.f.f.$.  Z .X.X.X.X.X-X:X=XF.w       C -X:X:X:X:X:X:X:XD   %.f.f.f.f.f.d.f.f.f.f.%.M @ u [ d.f.f.",
"f.f.f.f.f.f.f.f.f.f.f.f.f.f.d.f.f.f.h.; %  X.X.X.X.X=X:X:X:X:X{.I      X:X:X:X:X:X:X-X% ; d.f.f.f.f.f.f.f.f.f.y.7.d.f.f.f.f.f.f.",
"f.f.f.l.l.f.f.f.f.f.f.s.e.c $ s +.f.z.N   G..X.X.X.XoX:X:X:X:X:XW   D :X:X:X:X:X:X:XI.  N f.f.O.p @ x e.f.f.z.t.>.r.f.f.f.s.f.f.",
"f.f.f.f.e.u.f.f.f.f.f.:.,   $ O   [ f.$.  A .X.X.X.XoX:X:X:X:X#X%   {.:X:X:X:X:X:X:XH   #.d...  + $   : w.d.l.p.y.l.f.f.s.f.f.f.",
"s.f.f.r.7.r.f.f.f.f.t.2   ! B.6.# $ u.i.$ o  X.X.X.X.X:X:X+XE.H   r $X:X:X:X:X:X:X-X% - i.u.@ $ m.).!   2 e.l.f.l.d.f.d.f.f.f.f.",
"f.f.f.e.:.r.f.d.f.t.i   m V.B.B.d   7.d.N   K..X.X.X.XU.w             q D.-X:X:X:XU.  N f.<.  d B.B.B.m   i r.f.f.f.l.f.f.f.f.d.",
"f.f.f.f.d.f.g.d.f.b   k V.V.V.M.$ - y.f.@.  D .X.X.X.XI   , G Y Y G =     = R.:X:XL   #.f.y.- $ M.B.B.B.k   b s.d.d.f.g.f.f.f.f.",
"f.f.f.f.g.f.d.g.u.  , B.V.V.V.s   ` f.f.y.@ % .XE R >X>X@X<X<X<X<X<X<XOXA     Q -X& $ u.f.f._   s B.B.V.V.,   y.f.g.d.d.g.d.d.f.",
"f.f.f.f.f.f.s.s.t.  3 V.V.V.|   g d.f.f.g.M   V   6 <X<X<X<X<X<X<X<X<X<X<XR.o   A   v f.f.f.a.g   [ V.V.V.3   r.f.f.f.f.f.d.d.d.",
"f.f.d.d.f.s.f.s.s.h   k N.5.@ @ 7.d.f.f.f.#.    o |.<X<X,XH.G 9 9 G H.,X<X<X|.o     ] z.i.f.f.<.@ O 5.N.k   l f.f.f.f.f.f.f.f.f.",
"f.f.d.d.f.f.z.z.g.1.t         O.f.f.f.d.d.y.    R.,X<XOX8             9 OX<X<XP.    8.f.f.f.f.f.]         2 t.f.f.f.f.f.f.f.f.f.",
"f.f.d.g.s.z.t.j.v.f.u.) g z #.d.f.f.s.r.f.%.  Z <X<XOX#   e L.o o H.w   # OX<X<XC   $.f.f.f.s.z.z.$.z a ) u.f.f.f.f.f.f.f.d.f.d.",
"f.f.g.f.z.r.).).p.z.z.f.d.f.f.f.f.f.7.e.f.b   !.<X<X9   U ;X:Xo o :X;XY   9 ,X<X!.  b z.f.f.s.z.f.f.f.8.d.f.f.f.e.u.g.f.f.s.f.f.",
"f.f.s.s.v.c.x.^.c.a.s.f.d.f.f.f.l.f.r.e.f.- * <X<XR.  w -X:X:Xo o :X:X;Xw   R.<X<X& ; i.g.f.s.s.f.i.z.>.e.f.d.f.*.d.g.d.d.d.d.d.",
"f.f.z.s.u.].)._.`.u.g.f.d.f.f.f.f.f.f.f.e.  C <X<XP   G.:X:X:Xo o :X:X:XG.  Y <X<XC   e.f.f.z.s.z.r.:.y.1.>.d.i.:.d.z.l.d.d.g.d.",
"f.f.f.z.i.k.c.c.j.f.t.N 1                                                                             1 v %.>.e.7.%.d.e.:.f.d.d.",
"f.f.g.f.g.a.d.d.q.y.y   . o . o o . o o o o o o o o o o o o o o o o o o % o o o o o o o % o o o o o % .   2 %.:.r.@.-.8.u.g.d.g.",
"g.d.f.f.f.g.9.7.z.O.  5 S S S S S S S S S S G P P P P P P P P P P P P P P P P P P P P P P P P P P P P P 7   ..e.f.d.d.9.p.d.g.d.",
"f.d.f.d.f.l.d.&.z.)   B S S S S S S S S S S G P P P P P P P P P P P P P P P P P P P P P P P P P P P P P C   _ g.f.f.d.d.d.d.d.d.",
"f.d.f.f.d.w.l.<.w._   4 S S S S S S S S S S S P P P P P P P P P P P P P P P P P P P P P P Y P P P P P P 7   O.f.f.f.d.f.g.d.g.d.",
"d.f.f.f.f.w.{ -.=.=.u   . . o o o o o . o o o . o o o % o o o o o o o % o % o o o o o o o o o o o o % X   p a.d.f.d.f.f.d.d.g.d.",
"d.f.d.d.d.a.8.d.l.a.8.^ 2                                                                             u / y.d.d.f.f.d.f.d.d.f.d.",
"g.f.d.f.f.f.f.f.f.d.f.s.f.z.z.f.f.f.f.f.f.d.f.f.f.f.f.g.f.d.f.f.f.f.f.s.f.f.f.g.f.l.f.f.f.s.s.f.f.f.g.f.d.f.d.g.f.g.d.f.g.f.g.d.",
"f.g.g.f.d.f.f.f.f.f.f.f.f.f.f.f.f.f.f.f.f.f.d.f.f.f.f.f.f.f.f.f.f.f.d.f.f.f.f.f.f.f.f.f.f.f.d.f.f.f.f.f.g.f.d.f.d.d.d.g.f.f.f.f.",
"f.d.d.f.f.f.f.f.f.f.f.f.f.f.f.f.f.f.f.f.f.f.f.f.f.f.f.f.f.f.f.f.f.f.f.f.f.f.f.f.f.f.f.f.f.f.f.f.f.f.f.f.d.f.d.f.g.d.d.f.d.g.d.d."
};
