/* XPM */
static char *_60f2660412b4e658882c0a2ee224cf7vdPl74VglPEKDVsB[] = {
/* columns rows colors chars-per-pixel */
"64 64 198 2 ",
"   c #000000",
".  c #060901",
"X  c #0C0B05",
"o  c #0D0C0C",
"O  c #0E1106",
"+  c #111504",
"@  c #181E07",
"#  c #191809",
"$  c #0F0E10",
"%  c #100F11",
"&  c #141314",
"*  c #181915",
"=  c #19161A",
"-  c #1D1B1D",
";  c #261E10",
":  c #1D2409",
">  c #242B0D",
",  c #252B0D",
"<  c #242718",
"1  c #342915",
"2  c #2C3411",
"3  c #313A13",
"4  c #231F23",
"5  c #222223",
"6  c #2A262B",
"7  c #2C2B2C",
"8  c #2F2C30",
"9  c #302E30",
"0  c #333233",
"q  c #373238",
"w  c #3B353C",
"e  c #3C393D",
"r  c #43341B",
"t  c #533F22",
"y  c #374016",
"u  c #3A4419",
"i  c #3E491A",
"p  c #414C1C",
"a  c #47521F",
"s  c #534420",
"d  c #5A4724",
"f  c #475221",
"g  c #495521",
"h  c #4E5B23",
"j  c #515E25",
"k  c #525B2C",
"l  c #546326",
"z  c #576528",
"x  c #5D6C2B",
"c  c #59613A",
"v  c #606F2D",
"b  c #64742E",
"n  c #657430",
"m  c #6A7B31",
"M  c #423C43",
"N  c #444444",
"B  c #4B454D",
"V  c #4E4D4E",
"C  c #4F4D50",
"Z  c #544C55",
"A  c #564E58",
"S  c #545454",
"D  c #5B5A5B",
"F  c #6E7649",
"G  c #5D5360",
"H  c #645C66",
"J  c #646464",
"K  c #69616A",
"L  c #6B6A6B",
"P  c #6F6571",
"I  c #726A74",
"U  c #766E78",
"Y  c #737373",
"T  c #7B737D",
"R  c #7B7B7C",
"E  c #856935",
"W  c #9C7740",
"Q  c #6F8134",
"!  c #728436",
"~  c #758739",
"^  c #778938",
"/  c #7A8C3B",
"(  c #7D923B",
")  c #7B8655",
"_  c #82963E",
"`  c #849A3D",
"'  c #889F3B",
"]  c #91AB3E",
"[  c #869B41",
"{  c #859943",
"}  c #859457",
"|  c #AB8645",
" . c #8DA344",
".. c #92A946",
"X. c #94AB4A",
"o. c #95AC48",
"O. c #97B241",
"+. c #9AB344",
"@. c #9EB945",
"#. c #9BB34C",
"$. c #9EB94B",
"%. c #99A754",
"&. c #9DBA50",
"*. c #A2BD46",
"=. c #A2BC4D",
"-. c #A8BF4F",
";. c #A4BD52",
":. c #A8BF51",
">. c #949672",
",. c #99A66D",
"<. c #A9BA66",
"1. c #AEB46C",
"2. c #A8B872",
"3. c #C3A04B",
"4. c #E1AB5D",
"5. c #E5BB59",
"6. c #F7BC66",
"7. c #A5C14C",
"8. c #AAC44E",
"9. c #AECC4F",
"0. c #B1CB4C",
"q. c #BAD74C",
"w. c #A6C052",
"e. c #ACC654",
"r. c #AEC954",
"t. c #A7C158",
"y. c #ACC559",
"u. c #AEC959",
"i. c #B1CC55",
"p. c #B4C85A",
"a. c #B3CD5A",
"s. c #AFD056",
"d. c #B5D355",
"f. c #BAD455",
"g. c #B6D25B",
"h. c #B8D45B",
"j. c #BCD85B",
"k. c #ADC363",
"l. c #B4CB64",
"z. c #BACE63",
"x. c #B7C869",
"c. c #B6CC6C",
"v. c #B7D261",
"b. c #BAD462",
"n. c #BDD864",
"m. c #B8D368",
"M. c #AEC076",
"N. c #BACB73",
"B. c #B7C478",
"V. c #BBCC7C",
"C. c #C6C756",
"Z. c #CED35D",
"A. c #CFCE6C",
"S. c #C7D564",
"D. c #C3C979",
"F. c #C2D37C",
"G. c #FECE62",
"H. c #FFC269",
"J. c #FED062",
"K. c #7F7681",
"L. c #807782",
"P. c #838384",
"I. c #8B8B8B",
"U. c #929293",
"Y. c #9A999B",
"T. c #ADB48B",
"R. c #9F9EA1",
"E. c #A6A5A7",
"W. c #B9B9BA",
"Q. c #C1BD98",
"!. c #BBC783",
"~. c #B9C786",
"^. c #BCC291",
"/. c #BECAA3",
"(. c #C4CD8A",
"). c #C6D38A",
"_. c #C5CC97",
"`. c #CBD494",
"'. c #CAD697",
"]. c #D2D99B",
"[. c #CAD3A4",
"{. c #D2DBA4",
"}. c #D6D8A6",
"|. c #CFD4B2",
" X c #D6DAB7",
".X c #D6E0A3",
"XX c #D8E1B6",
"oX c #E0E8BD",
"OX c #C5C5C7",
"+X c #CCCCCC",
"@X c #DBDDC1",
"#X c #D4D4D4",
"$X c #D7D6D9",
"%X c #D8D7DA",
"&X c #DCDCDC",
"*X c #DDE1C1",
"=X c #E6EDC8",
"-X c #E4E4E4",
/* pixels */
"h.h.h.h.h.h.h.h.h.h.h.h.g.g.j.g.h.f.f.f.f.h.S.g.f.a.h.h.h.h.h.g.g.h.h.h.h.d.d.d.d.h.h.h.h.h.h.g.j.j.g.g.h.h.h.h.h.d.m.q.m.f.j.h.",
"h.h.h.h.g.h.h.g.h.g.h.h.j.g.h.d.f.j.h.h.h.h.h.h.p.> m h.h.h.h.l j h.h.h.l.) < M.m.h.h.h.h.h.h.h.g.g.h.h.d.h.h.h.h.d.g.g.r.d.h.g.",
"h.h.h.h.h.h.h.g.h.g.g.g.h.h.h.h.f.b.x.B.V.g.f.h.h.p   ;.h.v.h.2 3 h.h.h.%.  g *XV.d.g.h.h.h.h.h.g.j.h.g.h.h.h.h.v.d.B.|.*Xk.j.g.",
"h.h.h.h.h.h.h.g.h.j.j.g.h.h.h.v.d.~.{.D._.l.q.h.h.#.  j g.b.h.3 3 g.h.d.l   1.^.v.f.h.h.g.h.h.g.g.g.g.j.h.h.h.h.s.F.*Xz.{.l.g.j.",
"h.d.j.h.h.h.h.d.i.j.h.h.g.h.h.v.q.V.(.x. XV.f.v.h.f.b   ` a.v.p i h.h...  F _.(.g.v.h.h.h.h.h.h.h.j.h.h.h.h.h.h.g.z.)..Xx.g.d.h.",
"h.d.f.C.h.8.S.e.*.h.m.w.r.h.h.h.q.a._.XXB.v.f.h.h.h.e.+ p e.g.;.=.h.h.i + ;.a.r.h.h.h.h.f.h.h.h.r.g.v.g.g.h.h.h.f.f.B.{.V.g.h.h.",
"h.b.h.h.h.=.:.e.#.+.y.7.@.h.h.v.f.f.N.l.d.d.( ..f.h.h.[ ` a.h.h.h.h.h. ...h.h.h.../ g.j.r.h.w.b.*.u.g.n.v.g.v.h.g.f.j.u.v.h.h.h.",
"h.h.b.h.f.e.-.-.v.i.r.h.7.r.h.h.h.f.h.f.f.p.@   k ;.h.v.h.h.e. . .w.h.h.h.g.-.l   > i.v.w.w.$.y.u.#.&.t.w.$.r.j.v.f.q.f.j.d.h.h.",
"f.q.f.b.l.d.Z.j.f.j.h.h.Z.h.h.d.f.h.v.z.v.h.w.b   > g.h.g.~         ~ g.h.g.>   x w.h.h.u.u.w.$.a.w.7.$.y.7.@.g.b.g.h.h.z.h.h.h.",
"b.f.f.B. Xk.g.h.h.h.h.f.g.h.h.d.h.h.f.j.h.h.h.h.#...h.g.(   # E E #   _ h.h...#.h.h.h.h.d.f.h.h.v.h.v.h.h.h.h.g.h.h.h.m.h.f.h.h.",
"b.f.N.D.A.(.N.h.z.h.h.h.h.h.h.h.h.h.h.d.f.h.g.a.h.h.h.d.> + 5.G.H.4.X > a.h.f.j.h.h.h.h.h.h.h.d.h.j.h.g.h.h.g.h.f.f.h.v.h.h.h.h.",
"q.a.`.}.C.`.N.f.h.h.h.h.h.h.h.h.h.h.h.$.#.#.#.#.w.h.h.e.  r J.J.H.H.r   e.h.h.w.#.X.+.#.#.g.h.h.h.g.h.h.h.h.h.h.h.h.h.h.h.h.h.h.",
"h.C.d.B.@X<.h.f.h.h.h.h.h.h.h.h.h.h.+.          3 h.h.w.  s J.J.H.H.t   w.h.h.u           o.h.h.h.g.g.h.h.h.h.h.h.h.g.h.f.f.h.h.",
"z.h.v.g.p.n.j.f.h.h.d.h.h.h.h.h.h.h.u.{ _ _ _ _ #.h.h.g.v | J.J.H.H.t   w.g.h.#._ { _ { { g.h.h.g.j.h.h.h.h.h.h.g.h.h.h.h.h.h.h.",
"f.h.f.f.n.z.f.h.v.j.h.h.h.h.g.h.h.h.h.h.h.h.h.h.h.h.h.h.Z.J.J.J.H.H.t   w.h.h.h.h.h.h.h.h.h.h.h.h.h.h.d.h.h.h.h.h.h.h.h.h.h.h.h.",
"v.h.j.f.h.h.h.h.v.f.d.g.j.h.d.h.h.h.h.h.r.g.h.f.h.h.h.v.Z.J.J.G.H.H.t   ;.h.h.v.g.h.v.h.h.h.h.j.h.h.h.h.h.h.f.v.h.h.g.h.h.g.h.h.",
"j.h.h.h.h.g.g.h.h.h.h.h.h.h.h.g.h.f.h.h.@.u.j.h.h.h.h.h.! 3.J.G.H.H.t   w.h.j.h.h.h.h.p.h.h.d.s.h.h.h.m.h.h.b.j.j.f.h.h.h.h.h.h.",
"h.h.h.g.g.j.g.j.h.h.h.h.h.h.h.h.h.h.b.g.=.i.h.h.b.h.h.8.  d J.J.H.H.t   w.h.f.f.f.f.j.f.j.h.h.8.h.h.h.h.h.b.p.p.h.h.h.h.h.h.h.h.",
"h.h.h.g.h.g.g.h.h.h.h.v.v.g.h.h.h.h.g.g.8.u.v.j.p.e.b.:.  s G.G.H.H.t   :.h.h.h.h.b.f.f.h.h.p.$.r.j.j.h.q.a.XXV.f.b.h.h.h.h.h.h.",
"g.h.g.j.g.g.j.h.h.h.h.h.v.*.e.h.d.v.b.u.e.r.h.n.;.e.b.;.  s J.G.H.H.t   :.h.m.i.l.x.z.f.f.S.p.+.g.h.h.v.z.B.}.N.a.h.h.h.h.h.h.h.",
"h.h.h.h.j.h.m.j.f.i.j.h.h.e.e.@.w.w.l.u.y.u.n.v.w.u.b.;.  s J.J.H.H.t   w.f.z.`.).`.x.h.f.j.a.a.v.h.h.f.~.=X2.{.c.j.v.h.h.h.h.h.",
"h.h.h.h.g.d.l.u.(.`.a.j.h.r.a.p.w.@.] =.m.@.&.e.u.w.i.e.  s J.G.H.H.t   &.S.0.~.(.D.~.q.h.b.v.h.h.h.h.f.f.N.~.`.b.j.v.h.g.h.h.g.",
"h.h.h.h.h.i.XX{.D.}.u.Z.b.i.i.n.g.e.r.*.b.r.7.O.a.O.+.#.  s J.J.H.H.t   ^.Q.).[. X`.@X0.h.v.h.h.h.h.h.d.h.h.h.i.g.g.v.h.h.h.h.h.",
"h.h.h.h.b.p.`._.].2.f.h.h.h.f.h.h.h.j.h.h.j.b.s.g.e.u...  s J.J.H.H.t   1.A.`.1.B.1.y.h.f.f.h.h.h.h.h.h.h.h.f.f.g.g.h.g.h.h.g.h.",
"h.h.h.h.h.g.V.T.}.F.q.h.h.b.h.h.h.h.h.d.h.d.h.h.d.n.v.w.  s J.J.H.H.t   (.A._.^.}.`.}.l.m.f.h.h.h.g.h.g.h.h.h.g.g.m.h.h.h.v.h.h.",
"h.h.f.h.v.x.}.`.k.v.h.h.h.h.h.b.h.h.h.h.h.d.h.h.h.h.h.w.  s J.J.H.H.t   <.~.`.~.[.!.'.a.h.z.h.h.g.g.j.g.h.7.g.b.g.g.*.h.g.h.h.h.",
"v.f.f.h.c. XC.A.|.p.O.=.h.h.h.h.g.j.h.h.h.h.h.h.h.h.h.r.. 1 G.G.H.H.1   8.h.d.u.V.].k.h.f.h.h.h.j.g.f.j.#.( a.h.h.*.8.n.v.h.h.h.",
"h.f.j.b.m.t.`.`.%.g   X r.h.h.h.g.g.h.h.h.h.h.h.h.h.h.g.a X E G.H.W   g h.b.h.j.m.F.v.f.f.h.h.h.h.g.h.r.O   f +.u.*.s.m.7.h.h.v.",
"h.h.f.p.b.g.2.c       > i.h.h.h.h.h.g.h.h.h.h.h.h.h.h.g.&.+   < ;   + #.h.z.f.f.g.g.h.h.h.h.h.h.7.g.m.u.>       h X.b.e.O.v.h.h.",
"h.p.g   / b     9 0   { h.h.h.h.h.h.h.h.g.j.h.h.h.h.h.h.g.&.z     j =.h.j.n.h.f.h.h.r.u.h.h.h.j.*.8.u.r./   0 0     b m   g y.h.",
"r.f   X     5 U.OXo > i.h.h.h.h.g.g.h.g.g.h.h.h.h.h.d.h.g.h.h.s.a.h.h.h.h.v.h.f.h.g.7.$.r.g.h.h.g.7.O.$.u.: o +XU.5     .   f u.",
"z   S W.-   V $XL   ( h.h.h.f.d.j.g.j.g.h.h.d.h.h.h.h.h.d.h.h.h.h.h.h.f.h.h.h.f.g.v.g.g.g.v.v.g.g.8.e.s.v.^   J $XV   * OXC   x ",
"y   U.-XOX-   N O : =.b.g.g.g...z ` h.h.h.h.h.h.h.h.h.h.h.i.( h j ( p.h.h.h.h.h.h.h.b.v.j.v.{ z ..a.b.b.h.r.: % N   - OX-XU.  u ",
"#.#   U.-X+X5     Q w.r.b.#.h     2 g.h.h.h.h.h.h.h.h.h.i.p         p a.h.h.h.h.h.h.h.h.h.h.2     h #.h.h.d.(     5 +X-XI.  * %.",
"g.#.#   P.-X+X6   x ;. .z     X   ^ g.h.h.h.h.h.h.h.h.h.!   d 5.5.d   m h.h.h.h.h.h.g.h.h.h.^   X     x =.h.b   5 +X-XI.  : #.h.",
"h.h.&.- o ) -X#X7   y     7 U.& + e.j.d.7.8.h.h.h.h.h.h.: o G.G.G.6.X > g.h.h.h.h.f.h.f.h.h.e.+ * U.7     i   7 #X-X) o : #.j.h.",
"h.h.h.$.>   Y -X#X9     P.%XR   ~ f.h.f.8.d.h.h.h.h.g.g.  # J.G.H.H.# . d.h.h.h.f.h.g.f.m.f.h.!   R $XP.    9 #X-XY   > ;.h.h.h.",
"h.h.h.h.=.2   Y -X$X0   7 OX& O e.g.h.h.h.g.;.h.h.h.g.h.l   | H.H.W   z h.f.h.h.d.<./.i.x.b.d.e.X * OX0   0 %X-XY   3 &.h.h.h.h.",
"h.h.h.h.h.7.3   J -X%Xe   %   m h.h.p.h.o.a   ^ h.h.h.h.#..   r r   . #.h.h.h.h.m   V ,.m.v.h.h.Q   o   q &X-XJ   3 w.h.h.h.h.h.",
"h.h.h.h.h.h.w.y   J -X&Xe     =.C.h.=.j       Q d.g.h.h.h.#.i     i #.h.h.C.h.h.)       c +.h.h.&.    e &X-XJ   3 e.h.g.h.h.g.h.",
"g.h.g.h.h.h.h.e.u   D -X&XN   h &.v     0 .   ;.h.h.h.h.h.h.d.w.e.h.h.h.b.h.f.v.<.  . 0     x #.h   N &X-XD   y O.g.j.h.h.h.h.h.",
"h.h.h.h.v.h.h.h.e.i   V &X-XV       4 U.I.  b h.h.h.h.h.h.h.h.h.v.h.h.v.h.b.h.h.d.b   I.R.6       N &X-XS   u #.@.u.h.h.h.h.h.h.",
"d.h.h.h.8.s.v.h.h.r.p   V -X-XV   o W.$X5   ;.g.h.h.h.g.h.j.h.h.h.h.v.v.b.h.h.h.f.;.  5 $XW.o   C -X-XV   f u.v.u.g.v.h.f.h.h.h.",
"h.h.h.u.7.u.h.j.h.h.p.g   N &X-XS   & Y   b h.g.h.h.g...^ u.g.h.h.h.u.^ ` v.h.h.g.g.b   Y &   S -X&XN   g y.v.v.b.v.h.h.h.d.h.h.",
"h.h.h.r.@.r.j.g.h.h.h.0.k   N &X-XD       =.g.f.h.#.g     ( h.g.h.h.{     g #.g.h.h.=.      J -X&XN   h s.h.h.h.h.h.h.v.h.g.h.h.",
"h.h.h.h.g.h.j.g.h.h.f.f.p.j   e &X-XJ   @ w.g.;.l         ' h.g.h.v.o.        z &.h.w.@   J -X-XY.  l i.g.h.d.d.h.h.h.h.h.h.h.h.",
"h.h.h.h.h.h.h.d.h.b.h.h.v.i.z   q %X-XL   2 x     0 L   u ( b h j n ` u   L 0     b 2   L -X-X-X[...r.j.h.h.h.h.h.h.h.h.h.h.h.h.",
"h.h.h.h.h.h.h.f.h.b.v.h.h.h.d.x   9 %X-XY     = U.%X0                     0 $XU.-     Y -X%XE.XXe.r.h.h.h.g.h.h.h.h.h.h.h.h.d.h.",
"h.h.h.h.f.h.h.f.f.h.h.h.h.h.h.g.v   7 #X-XR   X R.E.    X e K K.T H q       E.Y.o   R -X#X7   ;.#.w.h.h.h.h.h.h.h.h.h.h.h.g.g.j.",
"h.h.h.h.h.h.h.S.b.f.h.h.h.h.h.g.g.n   6 +X-XP.    5   = I L.K.I I L.K.H &   4 o   >.-X#X6   n a.e.u.h.h.h.h.h.h.h.h.h.h.h.j.g.g.",
"h.h.g.h.h.z.p.l.z.h.j.h.h.h.h.h.h.g.n   5 +X-XI.    % U L.B o     $ B K.H o     P.-X+X5   m f.h.n.h.d.h.h.h.h.h.h.h.h.h.h.g.h.h.",
"g.h.h.h.h.r.{.].i.m.h.h.h.h.h.h.h.h.7.b   < +X-X0   D L.e     & &     e U B   0 -X+X-   m g.j.h.h.h.v.e.g.h.h.b.7.i.h.h.g.g.j.h.",
"h.f.h.h.h.N.D.~.N.d.d.h.h.h.d.h.v.n.7.e.~   - W.  & L.H   o A P P A o   H P o   W.-   ! h.C.h.h.h.i.b.-.e.f.g.b.@.g.v.h.j.g.j.g.",
"h.f.h.h.p.oX]..X|.g.h.h.h.h.h.h.h.h.j.h.g.~   .   9 L.e   e P P P P w   e P 6       ~ h.h.h.h.h.b.r.*.e.w.=.i.d.$.g.h.h.g.g.h.g.",
"h.h.h.h.f.x.B.B.l.h.h.h.g.h.h.h.v.h.h.h.g.g./     e L.8   Z P P P P Z   8 P 0     _ h.h.h.h.h.h.h.b.8.:.=.$.;.e.7.O.h.e.*.h.g.j.",
"h.h.C.b.h.f.g.a.q.h.g.h.h.h.h.h.h.h.v.h.h.h.h.^   M L.e   e P P P P w   e P q   / h.p.f.h.i.f.f.h.h.g.7.$.&.+.*.s.] $.w.s.h.g.g.",
"h.h.h.h.h.j.0.7.n.v.j.r.h.h.h.g.h.h.h.h.h.h.g.o.  M L.K   o Z P P Z o   H P q   ..f.x.^.c.].c.h.h.h.h.r.g.g.s.e.n.g.g.8.g.h.h.h.",
"h.h.h.h.h.m.g.*.n.s.u.( { { ) o.h.j.g. ._ { _ m   M L.L.e     & &     e L.P q   m _ } T.) >.} { _ ` { { o.h.h.j.h.h.h.d.g.h.h.g.",
"h.h.h.h.h.w.z.&.;.#.g       .   } ,.}             M L.L.K.B $     % C L.L.P q                             h r.h.h.h.g.h.g.g.h.h.",
"g.h.g.h.h.7.] &.#.^   - M M M S P P K B M M q 4   e L.L.L.L.K.I I L.L.L.K.P q   4 w M M s M M M M M q q =    .h.h.g.h.h.h.j.g.h.",
"h.h.g.h.h.s.7.i.b./   N P P P P P P P P P P G w   e L.L.L.L.L.L.L.L.L.K.K.P q   w G P P P P P P P P A H e   ( h.h.h.g.g.h.g.j.g.",
"h.h.h.h.h.h.h.j.h.#.  X - - 5 - 4 - - - - - = %   & 4 4 4 5 5 4 5 4 5 5 4 - o   % = - - 4 - - - - - = = . . #.h.d.h.h.j.h.h.j.g.",
"h.h.h.g.h.h.h.g.h.h.{ #                                                                                 : ) h.h.h.h.h.h.h.g.g.g.",
"h.g.g.j.h.h.h.h.h.h.h.g.e.r.e.e.e.r.e.u.e.e.e.u.e.e.r.e.e.u.e.r.e.e.e.p.e.e.r.e.r.e.e.r.e.e.p.e.r.e.r.e.s.h.h.h.h.h.g.h.h.g.j.h."
};
